<svg width="92" height="74" viewBox="0 0 92 74" fill="none" xmlns="http://www.w3.org/2000/svg">
<g clip-path="url(#clip0_5_3196)">
<path d="M28.2689 29.5828C28.1704 32.7955 29.7197 34.2181 29.7581 35.1216C29.7398 35.3055 29.6794 35.4822 29.5817 35.637C29.4841 35.7917 29.3521 35.9199 29.1969 36.011L27.4449 37.2819C27.2182 37.4466 26.9509 37.5411 26.6743 37.5542C26.6155 37.5514 25.5533 37.8138 23.8712 33.9217C22.8449 35.2493 21.5391 36.3159 20.0537 37.0399C18.5684 37.7639 16.9428 38.1262 15.3016 38.0989C13.0733 38.2251 7.03449 36.7883 7.34519 30.126C7.12756 24.6963 12.0071 21.3233 17.0536 21.6084C18.0254 21.6113 20.01 21.6609 23.4852 22.4978V20.2822C23.8534 16.5291 21.4732 13.6171 17.3519 14.054C17.0234 14.0554 14.6966 13.9831 11.0777 15.488C10.0703 15.9674 9.94166 15.888 9.60632 15.888C8.5921 15.888 9.00956 12.8412 9.20392 12.4554C9.91702 11.5477 14.1122 9.85265 18.2293 9.87676C20.9821 9.62447 23.7202 10.5049 25.8517 12.3278C26.7182 13.3321 27.3792 14.5081 27.7949 15.7845C28.2106 17.061 28.3723 18.4115 28.2703 19.7546L28.2689 29.5828ZM16.4404 34.177C20.8791 34.1103 22.7584 31.3444 23.1868 29.8551C23.5235 28.4296 23.4674 27.5275 23.4674 25.9686C22.1439 25.6396 20.2386 25.2807 18.0527 25.2779C15.9791 25.1162 12.1918 26.0764 12.3397 29.8537C12.1699 32.2352 13.8617 34.3075 16.4404 34.177ZM39.8346 37.4464C38.7588 37.5486 38.2579 36.7571 38.0991 35.9755L31.2828 12.6214C31.1501 12.2271 31.0625 11.82 31.02 11.4044C30.9949 11.2331 31.0364 11.0584 31.1355 10.9187C31.2345 10.7791 31.3831 10.686 31.5484 10.6597C31.5812 10.6541 31.2568 10.6597 34.5938 10.6597C35.7955 10.5349 36.187 11.515 36.3115 12.1306L41.2006 32.1061L45.7393 12.1306C45.8119 11.6739 46.1417 10.5604 47.4913 10.6782H49.84C50.137 10.6526 51.3607 10.6072 51.5756 12.1491L56.1498 32.3799L61.1963 12.1491C61.262 11.8398 61.5686 10.5363 62.9319 10.6782H65.631C65.7473 10.6597 66.4728 10.5633 66.3496 11.8952C66.2907 12.1576 66.8163 10.3831 59.1296 35.994C58.9722 36.7755 58.4698 37.567 57.394 37.4649H54.8359C53.3385 37.628 53.1236 36.0947 53.1003 35.9401L48.5616 16.4894L44.0749 35.9202C44.053 36.0748 43.8382 37.6081 42.3394 37.445H39.8346V37.4464ZM77.2665 38.245C76.4617 38.2464 72.6238 38.2024 69.4155 36.5018C69.0959 36.3615 68.8237 36.1261 68.6334 35.8254C68.4431 35.5246 68.3433 35.1721 68.3465 34.8124V33.2876C68.3465 32.0891 69.1952 32.3089 69.5551 32.4522C70.9293 33.0281 71.8108 33.4649 73.4984 33.8139C78.5148 34.8819 80.7212 33.4876 81.2618 33.1784C83.0617 32.0706 83.2041 29.5359 81.9804 28.2211C80.546 26.9743 79.8616 26.9275 74.7084 25.2424C74.0733 25.0594 68.7271 23.312 68.7147 17.8156C68.6312 13.81 72.1434 9.84698 78.2301 9.8796C79.9643 9.87818 84.5851 10.4654 85.8361 12.0952C86.0209 12.3916 86.1126 12.7405 86.0989 13.0937V14.5277C86.0989 15.1575 85.8772 15.4724 85.4324 15.4724C84.3771 15.3504 82.5047 13.888 78.7037 13.9476C77.7607 13.8965 73.2439 14.0767 73.4464 17.4894C73.3876 20.1787 77.0886 21.1872 77.5115 21.3035C82.5019 22.8595 84.1704 23.1176 86.1509 25.4991C88.4969 28.6551 87.2322 32.3501 86.7463 33.3628C84.1348 38.6804 77.3815 38.2478 77.2665 38.245ZM82.7688 53.1185C73.1836 60.4545 59.2692 64.3594 47.3886 64.3594C31.3582 64.4689 15.868 58.3605 3.96307 47.2349C3.06929 46.3994 3.85767 45.2548 4.94444 45.8916C18.1505 53.7201 33.1026 57.8334 48.3166 57.8233C59.6781 57.7602 70.9155 55.3717 81.3837 50.7951C82.996 50.0859 84.3634 51.9015 82.7688 53.1185ZM86.7641 48.3966C85.5378 46.7626 78.6503 47.6335 75.5666 48.015C74.6372 48.1242 74.4798 47.2888 75.3216 46.6718C80.8061 42.6761 89.8136 43.8208 90.8484 45.164C91.8818 46.5072 90.5678 55.8602 85.4337 60.3282C84.6453 61.019 83.8912 60.6545 84.2416 59.7467C85.3968 56.7326 87.9905 50.032 86.7641 48.3966Z" fill="#CAD0DB"/>
</g>
<defs>
<clipPath id="clip0_5_3196">
<rect width="91.1754" height="72.404" fill="white" transform="translate(0 0.895508)"/>
</clipPath>
</defs>
</svg>
