<svg width="85" height="93" viewBox="0 0 85 93" fill="none" xmlns="http://www.w3.org/2000/svg">
<path d="M83.9616 37.1022C83.9616 31.5848 77.052 26.3558 66.4582 23.1132C68.903 12.3158 67.8165 3.72539 63.0287 0.975087C61.9251 0.329952 60.6351 0.0243541 59.226 0.0243541V3.81028C60.0069 3.81028 60.6351 3.96308 61.1613 4.25167C63.4702 5.57587 64.472 10.6181 63.6907 17.1033C63.5043 18.6992 63.1987 20.3799 62.8252 22.0946C59.4974 21.2797 55.8644 20.6516 52.0446 20.2441C49.7528 17.1033 47.376 14.2512 44.9821 11.7556C50.5166 6.61149 55.7118 3.79327 59.2431 3.79327V0.00738525C54.574 0.00738525 48.4625 3.33491 42.2829 9.10711C36.103 3.36885 29.9914 0.0753002 25.3228 0.0753002V3.86118C28.837 3.86118 34.0489 6.66243 39.5834 11.7725C37.2066 14.2682 34.8298 17.1033 32.5718 20.2441C28.7349 20.6516 25.1019 21.2797 21.7745 22.1116C21.3838 20.4139 21.0953 18.7671 20.8915 17.1882C20.0939 10.703 21.0782 5.66076 23.3704 4.31958C23.8795 4.01398 24.5415 3.87819 25.3228 3.87819V0.0922691C23.8966 0.0922691 22.6062 0.397867 21.4859 1.043C16.7152 3.79327 15.6458 12.3667 18.1073 23.1302C7.5476 26.3898 0.671875 31.6018 0.671875 37.1022C0.671875 42.6201 7.58154 47.849 18.1752 51.0914C15.7305 61.8891 16.8169 70.4792 21.6048 73.2296C22.7083 73.8746 23.9983 74.1802 25.4246 74.1802C30.0932 74.1802 36.2051 70.8528 42.3847 65.0806C48.5642 70.819 54.6762 74.1126 59.3448 74.1126C60.7707 74.1126 62.061 73.807 63.1817 73.1617C67.952 70.4113 69.0218 61.8378 66.5599 51.0747C77.0858 47.8319 83.9616 42.603 83.9616 37.1022ZM61.8575 25.7786C61.2292 27.9688 60.4484 30.2265 59.5654 32.4845C58.8695 31.1266 58.1395 29.7683 57.3415 28.41C56.5606 27.0519 55.7285 25.7277 54.8967 24.4375C57.3073 24.794 59.6333 25.2354 61.8575 25.7786ZM54.0817 43.8592C52.7575 46.1513 51.3996 48.3243 49.9905 50.3447C47.4606 50.5652 44.8974 50.6841 42.3167 50.6841C39.7531 50.6841 37.1895 50.5652 34.6771 50.3614C33.268 48.341 31.8926 46.1851 30.5685 43.91C29.2781 41.6862 28.107 39.4282 27.0372 37.1535C28.0899 34.8784 29.2781 32.6033 30.5518 30.3795C31.8759 28.0877 33.2338 25.9145 34.643 23.8942C37.1728 23.6735 39.736 23.5546 42.3167 23.5546C44.8803 23.5546 47.4439 23.6735 49.9563 23.8772C51.3655 25.8975 52.7408 28.0535 54.065 30.3286C55.3553 32.5524 56.5265 34.8104 57.5962 37.0855C56.5265 39.3602 55.3553 41.6353 54.0817 43.8592ZM59.5654 41.6524C60.4566 43.8649 61.2385 46.1198 61.9084 48.409C59.6842 48.9522 57.3415 49.4108 54.9138 49.7673C55.7456 48.4602 56.5773 47.119 57.3586 45.7436C58.1395 44.3857 58.8695 43.0103 59.5654 41.6524ZM42.3505 59.767C40.7716 58.1369 39.1928 56.3204 37.631 54.3342C39.159 54.4021 40.7208 54.453 42.2996 54.453C43.8956 54.453 45.4744 54.4192 47.0195 54.3342C45.5622 56.2279 44.0036 58.0415 42.3505 59.767ZM29.7196 49.7673C27.309 49.4108 24.983 48.9693 22.7592 48.4261C23.3871 46.236 24.1684 43.978 25.051 41.72C25.7472 43.0783 26.4773 44.4366 27.2748 45.7945C28.0728 47.1528 28.8879 48.4769 29.7196 49.7673ZM42.2659 14.4379C43.8447 16.0677 45.4236 17.8843 46.9853 19.8706C45.4574 19.8027 43.8956 19.7518 42.3167 19.7518C40.7208 19.7518 39.1419 19.7857 37.5972 19.8706C39.0544 17.9769 40.6129 16.1634 42.2659 14.4379ZM29.7025 24.4375C28.8708 25.7447 28.039 27.0859 27.2581 28.4608C26.4772 29.8191 25.7472 31.1774 25.051 32.5353C24.1597 30.3229 23.3779 28.0679 22.7083 25.7786C24.9322 25.2524 27.2748 24.794 29.7025 24.4375ZM14.3384 45.6928C8.32857 43.1292 4.44079 39.768 4.44079 37.1022C4.44079 34.4369 8.32857 31.0586 14.3384 28.5121C15.7984 27.8838 17.3943 27.3236 19.0412 26.7973C20.0088 30.1247 21.2821 33.588 22.8609 37.1364C21.2992 40.6677 20.0426 44.1139 19.092 47.4246C17.4114 46.8981 15.8155 46.321 14.3384 45.6928ZM23.4721 69.9531C21.1633 68.6289 20.1614 63.5868 20.9427 57.1012C21.1295 55.5057 21.4347 53.8247 21.8082 52.1099C25.136 52.925 28.769 53.5533 32.5888 53.9606C34.8806 57.1012 37.2575 59.9534 39.6514 62.449C34.1168 67.5933 28.9217 70.4113 25.3904 70.4113C24.6266 70.3946 23.9816 70.2416 23.4721 69.9531ZM63.742 57.0166C64.5396 63.5017 63.5552 68.5439 61.263 69.8851C60.754 70.1907 60.0919 70.3266 59.3106 70.3266C55.7964 70.3266 50.5846 67.5254 45.05 62.4152C47.4268 59.9196 49.8037 57.0845 52.0617 53.9435C55.8986 53.5362 59.5316 52.9079 62.859 52.0761C63.2496 53.7909 63.5552 55.4377 63.742 57.0166ZM70.278 45.6928C68.8179 46.321 67.222 46.8814 65.5752 47.4075C64.6075 44.0801 63.3343 40.6168 61.7554 37.0684C63.3176 33.5372 64.5737 30.0909 65.5243 26.7803C67.2053 27.3066 68.8009 27.8838 70.2951 28.5121C76.3049 31.0753 80.1926 34.4369 80.1926 37.1022C80.1756 39.768 76.2878 43.1462 70.278 45.6928Z" fill="#CAD0DB"/>
<path d="M42.2997 44.861C46.5849 44.861 50.0585 41.3874 50.0585 37.1022C50.0585 32.8174 46.5849 29.3438 42.2997 29.3438C38.0149 29.3438 34.5413 32.8174 34.5413 37.1022C34.5413 41.3874 38.0149 44.861 42.2997 44.861ZM4.45396 87.5388H1.89282V91.9497H0.44751V81.0461H4.05706C5.28518 81.0461 6.22878 81.3258 6.88777 81.885C7.55177 82.4438 7.88379 83.2578 7.88379 84.326C7.88379 85.0052 7.69906 85.5966 7.32961 86.1012C6.96517 86.6053 6.45595 86.9823 5.80193 87.2317L8.36307 91.8597V91.9497H6.82038L4.45396 87.5388ZM1.89282 86.3631H4.10201C4.81593 86.3631 5.38256 86.1782 5.80193 85.8088C6.22627 85.4395 6.43845 84.9452 6.43845 84.326C6.43845 83.6522 6.23626 83.1355 5.83188 82.776C5.43248 82.4165 4.85336 82.2343 4.09449 82.2294H1.89282V86.3631ZM13.0511 92.0996C11.9526 92.0996 11.059 91.7401 10.37 91.0211C9.68105 90.2971 9.33658 89.331 9.33658 88.123V87.8683C9.33658 87.0646 9.48884 86.3483 9.79338 85.7192C10.1029 85.0849 10.5323 84.5906 11.0814 84.2364C11.6356 83.8769 12.2347 83.697 12.8787 83.697C13.9322 83.697 14.7511 84.044 15.335 84.7379C15.9192 85.4319 16.2111 86.4254 16.2111 87.7184V88.295H10.722C10.7419 89.0941 10.9741 89.7406 11.4184 90.2349C11.8678 90.7238 12.4369 90.9687 13.1259 90.9687C13.6153 90.9687 14.0294 90.8689 14.3688 90.6692C14.7086 90.4695 15.0054 90.2049 15.2602 89.8754L16.1063 90.5344C15.4272 91.5776 14.409 92.0996 13.0511 92.0996ZM12.8787 84.8355C12.3196 84.8355 11.8503 85.0401 11.4709 85.4493C11.0914 85.854 10.8568 86.4231 10.7669 87.1569H14.8259V87.0521C14.786 86.3483 14.5962 85.8039 14.2568 85.4193C13.9171 85.0302 13.4577 84.8355 12.8787 84.8355ZM22.8238 91.9497C22.7437 91.7898 22.6788 91.5055 22.6291 91.0959C21.9848 91.7648 21.2161 92.0996 20.3225 92.0996C19.5237 92.0996 18.8674 91.8749 18.353 91.4254C17.8439 90.971 17.5892 90.397 17.5892 89.703C17.5892 88.8595 17.9088 88.2054 18.5477 87.7411C19.1916 87.2715 20.0954 87.0369 21.2586 87.0369H22.6067V86.4007C22.6067 85.9163 22.4616 85.5317 22.1724 85.2474C21.8827 84.9577 21.4556 84.8131 20.8915 84.8131C20.3972 84.8131 19.9831 84.9376 19.6486 85.1874C19.3142 85.4368 19.1468 85.739 19.1468 86.0936H17.7539C17.7539 85.6893 17.8963 85.2998 18.1806 84.9251C18.4703 84.5458 18.8598 84.2463 19.3491 84.0265C19.8434 83.8071 20.3847 83.697 20.9739 83.697C21.9078 83.697 22.6389 83.9316 23.1681 84.4012C23.6973 84.8655 23.9718 85.507 23.9919 86.3255V90.055C23.9919 90.799 24.0868 91.3905 24.2766 91.8297V91.9497H22.8238ZM20.5248 90.8939C20.9591 90.8939 21.371 90.7816 21.7605 90.5568C22.1496 90.3321 22.4317 90.0401 22.6067 89.6806V88.0183H21.5206C19.8233 88.0183 18.9744 88.5148 18.9744 89.5083C18.9744 89.9426 19.1194 90.2823 19.4087 90.5268C19.6984 90.7713 20.0704 90.8939 20.5248 90.8939ZM29.4137 90.9687C29.908 90.9687 30.34 90.8188 30.7094 90.5192C31.0788 90.2197 31.2834 89.8454 31.3232 89.3959H32.6341C32.609 89.8602 32.4492 90.3021 32.1546 90.7216C31.86 91.141 31.4656 91.4755 30.9713 91.7249C30.482 91.9747 29.963 92.0996 29.4137 92.0996C28.3105 92.0996 27.4317 91.7325 26.7776 90.9987C26.1288 90.2596 25.8042 89.2513 25.8042 87.9731V87.7411C25.8042 86.9523 25.9489 86.2507 26.2385 85.6369C26.5282 85.0226 26.9424 84.5458 27.4818 84.2064C28.0258 83.8667 28.6674 83.697 29.4061 83.697C30.3149 83.697 31.0689 83.9692 31.6679 84.5136C32.2719 85.0576 32.5938 85.764 32.6341 86.6326H31.3232C31.2834 86.1084 31.0837 85.679 30.7242 85.3446C30.37 85.0052 29.9304 84.8355 29.4061 84.8355C28.7023 84.8355 28.1556 85.0898 27.7661 85.5993C27.382 86.1034 27.1895 86.835 27.1895 87.7935V88.0555C27.1895 88.989 27.382 89.708 27.7661 90.2121C28.1507 90.7166 28.7 90.9687 29.4137 90.9687ZM36.0712 81.885V83.8469H37.584V84.9179H36.0712V89.9426C36.0712 90.2672 36.1388 90.5116 36.2735 90.6764C36.4083 90.8362 36.638 90.9163 36.9626 90.9163C37.122 90.9163 37.3418 90.8863 37.6212 90.8263V91.9497C37.2568 92.0495 36.9026 92.0996 36.5579 92.0996C35.9391 92.0996 35.4722 91.9121 35.1574 91.5378C34.8431 91.1634 34.6859 90.6316 34.6859 89.9426V84.9179H33.2103V83.8469H34.6859V81.885H36.0712ZM51.6104 91.9497H50.1648L44.6758 83.5474V91.9497H43.2305V81.0461H44.6758L50.18 89.4859V81.0461H51.6104V91.9497ZM58.9493 91.9497C58.8692 91.7898 58.8043 91.5055 58.7545 91.0959C58.1103 91.7648 57.3416 92.0996 56.4479 92.0996C55.6492 92.0996 54.9925 91.8749 54.4785 91.4254C53.9694 90.971 53.7146 90.397 53.7146 89.703C53.7146 88.8595 54.0339 88.2054 54.6732 87.7411C55.317 87.2715 56.2209 87.0369 57.3841 87.0369H58.7321V86.4007C58.7321 85.9163 58.5871 85.5317 58.2975 85.2474C58.0082 84.9577 57.5811 84.8131 57.017 84.8131C56.5227 84.8131 56.1086 84.9376 55.7741 85.1874C55.4397 85.4368 55.2722 85.739 55.2722 86.0936H53.8794C53.8794 85.6893 54.0218 85.2998 54.3061 84.9251C54.5958 84.5458 54.9852 84.2463 55.4746 84.0265C55.9689 83.8071 56.5102 83.697 57.0994 83.697C58.0329 83.697 58.7644 83.9316 59.2936 84.4012C59.8228 84.8655 60.0973 85.507 60.1174 86.3255V90.055C60.1174 90.799 60.2123 91.3905 60.4021 91.8297V91.9497H58.9493ZM56.6503 90.8939C57.0846 90.8939 57.4965 90.7816 57.886 90.5568C58.2751 90.3321 58.5571 90.0401 58.7321 89.6806V88.0183H57.646C55.9487 88.0183 55.0999 88.5148 55.0999 89.5083C55.0999 89.9426 55.2449 90.2823 55.5342 90.5268C55.8238 90.7713 56.1959 90.8939 56.6503 90.8939ZM64.1688 81.885V83.8469H65.6815V84.9179H64.1688V89.9426C64.1688 90.2672 64.2363 90.5116 64.3711 90.6764C64.5059 90.8362 64.7355 90.9163 65.0601 90.9163C65.2196 90.9163 65.4394 90.8863 65.7191 90.8263V91.9497C65.3543 92.0495 65.0001 92.0996 64.6554 92.0996C64.0366 92.0996 63.5697 91.9121 63.255 91.5378C62.9407 91.1634 62.7835 90.6316 62.7835 89.9426V84.9179H61.3083V83.8469H62.7835V81.885H64.1688ZM68.8119 91.9497H67.4263V83.8469H68.8119V91.9497ZM67.3139 81.6975C67.3139 81.4731 67.3815 81.2833 67.5163 81.1284C67.656 80.9736 67.8606 80.8965 68.1301 80.8965C68.4 80.8965 68.6047 80.9736 68.7444 81.1284C68.8841 81.2833 68.9539 81.4731 68.9539 81.6975C68.9539 81.9222 68.8841 82.1094 68.7444 82.2593C68.6047 82.4089 68.4 82.4841 68.1301 82.4841C67.8606 82.4841 67.656 82.4089 67.5163 82.2593C67.3815 82.1094 67.3139 81.9222 67.3139 81.6975ZM73.7095 90.0701L75.7162 83.8469H77.1318L74.2262 91.9497H73.17L70.2348 83.8469H71.65L73.7095 90.0701ZM81.7222 92.0996C80.624 92.0996 79.7303 91.7401 79.0413 91.0211C78.3523 90.2971 78.008 89.331 78.008 88.123V87.8683C78.008 87.0646 78.1602 86.3483 78.4647 85.7192C78.774 85.0849 79.2034 84.5906 79.7527 84.2364C80.307 83.8769 80.906 83.697 81.5499 83.697C82.6033 83.697 83.4222 84.044 84.0064 84.7379C84.5903 85.4319 84.8826 86.4254 84.8826 87.7184V88.295H79.3932C79.4133 89.0941 79.6453 89.7406 80.0898 90.2349C80.5389 90.7238 81.1084 90.9687 81.797 90.9687C82.2863 90.9687 82.7009 90.8689 83.0403 90.6692C83.3797 90.4695 83.6769 90.2049 83.9316 89.8754L84.7778 90.5344C84.0987 91.5776 83.0801 92.0996 81.7222 92.0996ZM81.5499 84.8355C80.9911 84.8355 80.5215 85.0401 80.1422 85.4493C79.7626 85.854 79.528 86.4231 79.4384 87.1569H83.497V87.0521C83.4571 86.3483 83.2673 85.8039 82.9279 85.4193C82.5885 85.0302 82.1292 84.8355 81.5499 84.8355Z" fill="#CAD0DB"/>
</svg>
