<svg width="171" height="34" viewBox="0 0 171 34" fill="none" xmlns="http://www.w3.org/2000/svg">
<path d="M44.8209 22.1625C43.1375 22.1625 41.7907 21.6574 40.8228 20.6895C39.8548 19.7215 39.3918 18.3327 39.3918 16.6072C39.3918 14.8396 39.8548 13.4087 40.7386 12.3986C41.6224 11.3886 42.8429 10.8836 44.4 10.8836C45.8309 10.8836 46.9672 11.3044 47.8089 12.1882C48.6506 13.072 49.0715 14.2504 49.0715 15.8076L49.0715 17.0701L41.7907 17.0701C41.8328 18.1223 42.1274 18.9219 42.6324 19.5111C43.1375 20.1003 43.9371 20.3528 44.905 20.3528C45.5363 20.3528 46.1676 20.3107 46.7147 20.1844C47.2618 20.0582 47.851 19.8478 48.5244 19.5953L48.5244 21.4891C47.9773 21.7416 47.3881 21.952 46.7989 22.0783C46.2097 22.2045 45.5363 22.1625 44.8209 22.1625ZM44.3579 12.6512C43.6004 12.6512 43.0112 12.9037 42.5903 13.3666C42.1695 13.8295 41.8749 14.5029 41.7907 15.4288L46.7568 15.4288C46.7568 14.545 46.5464 13.8295 46.1255 13.3666C45.7047 12.9037 45.1155 12.6512 44.3579 12.6512ZM53.9955 21.9941L51.6808 21.9941L51.6808 6.63294L53.9955 6.63294L53.9955 21.9941ZM64.1381 21.9941L63.6751 20.479L63.591 20.479C63.0859 21.1524 62.5388 21.6154 61.9917 21.8258C61.4446 22.0362 60.7712 22.2045 59.9295 22.2045C58.8774 22.2045 58.0357 21.9099 57.4044 21.3208C56.7731 20.7316 56.5206 19.9319 56.5206 18.8798C56.5206 17.7435 56.9415 16.9018 57.7832 16.3547C58.6249 15.8076 59.8875 15.4709 61.613 15.4288L63.5068 15.3867L63.5068 14.7975C63.5068 14.0821 63.3385 13.577 63.0018 13.2403C62.6651 12.9037 62.1601 12.7353 61.4867 12.7353C60.9396 12.7353 60.3925 12.8195 59.8875 12.9878C59.3824 13.1562 58.8774 13.3666 58.4145 13.577L57.6569 11.9357C58.2461 11.6411 58.8774 11.3886 59.5929 11.2202C60.3083 11.0519 60.9396 10.9677 61.5709 10.9677C62.9597 10.9677 64.0118 11.2623 64.7273 11.8936C65.4427 12.5249 65.7794 13.4508 65.7794 14.7554L65.7794 21.9941L64.1381 21.9941ZM60.6871 20.3949C61.5288 20.3949 62.2022 20.1424 62.7072 19.6794C63.2122 19.2165 63.4647 18.5431 63.4647 17.7014L63.4647 16.7755L62.0759 16.8176C60.9817 16.8597 60.1821 17.028 59.677 17.3647C59.172 17.7014 58.9195 18.2064 58.9195 18.8798C58.9195 19.3848 59.0457 19.7636 59.3403 20.0161C59.6349 20.2686 60.0979 20.3949 60.6871 20.3949ZM76.3429 18.8798C76.3429 19.9319 75.9641 20.7736 75.1645 21.3208C74.3648 21.8679 73.2706 22.1625 71.8397 22.1625C70.3667 22.1625 69.2304 21.952 68.3466 21.4891L68.3466 19.469C69.6092 20.0582 70.8297 20.3528 71.9239 20.3528C73.3548 20.3528 74.0702 19.9319 74.0702 19.0481C74.0702 18.7535 73.9861 18.5431 73.8177 18.3748C73.6494 18.2064 73.3969 17.996 73.0181 17.7856C72.6393 17.5752 72.1343 17.3647 71.503 17.1122C70.2405 16.6072 69.3988 16.1442 68.9358 15.6392C68.4729 15.1342 68.2625 14.5029 68.2625 13.7454C68.2625 12.8195 68.6412 12.104 69.3988 11.5569C70.1563 11.0098 71.1664 10.7994 72.471 10.7994C73.7336 10.7994 74.954 11.0519 76.0904 11.599L75.3328 13.3245C74.1544 12.8195 73.1865 12.6091 72.3447 12.6091C71.1243 12.6091 70.493 12.9458 70.493 13.6612C70.493 13.9979 70.6613 14.2925 70.9559 14.545C71.2505 14.7975 71.966 15.0921 73.0602 15.513C73.944 15.8496 74.6174 16.1863 75.0382 16.4809C75.4591 16.7755 75.7537 17.1122 75.9641 17.491C76.2587 17.9118 76.3429 18.3327 76.3429 18.8798ZM82.9082 20.3107C83.4553 20.3107 84.0445 20.2265 84.5916 20.0582L84.5916 21.7837C84.3391 21.91 84.0024 21.9941 83.5816 22.0783C83.1607 22.1625 82.7398 22.2045 82.319 22.2045C80.1305 22.2045 79.0363 21.0262 79.0363 18.7535L79.0363 12.8616L77.5633 12.8616L77.5633 11.8515L79.1626 11.0098L79.9622 8.69513L81.3931 8.69513L81.3931 11.1361L84.5074 11.1361L84.5074 12.9037L81.3931 12.9037L81.3931 18.7535C81.3931 19.3007 81.5194 19.7215 81.814 19.974C82.1086 20.2265 82.4873 20.3107 82.9082 20.3107ZM86.6538 8.1901C86.6538 7.76924 86.78 7.47465 86.9905 7.22214C87.2009 6.96962 87.5376 6.88545 87.9584 6.88545C88.3793 6.88545 88.6739 7.01171 88.9264 7.22214C89.1789 7.43256 89.2631 7.76924 89.2631 8.1901C89.2631 8.56887 89.1368 8.90555 88.9264 9.11598C88.716 9.32641 88.3793 9.45266 87.9584 9.45266C87.5376 9.45266 87.2009 9.32641 86.9905 9.11598C86.78 8.90555 86.6538 8.56887 86.6538 8.1901ZM89.1368 21.9941L86.8221 21.9941L86.8221 11.094L89.1368 11.094L89.1368 21.9941ZM96.8385 22.1625C95.1971 22.1625 93.9346 21.6995 93.0929 20.7316C92.2512 19.7636 91.7882 18.3748 91.7882 16.5651C91.7882 14.7133 92.2512 13.3245 93.135 12.3145C94.0187 11.3044 95.3234 10.8415 97.0068 10.8415C98.1431 10.8415 99.1953 11.0519 100.121 11.4728L99.4057 13.3245C98.4377 12.9458 97.6381 12.7353 96.9647 12.7353C95.0709 12.7353 94.145 13.9979 94.145 16.4809C94.145 17.7014 94.3975 18.6273 94.8605 19.2586C95.3234 19.8899 96.0388 20.1844 96.9226 20.1844C97.9748 20.1844 98.9427 19.9319 99.8686 19.4269L99.8686 21.447C99.4478 21.6995 99.0269 21.8679 98.5219 21.952C98.0169 22.0362 97.5118 22.1625 96.8385 22.1625ZM109.759 18.8798C109.759 19.9319 109.38 20.7736 108.58 21.3208C107.781 21.8679 106.686 22.1625 105.256 22.1625C103.783 22.1625 102.646 21.952 101.762 21.4891L101.762 19.469C103.025 20.0582 104.246 20.3528 105.34 20.3528C106.771 20.3528 107.486 19.9319 107.486 19.0481C107.486 18.7535 107.402 18.5431 107.234 18.3748C107.065 18.2064 106.813 17.996 106.434 17.7856C106.055 17.5752 105.55 17.3647 104.919 17.1122C103.656 16.6072 102.815 16.1442 102.352 15.6392C101.889 15.1342 101.678 14.5029 101.678 13.7454C101.678 12.8195 102.057 12.104 102.815 11.5569C103.572 11.0098 104.582 10.7994 105.887 10.7994C107.149 10.7994 108.37 11.0519 109.506 11.599L108.749 13.3245C107.57 12.8195 106.602 12.6091 105.761 12.6091C104.54 12.6091 103.909 12.9458 103.909 13.6612C103.909 13.9979 104.077 14.2925 104.372 14.545C104.666 14.7975 105.382 15.0921 106.476 15.513C107.36 15.8497 108.033 16.1863 108.454 16.4809C108.875 16.7755 109.17 17.1122 109.38 17.491C109.675 17.9118 109.759 18.3327 109.759 18.8798ZM117.039 22.1625C115.356 22.1625 114.009 21.6574 113.041 20.6895C112.073 19.7215 111.61 18.3327 111.61 16.6072C111.61 14.8396 112.073 13.4087 112.957 12.3986C113.841 11.3886 115.061 10.8836 116.619 10.8836C118.05 10.8836 119.186 11.3044 120.028 12.1882C120.869 13.072 121.29 14.2504 121.29 15.8076L121.29 17.0701L114.009 17.0701C114.051 18.1223 114.346 18.9219 114.851 19.5111C115.356 20.1003 116.156 20.3528 117.124 20.3528C117.755 20.3528 118.386 20.3107 118.933 20.1845C119.48 20.0582 120.07 19.8478 120.743 19.5953L120.743 21.4891C120.196 21.7416 119.607 21.952 119.017 22.0783C118.428 22.2046 117.797 22.1625 117.039 22.1625ZM116.619 12.6512C115.861 12.6512 115.272 12.9037 114.851 13.3666C114.43 13.8296 114.136 14.5029 114.051 15.4288L119.017 15.4288C119.017 14.545 118.807 13.8296 118.386 13.3666C117.965 12.9037 117.334 12.6512 116.619 12.6512ZM130.717 21.9941L130.254 20.479L130.17 20.479C129.665 21.1524 129.118 21.6154 128.571 21.8258C128.024 22.0362 127.35 22.2046 126.509 22.2046C125.457 22.2046 124.615 21.91 123.984 21.3208C123.352 20.7316 123.1 19.9319 123.1 18.8798C123.1 17.7435 123.521 16.9018 124.362 16.3547C125.204 15.8076 126.467 15.4709 128.192 15.4288L130.086 15.3867L130.086 14.7975C130.086 14.0821 129.918 13.577 129.581 13.2404C129.244 12.9037 128.739 12.7353 128.066 12.7353C127.519 12.7353 126.972 12.8195 126.467 12.9878C125.962 13.1562 125.457 13.3666 124.994 13.577L124.236 11.9357C124.825 11.6411 125.457 11.3886 126.172 11.2203C126.887 11.0519 127.519 10.9677 128.15 10.9677C129.539 10.9677 130.591 11.2623 131.306 11.8936C132.022 12.5249 132.359 13.4508 132.359 14.7554L132.359 21.9941L130.717 21.9941ZM127.266 20.3949C128.108 20.3949 128.781 20.1424 129.286 19.6794C129.791 19.2165 130.044 18.5431 130.044 17.7014L130.044 16.7755L128.655 16.8176C127.561 16.8597 126.761 17.028 126.256 17.3647C125.751 17.7014 125.499 18.2064 125.499 18.8798C125.499 19.3848 125.625 19.7636 125.92 20.0161C126.214 20.2686 126.719 20.3949 127.266 20.3949ZM141.154 10.8836C141.617 10.8836 141.996 10.9257 142.291 10.9677L142.08 13.1141C141.744 13.0299 141.407 12.9878 141.07 12.9878C140.144 12.9878 139.387 13.2824 138.798 13.9137C138.208 14.545 137.914 15.3025 137.914 16.2705L137.914 21.9941L135.599 21.9941L135.599 11.094L137.409 11.094L137.703 13.0299L137.83 13.0299C138.208 12.3986 138.671 11.8515 139.261 11.4728C139.85 11.094 140.481 10.8836 141.154 10.8836ZM148.73 22.1625C147.088 22.1625 145.826 21.6995 144.984 20.7316C144.142 19.7636 143.68 18.3748 143.68 16.5651C143.68 14.7133 144.142 13.3245 145.026 12.3145C145.91 11.3044 147.215 10.8415 148.898 10.8415C150.034 10.8415 151.087 11.0519 152.012 11.4728L151.297 13.3245C150.329 12.9458 149.529 12.7353 148.856 12.7353C146.962 12.7353 146.036 13.9979 146.036 16.4809C146.036 17.7014 146.289 18.6273 146.752 19.2586C147.215 19.8899 147.93 20.1845 148.814 20.1845C149.866 20.1845 150.834 19.9319 151.76 19.4269L151.76 21.447C151.339 21.6995 150.918 21.8679 150.413 21.952C149.908 22.0362 149.403 22.1625 148.73 22.1625ZM163.923 21.9941L161.608 21.9941L161.608 15.2605C161.608 14.4188 161.44 13.7875 161.103 13.3666C160.766 12.9458 160.219 12.7353 159.504 12.7353C158.536 12.7353 157.82 13.0299 157.357 13.6191C156.894 14.2083 156.684 15.1763 156.684 16.523L156.684 21.9941L154.369 21.9941L154.369 6.63294L156.684 6.63294L156.684 10.5469C156.684 11.1782 156.642 11.8515 156.558 12.567L156.726 12.567C157.063 12.062 157.484 11.6411 158.031 11.3465C158.578 11.0519 159.251 10.9257 160.009 10.9257C162.66 10.9257 163.965 12.2724 163.965 14.9238L163.965 21.9941L163.923 21.9941Z" fill="#D6D6D6"/>
<path d="M23.1469 12.1039L14.3511 12.1039C14.3932 12.3143 14.4773 12.5247 14.5194 12.6931C14.814 13.7031 14.9824 14.7553 15.0665 15.8495C15.1086 16.2703 15.1086 16.7333 15.1086 17.1541C15.1086 17.575 15.1086 18.0379 15.0665 18.4588C14.9824 19.553 14.814 20.6051 14.5194 21.6152C14.4773 21.8256 14.3932 22.036 14.3511 22.2044L23.1469 22.2044C25.9246 22.2044 28.1551 19.9318 28.1551 17.1541C28.1551 14.3765 25.9246 12.1039 23.1469 12.1039Z" fill="#7B8499"/>
<path d="M15.0666 18.4588C15.1087 18.0379 15.1087 17.575 15.1087 17.1541C15.1087 16.7333 15.1087 16.2703 15.0666 15.8495C14.9824 14.7553 14.8141 13.7031 14.5195 12.6931C14.4774 12.4827 14.3932 12.2722 14.3511 12.1039L0.757536 12.1039C0.252511 13.7031 -2.8698e-07 15.3865 -4.41507e-07 17.1541C-5.96035e-07 18.9217 0.25251 20.6051 0.757535 22.2044L14.3511 22.2044C14.3932 21.994 14.4774 21.7835 14.5195 21.6152C14.8141 20.6051 14.9824 19.553 15.0666 18.4588Z" fill="#C8C9CB"/>
<path d="M24.662 23.8878L13.7198 23.8878C13.3831 24.6454 13.0043 25.3608 12.5835 26.0342C11.9522 27.0863 11.1946 28.0122 10.3529 28.896C10.0583 29.1906 9.76373 29.4431 9.46914 29.7377C8.87994 30.2848 8.20657 30.7477 7.5332 31.2107C10.1846 32.9783 13.3831 33.9883 16.792 33.9883C22.6419 33.9883 27.7763 31.0003 30.8065 26.4971C29.2493 24.8979 27.0608 23.8878 24.662 23.8878Z" fill="#CAD0DB"/>
<path d="M12.5834 26.0342C13.0043 25.3608 13.383 24.6454 13.7197 23.8878L1.38867 23.8878C2.69332 26.8759 4.83968 29.4431 7.57523 31.2107C8.2486 30.7477 8.87988 30.2848 9.51116 29.7377C9.80576 29.4852 10.1004 29.1906 10.395 28.896C11.1946 28.0543 11.9521 27.0863 12.5834 26.0342Z" fill="#7B8499"/>
<path d="M10.3532 5.41236C10.0586 5.11776 9.76401 4.86525 9.46942 4.57065C8.88022 4.02354 8.20685 3.5606 7.53348 3.09766C4.84001 4.86524 2.69366 7.43246 1.34692 10.4205L13.678 10.4205C13.3413 9.66299 12.9625 8.94753 12.5417 8.27417C11.9525 7.22203 11.1949 6.25406 10.3532 5.41236Z" fill="#CDCDCD"/>
<path d="M16.792 0.320069C13.3831 0.320069 10.1846 1.33012 7.5332 3.09771C8.20657 3.56065 8.83785 4.02359 9.46914 4.5707C9.76373 4.82321 10.0583 5.11781 10.3529 5.41241C11.1946 6.2962 11.9522 7.22208 12.5835 8.27422C13.0043 8.94758 13.3831 9.66304 13.7198 10.4206L24.662 10.4206C27.0608 10.4206 29.2493 9.41053 30.8064 7.81128C27.7763 3.30814 22.6419 0.32007 16.792 0.320069Z" fill="#7B8499"/>
</svg>
