<svg width="81" height="68" viewBox="0 0 81 68" fill="none" xmlns="http://www.w3.org/2000/svg">
<path d="M54.5087 21.9395L45.6563 24.9201L37.9548 28.4249L35.8001 29.0115C35.2514 29.5497 34.676 30.0948 34.0537 30.6467C33.3712 31.2538 32.7356 31.8059 32.2471 32.206C31.7051 32.6476 30.9022 33.4755 30.494 33.9997C29.8851 34.7863 29.4033 35.6211 29.1959 36.2628C28.8279 37.422 29.0086 38.5948 29.7179 39.6781C30.6278 41.0579 32.4412 42.4654 34.5555 43.4244C35.6329 43.9144 37.4462 44.5422 38.8111 44.894C41.0794 45.4874 45.4689 46.1291 47.8844 46.2257C48.3727 46.2464 49.0285 46.2464 49.0552 46.2257C49.1088 46.1911 49.4835 45.4529 49.9185 44.5354C51.404 41.4098 52.4746 38.4775 53.0567 35.9731C53.4046 34.4553 53.6789 32.4337 53.8595 30.0397C53.9064 29.3704 53.9264 27.1281 53.8863 26.3691C53.826 25.1272 53.7189 24.1199 53.5518 23.1333C53.525 22.9884 53.5182 22.8572 53.5317 22.8504C53.5584 22.8297 53.6386 22.8021 54.7293 22.4777L54.5086 21.9397V21.9395H54.5087V21.9395ZM52.488 23.1607C52.5683 23.1607 52.7823 25.2788 52.8358 26.6174C52.8493 26.9003 52.8425 27.0865 52.8292 27.0865C52.7757 27.0865 51.6984 26.4312 50.929 25.9344C50.2598 25.4997 48.9886 24.6304 48.7878 24.4648C48.7208 24.4165 48.7275 24.4096 49.2762 24.2164C50.2062 23.8921 52.4144 23.1607 52.488 23.1607ZM47.9781 24.6925C48.0384 24.6925 48.1922 24.782 48.5602 25.0167C49.9386 25.9067 51.8122 26.9831 52.6151 27.3419C52.8626 27.4523 52.8893 27.4108 52.3207 27.8111C51.1029 28.6666 49.5839 29.5082 47.7237 30.3569C47.3959 30.5087 47.1216 30.6259 47.1149 30.6259C47.1016 30.6259 47.1416 30.4536 47.1951 30.2465C47.6434 28.5284 47.8977 26.7898 47.9112 25.3961C47.9179 24.7061 47.9179 24.7061 47.9781 24.6856C47.9647 24.6925 47.9713 24.6925 47.9781 24.6925ZM47.0481 25.0581C47.0881 25.0994 47.0614 26.645 47.0078 27.0658C46.8874 28.0732 46.7001 29.0114 46.3924 30.0672C46.3187 30.3223 46.2517 30.5363 46.2385 30.55C46.2116 30.5845 45.2949 29.66 44.9938 29.3012C44.4719 28.6802 44.0638 28.0593 43.7627 27.4522C43.6088 27.1417 43.3679 26.5346 43.388 26.5139C43.495 26.438 47.0213 25.0305 47.0481 25.0581ZM42.672 26.8312C42.6786 26.8312 42.6853 26.8312 42.6921 26.8381C42.7054 26.8519 42.7523 26.9623 42.7925 27.0865C43.0065 27.6867 43.4882 28.5699 43.9032 29.1356C44.3582 29.7566 44.9538 30.4189 45.4488 30.8536C45.6094 30.9916 45.7566 31.1226 45.7766 31.1434C45.8168 31.1848 45.8302 31.1778 44.7395 31.6056C43.475 32.1024 42.0965 32.5991 40.5173 33.1235C40.1401 33.2489 39.7632 33.3754 39.3867 33.503C39.3264 33.5237 39.3465 33.4892 39.5205 33.2063C40.3033 31.9437 41.4943 29.4668 42.1635 27.7143C42.2772 27.4107 42.391 27.1072 42.4111 27.0382C42.4379 26.9416 42.4712 26.9071 42.5582 26.8588C42.605 26.8451 42.6519 26.8312 42.672 26.8312ZM41.3338 27.4039C41.3539 27.4177 41.0126 28.1559 40.678 28.8321C40.029 30.136 39.3197 31.4194 38.3696 32.9787C38.209 33.2477 38.0552 33.4962 38.035 33.5237C38.0016 33.5721 37.9882 33.5582 37.8811 33.3444C37.6536 32.8821 37.4662 32.2887 37.3659 31.7436C37.2655 31.2054 37.2856 30.2671 37.3994 29.6876C37.4863 29.2599 37.4797 29.2668 37.6804 29.1633C38.5368 28.7148 41.3071 27.3763 41.3338 27.4039ZM52.8761 27.8869V28.1767C52.8761 29.7152 52.7155 31.8265 52.4812 33.3651C52.4411 33.6341 52.4075 33.8548 52.4009 33.8618C52.4009 33.8618 52.2069 33.8067 51.9794 33.7376C50.9758 33.4133 49.8851 32.9372 48.9015 32.3785C48.2523 32.0128 47.3089 31.4125 47.3357 31.3848C47.3423 31.378 47.6234 31.2262 47.9512 31.0468C49.2629 30.3431 50.5207 29.5842 51.6114 28.8321C52.0196 28.5492 52.635 28.0939 52.769 27.9697L52.8761 27.8869ZM36.2819 29.929C36.3086 29.929 36.3019 29.9842 36.2618 30.2326C36.235 30.412 36.2016 30.7432 36.1883 30.9708C36.1346 31.9781 36.2953 32.7233 36.7771 33.7444C36.9109 34.0273 37.018 34.2619 37.0113 34.2687C36.9644 34.3102 32.5349 35.6488 31.143 36.042C30.7282 36.1592 30.367 36.2627 30.3401 36.2695C30.2933 36.2834 30.2866 36.2765 30.3066 36.1591C30.4605 35.145 31.21 33.8203 32.2538 32.7025C32.9497 31.9574 33.5051 31.5228 34.4552 30.9639C35.1377 30.5638 36.1882 29.9636 36.2685 29.9359C36.2686 29.929 36.2752 29.929 36.2819 29.929ZM46.7202 31.854C46.7268 31.8471 46.8874 31.9369 47.0814 32.0541C48.5134 32.9097 50.5073 33.7031 52.2068 34.1101L52.3608 34.1447L52.1466 34.2687C51.2568 34.7794 48.3327 36.035 45.3418 37.1873C44.9068 37.3528 44.4786 37.5185 44.3982 37.5529C44.3179 37.5874 44.2443 37.6081 44.2443 37.6012C44.2443 37.5942 44.3648 37.3528 44.5186 37.0562C45.355 35.4417 46.1982 33.4754 46.6264 32.1093C46.68 31.9782 46.7134 31.8609 46.7202 31.854ZM45.6563 32.2128C45.6631 32.2198 45.6095 32.3646 45.5425 32.5302C44.9604 33.9859 44.1975 35.5729 43.2207 37.3529C42.9731 37.8083 42.7657 38.174 42.7589 38.174C42.7523 38.174 42.5515 38.0497 42.3106 37.898C40.892 37.001 39.6341 35.8971 38.8112 34.8277L38.6907 34.6759L39.2995 34.5034C41.4809 33.8894 43.3343 33.2271 45.1744 32.413C45.4354 32.3025 45.6496 32.2128 45.6563 32.2128ZM52.2672 34.5931C52.2738 34.7518 51.9326 36.1731 51.6515 37.201C51.4174 38.0635 51.2165 38.7397 50.8486 39.9332C50.688 40.4577 50.5476 40.8922 50.5408 40.8922C50.5341 40.8922 50.494 40.8853 50.4539 40.8716C48.4666 40.4989 46.6867 39.9815 45.0139 39.2916C44.5455 39.0984 43.8764 38.7879 43.8363 38.7534C43.8229 38.7395 44.2244 38.5464 44.7329 38.3187C47.7774 36.9457 50.9356 35.3864 52.0196 34.7173C52.1467 34.6345 52.2471 34.5931 52.2672 34.5931ZM37.0046 35.1313C37.018 35.145 36.1682 36.4077 34.9771 38.1256C34.5623 38.7259 34.0805 39.4296 33.8999 39.6918C33.7192 39.954 33.4449 40.368 33.291 40.6163L33.0098 41.0648L32.7087 40.8027C32.3541 40.499 31.7386 39.8505 31.4642 39.4917C30.8887 38.7535 30.5007 37.9739 30.3468 37.2633C30.2732 36.9321 30.2732 36.7664 30.34 36.7458C30.4404 36.7182 32.2269 36.2835 33.8998 35.8833C34.8299 35.6626 35.9071 35.4004 36.2952 35.3038C36.6833 35.2071 36.9979 35.1313 37.0046 35.1313ZM37.861 35.4694L38.0751 35.7177C39.0387 36.8286 40.0223 37.6497 41.2133 38.3671C41.4275 38.4914 41.588 38.6017 41.5746 38.6087C41.5279 38.6432 37.4394 40.1402 35.5459 40.8164C34.482 41.2027 33.6054 41.5132 33.5988 41.5132C33.5921 41.5132 33.5319 41.4719 33.4649 41.4235L33.3445 41.3338L33.5385 41.0441C34.1674 40.1058 34.9571 39.0778 36.6767 36.939L37.861 35.4694ZM43.2007 39.4089C43.2072 39.402 43.5017 39.5124 43.863 39.6505C44.7329 39.9885 45.422 40.2023 46.3455 40.4439C47.483 40.7406 49.129 41.0304 50.0993 41.1131C50.2465 41.1269 50.3268 41.1407 50.3 41.1614C50.253 41.1891 49.2696 41.5271 48.5469 41.7617C47.3959 42.1342 43.8831 43.2036 41.0193 44.0523C40.4907 44.211 40.0357 44.3421 40.0089 44.3489C39.9421 44.3628 39.7212 44.3006 39.7212 44.273C39.7212 44.2593 39.8817 44.0454 40.0758 43.8108C41.0393 42.6241 41.9962 41.2994 42.7925 40.0437C43.0132 39.6986 43.2007 39.4158 43.2007 39.4089ZM42.0229 39.4435C42.0296 39.4503 41.5546 40.2368 40.7249 41.5891C40.3702 42.1618 39.9754 42.8103 39.8349 43.038C39.7011 43.2588 39.5003 43.6038 39.3866 43.7969L39.1926 44.1489L39.0922 44.1212C38.8513 44.0522 37.1584 43.4381 36.7101 43.2519C36.1547 43.0242 35.5793 42.7483 35.151 42.5137C34.6158 42.217 33.9467 41.7754 34.0002 41.7617C34.0135 41.7548 34.9303 41.4994 36.0342 41.189C38.965 40.3679 40.5909 39.8919 41.6549 39.5469C41.849 39.4848 42.0162 39.4365 42.0229 39.4435ZM50.3535 41.458H50.3601C50.3869 41.5271 49.303 44.6318 48.9081 45.6115C48.8212 45.8322 48.7878 45.8875 48.7409 45.8805C48.6271 45.8737 47.0548 45.646 46.0978 45.5011C44.4318 45.2389 41.6348 44.7352 40.9323 44.5697L40.7717 44.5352L41.7686 44.3005C43.9099 43.8038 44.9403 43.5347 45.9841 43.2035C47.3023 42.7896 48.6071 42.2721 49.9252 41.6374C50.1326 41.5408 50.3066 41.4649 50.3535 41.458Z" fill="url(#paint0_linear_5_3275)"/>
<path d="M45.3818 0.661486C45.2346 0.640901 42.8592 1.52402 41.3269 2.16559C39.2593 3.03502 37.6535 3.863 36.6632 4.58038C36.2952 4.84958 35.8334 5.32558 35.7599 5.51183C35.7332 5.58084 35.7197 5.66362 35.7197 5.74641L36.6164 6.62265L38.7508 7.32639L43.8295 8.26474L49.6374 9.29277L49.6976 8.77532C49.6776 8.77532 49.6641 8.76844 49.6442 8.76844L48.8812 8.6442L48.7275 8.36136C47.9379 6.92624 47.068 5.14617 46.5595 3.94566C46.1648 3.01421 45.79 1.93801 45.5826 1.16523C45.4688 0.69607 45.4555 0.668486 45.382 0.661613V0.661454H45.3818V0.661486ZM45.2746 1.01347H45.2815C45.2881 1.02027 45.3149 1.21359 45.3417 1.44114C45.4553 2.4072 45.6629 3.33848 45.9907 4.34584C46.2382 5.10481 46.2382 5.06345 45.9506 4.97369C45.2681 4.78057 42.2102 4.2355 39.9954 3.91813C39.6408 3.86981 39.3397 3.82154 39.3397 3.81467C39.3129 3.78709 40.9388 2.91078 41.6548 2.56589C42.5715 2.13113 45.0874 1.04792 45.2746 1.01347ZM38.8244 4.10439L39.0854 4.19398C40.5039 4.69082 44.0702 5.39459 46.0375 5.56016C46.2582 5.58087 46.4457 5.60161 46.4523 5.60161C46.4589 5.60848 46.2717 5.71198 46.0307 5.82922C45.0807 6.31909 44.0368 6.91937 43.3142 7.38165C43.1001 7.51957 42.906 7.63004 42.8793 7.63004C42.8525 7.63004 42.712 7.60242 42.5648 7.58171L42.2972 7.54025L41.6281 6.86407C40.4505 5.68433 39.5271 4.77363 39.1724 4.42859L38.8244 4.10439ZM38.5568 4.31822L39.5002 5.53257C40.0154 6.20182 40.5373 6.85723 40.6512 7.00206C40.7648 7.14704 40.8586 7.26438 40.8519 7.27125C40.8251 7.29193 39.487 7.0228 38.7776 6.85729C38.0483 6.68475 37.7472 6.60197 37.2989 6.45714L36.9308 6.3329V6.23625C36.9375 5.77396 37.5063 5.08406 38.4698 4.38039L38.5568 4.31822ZM46.5728 5.97411C46.5996 5.97411 46.633 6.03619 46.7133 6.22247C46.9408 6.73989 47.6502 8.13365 47.824 8.40269C47.8777 8.49247 47.9712 8.49935 47.0278 8.34065C44.7596 7.96108 44.0302 7.83703 44.0302 7.82322C44.0302 7.81635 44.0971 7.76802 44.1841 7.7197C44.8867 7.31961 45.5959 6.809 46.2249 6.26392C46.3788 6.13281 46.5193 6.00863 46.546 5.98789C46.5527 5.97411 46.5661 5.96724 46.5728 5.97411Z" fill="url(#paint1_linear_5_3275)"/>
<path d="M35.8068 5.41528C35.8068 5.41528 35.6597 5.65686 35.8002 6.01565C35.8872 6.23636 36.1414 6.50539 36.4291 6.78143C36.4291 6.78143 39.4067 9.77575 39.768 10.2036C41.414 12.163 42.13 14.0948 42.1969 16.7581C42.2371 18.4691 41.9225 19.9732 41.1397 21.7188C39.7479 24.8511 36.8104 28.3078 32.2805 32.1439L32.943 31.9162C33.3713 31.585 33.9534 31.2332 35.3184 30.4604C38.4699 28.6803 42.0162 27.0451 46.3655 25.3617C52.6283 22.933 62.9262 20.0904 68.7876 19.1659L69.3965 19.0693L69.3028 18.9175C68.7676 18.0619 68.3995 17.5307 67.9578 16.965C66.6732 15.3229 65.1143 13.9914 63.2072 12.8874C60.5842 11.3765 57.1917 10.1967 52.8961 9.32047C52.0864 9.1548 50.3066 8.83747 48.8613 8.6098C45.7967 8.12005 43.8161 7.78191 41.6348 7.39554C40.852 7.25749 39.681 7.05056 38.9048 6.87812C38.5033 6.78833 37.7339 6.60208 37.1317 6.38821C36.6499 6.19493 35.954 6.00175 35.8068 5.41528ZM37.5332 7.14022C37.5398 7.13341 37.6469 7.17467 37.7875 7.223C38.0417 7.3126 38.3696 7.41612 38.7578 7.52659C39.0514 7.60988 39.3458 7.69037 39.641 7.76804C40.0424 7.87147 40.3769 7.9681 40.3836 7.9681C40.4305 8.01643 41.1064 10.2448 41.3339 11.1003C41.4207 11.4247 41.4878 11.7006 41.4811 11.7006C41.4742 11.7076 41.4007 11.5902 41.3137 11.4316C40.5308 10.0103 39.293 8.56831 37.861 7.40916C37.6738 7.2713 37.5332 7.14709 37.5332 7.14022ZM40.8253 8.07853C40.8587 8.07853 41.006 8.09924 41.1865 8.14061C42.324 8.40277 44.3649 8.80295 45.6696 9.03066C45.8905 9.06511 46.0645 9.1066 46.0645 9.12031C46.0645 9.13419 45.9841 9.18239 45.8837 9.23765C45.663 9.35489 44.773 9.8999 44.4787 10.1069C43.7359 10.6175 43.0668 11.1694 42.585 11.6662C42.391 11.8663 42.2236 12.0319 42.2236 12.0319C42.2236 12.0319 42.1836 11.9146 42.15 11.7696C41.9093 10.8106 41.4074 9.38929 40.9524 8.38893C40.8787 8.23029 40.8185 8.08537 40.8185 8.07163C40.8185 8.0854 40.8185 8.07853 40.8253 8.07853ZM46.6198 9.21694C46.6599 9.23068 46.7269 9.46529 46.8606 9.98272C47.1083 10.9832 47.222 12.1009 47.1819 13.1427C47.1684 13.4325 47.1551 13.7015 47.1416 13.7361L47.1216 13.805L46.7737 13.6878C46.0577 13.4532 44.8935 13.1013 43.8966 12.8115C43.3277 12.6528 42.8661 12.5079 42.8661 12.4942C42.8661 12.4527 43.6959 11.5972 44.0505 11.273C44.7261 10.6588 46.5595 9.19619 46.6198 9.21694ZM47.0815 9.28585C47.1016 9.26527 49.8517 9.75501 51.1029 10.0034C52.0331 10.1897 53.3846 10.4795 53.4649 10.514C53.505 10.5278 53.3645 10.6106 52.9161 10.8175C51.1497 11.6386 49.8382 12.3768 48.5335 13.2738C48.1923 13.5084 47.9045 13.7015 47.8979 13.7015C47.8912 13.7015 47.8845 13.5015 47.8845 13.26C47.8845 11.9491 47.6302 10.6244 47.1617 9.50672C47.1149 9.39632 47.0748 9.29285 47.0815 9.28585ZM54.1942 10.7348C54.2143 10.7555 54.1273 11.3144 54.047 11.6455C53.8061 12.6736 53.1571 14.1984 52.3609 15.6334C52.2203 15.8887 52.0932 16.0957 52.0797 16.1026C52.0665 16.1095 51.8858 16.0059 51.6783 15.8817C50.9022 15.4126 50.019 14.971 49.0554 14.557C48.7878 14.4398 48.5536 14.3431 48.5469 14.3294C48.4999 14.288 50.6546 12.8184 51.7921 12.1147C52.6954 11.549 54.1674 10.7072 54.1942 10.7348ZM54.7027 10.8176C54.7629 10.8176 55.9808 11.1626 56.6163 11.3558C58.1888 11.8388 59.9954 12.5218 61.173 13.0737L61.6614 13.3015L61.3203 13.3842C58.4432 14.0672 55.9808 14.8538 53.6053 15.8473C53.4113 15.9301 53.2373 15.9991 53.2241 15.9991C53.2106 15.9991 53.2775 15.8404 53.3645 15.6472C54.0805 14.0811 54.5422 12.4459 54.6558 11.0521C54.6626 10.921 54.6826 10.8176 54.7027 10.8176ZM42.5784 13.6878C42.5984 13.667 43.5285 13.8948 44.0303 14.0395C44.7931 14.2604 46.4123 14.8192 46.4123 14.8606C46.4123 14.8675 46.2317 15.0262 46.0177 15.2195C45.1411 15.9715 44.298 16.7648 43.2875 17.7722C42.9864 18.069 42.7322 18.3104 42.7189 18.3104C42.7054 18.3104 42.6989 18.2689 42.7054 18.2138C42.8593 17.0546 42.826 15.5644 42.6118 14.0534C42.5917 13.8602 42.5717 13.6947 42.5784 13.6878ZM62.1233 13.7085C62.1365 13.7222 61.695 14.4398 61.414 14.8468C61.0126 15.4401 60.4236 16.2268 59.092 17.9517C58.3896 18.8623 57.5999 19.8904 57.3391 20.2353C57.0713 20.5803 56.8506 20.87 56.8438 20.87C56.8372 20.87 56.7503 20.7459 56.6566 20.5941C55.9071 19.435 55.0104 18.4208 53.9465 17.5101C53.7458 17.3375 53.5251 17.1512 53.4515 17.096C53.3779 17.0409 53.3176 16.9857 53.3176 16.9788C53.3176 16.9581 54.455 16.4544 55.3183 16.0957C56.8305 15.4609 58.8912 14.702 60.437 14.2121C61.2467 13.9499 62.1098 13.6947 62.1233 13.7085ZM62.6385 13.8464C62.6652 13.8396 62.8258 13.9224 63.0199 14.0395C64.6459 14.9986 66.2383 16.2336 67.4963 17.5031C67.8509 17.862 68.7274 18.8003 68.714 18.8072C68.714 18.8072 68.4062 18.8347 68.045 18.8623C65.228 19.0832 61.6215 19.6971 58.1554 20.5595C57.9212 20.6147 57.7139 20.663 57.7004 20.663C57.6872 20.663 57.948 20.3939 58.2759 20.0697C60.31 18.0482 61.2402 16.7718 62.3374 14.4949C62.4913 14.1569 62.6251 13.8672 62.6385 13.8464C62.6318 13.8464 62.6318 13.8464 62.6385 13.8464ZM47.7372 15.4196C47.8309 15.4402 48.7008 15.8612 49.3565 16.1992C49.9587 16.5095 50.8621 17.0064 50.9089 17.0477C50.9155 17.0546 50.5943 17.2271 50.1997 17.4272C48.9416 18.0758 47.8644 18.6898 46.7402 19.3935C46.4191 19.5936 46.1514 19.7593 46.1448 19.7593C46.118 19.7593 46.1246 19.7316 46.3053 19.3935C46.9076 18.2621 47.3893 16.9098 47.6637 15.592C47.6904 15.4885 47.7172 15.4196 47.7372 15.4196ZM46.8673 15.5851C46.8874 15.6058 46.6599 16.4544 46.5195 16.9167C46.245 17.7929 45.7834 18.8899 45.3351 19.7179C45.228 19.9109 45.0674 20.1939 44.9804 20.3525L44.8132 20.6285L44.4385 20.256C44.0036 19.8213 43.6489 19.5523 43.194 19.3107C43.0132 19.2142 42.8727 19.1313 42.8727 19.1176C42.8727 19.0624 44.0169 17.993 44.8935 17.2203C45.5224 16.6614 46.8473 15.5644 46.8673 15.5851ZM52.1869 17.8413L52.5148 18.062C53.2641 18.5657 54.1473 19.2349 54.8232 19.8213C55.2045 20.1455 55.9405 20.8287 56.0879 20.9942L56.168 21.084L55.6262 21.2427C52.5616 22.1188 50.1929 22.8985 47.4294 23.9472C47.1216 24.0645 46.8606 24.1611 46.8405 24.1611C46.8005 24.1611 46.7669 24.1955 47.4562 23.5401C49.2227 21.8637 50.7884 20.0145 51.9527 18.2137L52.1869 17.8413ZM50.7884 18.2C50.8018 18.2138 49.8851 19.5453 49.3364 20.2974C48.6807 21.1943 47.5164 22.6984 46.7134 23.678C46.379 24.0852 46.0913 24.4232 46.0778 24.4301C46.0577 24.437 46.0511 24.3336 46.0511 24.1749C46.0511 23.3399 45.8437 22.4499 45.4823 21.691C45.3284 21.3737 45.3016 21.2978 45.3352 21.2633C45.4623 21.146 47.4094 20.0007 48.6405 19.3177C49.4702 18.8623 50.7682 18.1862 50.7884 18.2ZM42.3307 20.3388C42.3508 20.3388 42.5047 20.4216 42.6787 20.5182C43.1069 20.7597 43.4883 21.0287 43.8296 21.3186C43.8429 21.3323 43.669 21.4773 43.4415 21.6497C42.8058 22.1188 41.8423 22.8709 41.2804 23.3332C40.6914 23.8162 40.6714 23.8299 40.7383 23.7265C41.1799 23.0296 41.4007 22.6363 41.6349 22.1327C41.8423 21.6843 42.0497 21.153 42.1969 20.6907C42.2504 20.4906 42.3174 20.3388 42.3307 20.3388ZM44.5857 22.1602C44.6191 22.1534 44.6593 22.2154 44.8399 22.4915C45.2213 23.0778 45.5157 23.8645 45.5895 24.4992L45.6027 24.6372L44.6861 25.0029C43.0467 25.6583 41.5346 26.3069 40.5107 26.7898C40.2231 26.9278 39.7212 27.1762 39.3934 27.3419C39.0655 27.5142 38.7978 27.6453 38.7978 27.6385C38.7978 27.6316 39.0052 27.4729 39.2595 27.2796C41.2603 25.7825 42.9932 24.1404 44.2913 22.4984C44.4318 22.3258 44.559 22.1671 44.5723 22.1603L44.5857 22.1602ZM43.5486 22.4225C43.5754 22.4501 42.8126 23.34 42.2907 23.8851C40.9993 25.2444 39.7212 26.3069 38.1354 27.3419C37.9347 27.4729 37.7541 27.5901 37.7339 27.604C37.6871 27.6316 37.7473 27.5626 38.4432 26.7829C38.8848 26.293 39.2194 25.8791 39.6008 25.3686C39.855 25.0306 39.9019 24.9823 40.27 24.7131C41.2536 23.9817 43.5218 22.3948 43.5486 22.4225Z" fill="#CAD0DB"/>
<path d="M14.5269 51.4147C14.4034 51.4147 14.2799 51.4266 14.1575 51.4266C11.6632 51.5614 9.98094 52.6747 8.99734 54.8489C8.15609 56.8152 8.24794 59.3854 9.00678 61.3638C9.8892 63.2969 11.3151 64.3171 13.6951 64.7024C14.1987 64.7861 14.5363 65.0665 15.5116 66.2214L16.7117 67.6474H18.8882L17.441 66.1677C16.641 65.3563 15.9939 64.6499 15.9939 64.5878C15.9939 64.5258 16.2999 64.3898 16.6704 64.2753C17.8916 63.9004 18.9058 62.9436 19.6152 61.477C20.1893 60.2994 20.2717 59.9354 20.354 58.4702C20.5694 54.1089 18.3022 51.3823 14.5268 51.4134L14.5269 51.4147ZM16.4351 62.8196C15.3763 63.3398 13.8388 63.4436 12.8351 63.0702C11.7974 62.6836 10.7927 61.5906 10.3409 60.3532C9.83853 59.0001 9.91025 56.5039 10.4844 55.3798C11.408 53.5899 12.6292 52.7666 14.4139 52.7666C17.061 52.7666 18.5669 54.411 18.7634 57.5014C18.9188 60.0812 18.067 62.0166 16.4363 62.8185L16.4351 62.8196ZM54.0337 55.14C53.1208 55.14 52.4219 55.5147 51.9512 56.2532L51.5818 56.8379V55.3177H50.0018V64.4341H51.5808V61.5202C51.5808 58.8557 51.6136 58.5442 51.9807 57.8151C52.4866 56.8152 53.3571 56.3166 54.1985 56.5552L54.7631 56.7222V55.1424H54.0337V55.14ZM44.7512 55.0564C44.4416 55.0564 44.1134 55.0982 43.7865 55.171C41.6722 55.7317 40.4804 57.7841 40.5533 59.8962C40.5533 61.6646 40.8921 62.5487 41.7335 63.4759C43.4571 64.9101 45.0159 65.0246 47.1194 64.2551C47.4783 64.1 47.8689 63.921 47.8689 63.921V62.4868L47.1194 62.8806C45.417 63.6322 44.1346 63.6322 43.1075 62.7468C42.4523 62.0703 42.164 61.2589 42.0311 60.333H48.4018V59.1038C48.4018 56.5981 46.9147 55.0158 44.7499 55.0564H44.7512ZM42.1746 59.0538C42.1746 59.0538 42.4099 57.4907 43.2829 56.8773C43.703 56.5765 44.1852 56.4311 44.657 56.4311C45.13 56.4311 45.6017 56.5861 45.9912 56.8881C46.7913 57.5121 46.9253 59.0419 46.9253 59.0419H42.1746V59.0538H42.1746ZM4.08306 57.4096C2.37014 56.357 1.61011 55.5981 1.70304 54.7032C1.96888 52.2272 4.9855 52.5697 6.65606 53.5064L6.66794 51.8407C6.66794 51.8407 5.74434 51.435 4.42073 51.4135C2.3901 51.3825 1.07713 52.0578 0.461899 53.4324C-0.441736 55.4609 0.358385 56.9906 3.25028 58.697C4.8738 59.6551 5.5914 60.4869 5.5914 61.3937C5.5914 63.2671 3.36432 63.921 1.06666 62.7456C0.593788 62.507 0.193728 62.3077 0.172569 62.3077C0.0901589 62.8387 0.132639 64.1095 0.132639 64.1095C0.132639 64.1095 0.838577 64.4102 1.89732 64.6177C4.52316 65.1487 6.91273 63.8994 7.13858 61.8709C7.33508 59.9666 6.65611 58.9677 4.08317 57.4082L4.08306 57.4096ZM68.0175 55.035C67.7093 55.035 67.3822 55.0779 67.041 55.1507C64.9293 55.7115 63.7397 57.7639 63.8209 59.876C63.8209 61.642 64.1586 62.5178 64.9997 63.4437C66.7234 64.8792 68.2822 64.9949 70.3964 64.2241C70.7541 64.0691 71.1435 63.8926 71.1435 63.8926V62.4559L70.3953 62.8519C68.6894 63.6013 67.4069 63.6013 66.3835 62.716C65.7245 62.0406 65.4387 61.2387 65.3057 60.302H71.6659V59.073C71.6659 56.5792 70.1787 54.9957 68.014 55.0375L68.0175 55.035ZM65.441 59.0323C65.441 59.0323 65.6787 57.4715 66.5504 56.8462C66.9693 56.5444 67.4516 56.3988 67.9234 56.3988C68.394 56.3988 68.8681 56.5539 69.2577 56.8569C70.0577 57.481 70.1918 59.0215 70.1918 59.0215H65.4423L65.441 59.0323ZM36.4803 57.4298C34.7674 56.3798 34.0096 55.6184 34.1014 54.7234C34.3673 52.2462 37.3839 52.5899 39.0545 53.5267L39.0663 51.861C39.0663 51.861 38.1427 51.4552 36.8191 51.4361C34.7885 51.4051 33.4755 52.0805 32.8592 53.455C31.9568 55.4835 32.7674 57.0133 35.6498 58.7196C37.271 59.6767 37.9887 60.4976 37.9887 61.4044C37.9887 63.2778 35.7627 63.9425 33.465 62.7563C32.9944 62.5177 32.5945 62.3207 32.5709 62.3207C32.4885 62.8517 32.531 64.1226 32.531 64.1226C32.531 64.1226 33.2286 64.4125 34.2839 64.6308C36.9122 65.163 39.3028 63.9149 39.5276 61.8864C39.7229 59.9915 39.0452 58.9928 36.4804 57.432V57.4298H36.4803ZM77.3013 55.1185C76.3883 55.1185 75.6814 55.4943 75.2189 56.233L74.8494 56.8152V55.2975H73.2694V64.4114H74.8483V61.4976C74.8483 58.8343 74.8799 58.5216 75.2484 57.7937C75.7542 56.795 76.6247 56.2951 77.466 56.5349L78.0306 56.7019V55.1186L77.3013 55.1185ZM23.9154 57.3773V51.5709H22.3224V64.4317H29.0215V62.9128H23.9154V57.3773H23.9154ZM60.7539 59.1874L59.4409 62.6525L58.1784 59.1683L56.896 55.307H55.2655C56.322 58.345 57.4713 61.4354 58.6302 64.4317C59.1326 64.4436 59.6361 64.4317 60.1384 64.4317L61.9115 59.9165L63.7174 55.3082H62.1586C62.1586 55.3082 61.4703 57.1386 60.7527 59.1886L60.7539 59.1874ZM27.586 48.0664C27.8425 48.0664 28.0566 47.983 28.2331 47.804C28.4071 47.6273 28.4989 47.4197 28.4989 47.1596C28.4989 46.8994 28.4071 46.6822 28.2331 46.5152C28.0566 46.3482 27.853 46.2645 27.5977 46.2645C27.339 46.2645 27.1248 46.3482 26.9506 46.5247C26.7742 46.7014 26.6942 46.9186 26.6942 47.1691C26.6942 47.4317 26.7766 47.6487 26.9506 47.8135C27.1154 47.9805 27.3295 48.0641 27.586 48.0641V48.0664ZM27.0213 46.5868C27.1742 46.4318 27.3601 46.3601 27.5978 46.3601C27.8213 46.3601 28.0073 46.4318 28.1626 46.5868C28.3155 46.7419 28.3979 46.9304 28.3979 47.1596C28.3979 47.3886 28.3155 47.5868 28.1626 47.7418C28.0073 47.8968 27.8213 47.9709 27.5978 47.9709C27.3707 47.9709 27.186 47.8993 27.0331 47.7418C26.8802 47.5868 26.7978 47.3886 26.7978 47.1596C26.7978 46.9304 26.8684 46.742 27.0213 46.5868ZM27.4013 47.2431H27.5048C27.5778 47.2431 27.6495 47.3147 27.7107 47.4508L27.8343 47.7323H28.0284L27.8755 47.4196C27.8131 47.2944 27.752 47.2216 27.6802 47.2012C27.7708 47.1797 27.8425 47.1487 27.8943 47.0866C27.946 47.033 27.9648 46.9602 27.9648 46.8778C27.9648 46.7824 27.9354 46.7108 27.8732 46.6583C27.8025 46.5986 27.6896 46.5665 27.5436 46.5665H27.2167V47.7323H27.3814V47.243L27.4013 47.2431ZM27.4013 46.7014H27.5449C27.6484 46.7014 27.7214 46.7228 27.7613 46.7538C27.8002 46.7848 27.8108 46.8255 27.8108 46.8994C27.8108 47.0342 27.7283 47.0975 27.5755 47.0975H27.399V46.7014H27.4013ZM1.08765 47.1393C1.08765 46.7336 1.07593 46.4318 1.06649 46.2539H1.07593C1.11706 46.4638 1.16767 46.6202 1.20885 46.724L2.73824 50.1892H2.99475L4.52414 46.693C4.56542 46.5977 4.6066 46.4544 4.65716 46.2551H4.66888C4.63834 46.6012 4.62776 46.9018 4.62776 47.1416V50.2H5.15119V45.6537H4.49473L3.08888 48.8158C3.03707 48.941 2.96529 49.1285 2.87355 49.3766H2.85228C2.82174 49.2537 2.74996 49.0663 2.64764 48.8372L1.27341 45.6429H0.57583V50.1891H1.07935V47.1415L1.08765 47.1393ZM6.29837 47.1477H6.75024V49.9792H6.29837V47.1477ZM6.52428 46.1095C6.61846 46.1095 6.69843 46.0772 6.75957 46.0141C6.82196 45.952 6.86319 45.8709 6.86319 45.7755C6.86319 45.6824 6.83254 45.5988 6.76082 45.5368C6.69729 45.4736 6.61607 45.4413 6.52314 45.4413C6.43145 45.4413 6.34909 45.4736 6.28779 45.5368C6.22561 45.5988 6.18433 45.6824 6.18433 45.7755C6.18433 45.8793 6.21612 45.952 6.28779 46.0141C6.35853 46.0772 6.4314 46.1095 6.52314 46.1095H6.52428ZM9.9715 50.0413V49.5425C9.72438 49.7298 9.45849 49.823 9.18321 49.823C8.85389 49.823 8.5867 49.7085 8.39139 49.489C8.19733 49.2718 8.09381 48.9698 8.09381 48.5939C8.09381 48.2002 8.19732 47.8874 8.41141 47.6488C8.6173 47.4197 8.88444 47.3052 9.21153 47.3052C9.47856 47.3052 9.73491 47.3888 9.97156 47.5559V47.0249C9.75628 46.9104 9.51041 46.8578 9.23269 46.8578C8.71967 46.8578 8.31977 47.0249 8.02095 47.3472C7.7244 47.6693 7.57146 48.1073 7.57146 48.6359C7.57146 49.106 7.70438 49.501 7.98097 49.8029C8.26916 50.1131 8.63753 50.2706 9.08924 50.2706C9.43852 50.2608 9.72438 50.1868 9.9715 50.0413ZM11.2644 48.5318C11.2644 48.1583 11.3468 47.8565 11.4997 47.6487C11.6433 47.4615 11.8173 47.3672 12.0232 47.3672C12.1974 47.3672 12.3209 47.3994 12.4114 47.4722V46.9304C12.3409 46.8995 12.2385 46.8887 12.1056 46.8887C11.9209 46.8887 11.7563 46.9518 11.6115 47.0677C11.4586 47.1905 11.3362 47.378 11.2645 47.6166H11.2527V46.9519H10.741V50.1975H11.2539V48.5318H11.2644ZM14.2092 50.262C14.6916 50.262 15.0798 50.1044 15.368 49.7919C15.655 49.4815 15.7986 49.064 15.7986 48.5436C15.7986 48.0128 15.6669 47.607 15.3986 47.305C15.1328 47.0033 14.7633 46.8575 14.2809 46.8575C13.7984 46.8575 13.4102 47.0032 13.122 47.2847C12.8138 47.5951 12.6514 48.033 12.6514 48.595C12.6514 49.0843 12.7832 49.49 13.0609 49.7919C13.3479 50.1044 13.728 50.2608 14.2092 50.2608V50.262ZM13.4798 47.6178C13.6751 47.4089 13.9316 47.305 14.2492 47.305C14.5787 47.305 14.8257 47.4089 15.0093 47.6178C15.1939 47.8361 15.2858 48.1476 15.2858 48.564C15.2858 48.9601 15.2034 49.2716 15.0292 49.4804C14.8552 49.6988 14.5987 49.8144 14.2598 49.8144C13.9304 49.8144 13.6751 49.6987 13.4798 49.4804C13.2857 49.2608 13.1927 48.9601 13.1927 48.564C13.1727 48.1703 13.2751 47.8481 13.4798 47.6178ZM18.0447 49.9792C18.2399 49.8027 18.3435 49.5855 18.3435 49.3133C18.3435 49.0746 18.2611 48.8766 18.1082 48.7203C17.9834 48.5951 17.7906 48.4816 17.5117 48.3671C17.2646 48.2622 17.1117 48.169 17.0293 48.0962C16.947 48.0127 16.8963 47.909 16.8963 47.7621C16.8963 47.6273 16.9481 47.5235 17.0494 47.44C17.1529 47.3566 17.2847 47.316 17.4612 47.316C17.7376 47.316 17.9741 47.3899 18.1905 47.5463V47.026C17.9835 46.9211 17.7587 46.871 17.5022 46.871C17.1729 46.871 16.8952 46.9629 16.6904 47.1405C16.4751 47.3173 16.3728 47.5463 16.3728 47.8159C16.3728 48.0545 16.4433 48.2527 16.5774 48.3982C16.6903 48.5223 16.8834 48.6489 17.1515 48.7621C17.4081 48.8767 17.5822 48.9804 17.6751 49.0639C17.7668 49.1475 17.808 49.2513 17.808 49.3743C17.808 49.6773 17.6034 49.8337 17.2033 49.8337C16.895 49.8337 16.6187 49.731 16.3714 49.5235V50.0841C16.595 50.2203 16.8633 50.2823 17.1597 50.2823C17.5398 50.262 17.8374 50.1678 18.0421 49.9804L18.0447 49.9792ZM20.4871 46.8576C20.0046 46.8576 19.6164 47.0033 19.3282 47.2849C19.0223 47.5952 18.8576 48.0331 18.8576 48.5952C18.8576 49.0844 18.9906 49.4901 19.267 49.792C19.5553 50.1045 19.9341 50.2609 20.4165 50.2609C20.9106 50.2609 21.2871 50.1034 21.5753 49.7907C21.8636 49.4805 22.0071 49.0629 22.0071 48.5426C22.0071 48.0116 21.8729 47.6059 21.607 47.304C21.3295 47.0021 20.9599 46.8565 20.4893 46.8565L20.4871 46.8576ZM21.4823 48.5641C21.4823 48.9601 21.4 49.2716 21.2259 49.4804C21.0517 49.6988 20.7952 49.8145 20.4564 49.8145C20.1268 49.8145 19.8716 49.6987 19.6763 49.4804C19.4822 49.2609 19.3893 48.9601 19.3893 48.5641C19.3893 48.1464 19.4917 47.8243 19.6976 47.607C19.8916 47.3994 20.1482 47.2944 20.467 47.2944C20.7846 47.2944 21.04 47.3993 21.2246 47.607C21.3893 47.8361 21.4811 48.1476 21.4811 48.5641H21.4823ZM22.8683 50.188H23.3801V47.378H24.1295V46.9412H23.38V46.4401C23.38 45.9843 23.5541 45.7552 23.9142 45.7552C24.0354 45.7552 24.1589 45.7862 24.2507 45.8388V45.3699C24.1589 45.3281 24.0354 45.3186 23.8811 45.3186C23.6047 45.3186 23.3788 45.4022 23.1941 45.5787C22.9787 45.7863 22.8647 46.056 22.8647 46.4212V46.9534H22.3234V47.3901H22.8647V50.1896L22.8683 50.188ZM24.9706 49.3026C24.9706 49.9375 25.2472 50.2608 25.8119 50.2608C26.0166 50.2608 26.1707 50.2275 26.2942 50.1535V49.7072C26.2002 49.7788 26.0883 49.8123 25.9649 49.8123C25.7908 49.8123 25.6684 49.7704 25.5966 49.6761C25.5236 49.5832 25.4825 49.4255 25.4825 49.2084V47.3768H26.2942V46.94H25.4825V45.9831C25.306 46.0451 25.1331 46.0977 24.9695 46.1501V46.94H24.4165V47.3767H24.9695V49.3015L24.9706 49.3026ZM80.0308 55.2854C79.8567 55.1185 79.6508 55.0349 79.3955 55.0349C79.1367 55.0349 78.9225 55.1185 78.7484 55.2974C78.5743 55.4729 78.4918 55.6911 78.4918 55.9418C78.4918 56.202 78.5743 56.4192 78.7471 56.5861C78.9213 56.7532 79.1353 56.8368 79.3942 56.8368C79.6495 56.8368 79.8648 56.7532 80.0413 56.5766C80.2143 56.3976 80.306 56.1912 80.306 55.9323C80.2966 55.6698 80.2037 55.4526 80.0296 55.2856L80.0308 55.2854ZM79.9485 56.5146C79.7955 56.6696 79.6096 56.7412 79.3837 56.7412C79.1602 56.7412 78.9743 56.6696 78.819 56.5146C78.6661 56.357 78.5837 56.1602 78.5837 55.9298C78.5837 55.7031 78.6543 55.5147 78.8096 55.3571C78.9625 55.2021 79.1473 55.1304 79.3837 55.1304C79.6073 55.1304 79.7932 55.2021 79.9485 55.3571C80.1013 55.5147 80.1837 55.7031 80.1837 55.9298C80.1837 56.171 80.1131 56.357 79.9485 56.5146ZM79.4872 55.9835C79.5789 55.9621 79.652 55.9203 79.7025 55.869C79.7543 55.8153 79.7732 55.7424 79.7732 55.6591C79.7732 55.566 79.7438 55.492 79.6815 55.4407C79.6109 55.381 79.4968 55.3488 79.3522 55.3488H79.0251V56.5133H79.1898V56.0241H79.2921C79.3628 56.0241 79.4334 56.0956 79.4968 56.2317L79.6191 56.5121H79.8145L79.6616 56.1994C79.6086 56.0634 79.5474 56.0013 79.4852 55.981L79.4872 55.9835ZM79.3742 55.8786H79.1978V55.4849H79.3426C79.4449 55.4849 79.5167 55.5039 79.5579 55.5362C79.599 55.5672 79.6085 55.6078 79.6085 55.6818C79.6085 55.8166 79.5261 55.8787 79.3732 55.8787L79.3742 55.8786ZM50.7513 46.8064H50.8949V45.6406H51.2747V45.495H50.3713V45.6406H50.7514V46.8064H50.7513ZM51.6219 45.9306C51.6219 45.8171 51.6219 45.7241 51.6137 45.6717C51.6231 45.7337 51.6443 45.7755 51.6537 45.8065L52.0949 46.8064H52.1655L52.6078 45.7969C52.6197 45.7659 52.6291 45.7253 52.649 45.6717C52.6396 45.7755 52.6396 45.8588 52.6396 45.9222V46.8053H52.7926V45.495H52.6078L52.2079 46.3995C52.1985 46.4318 52.1665 46.4949 52.1466 46.5666H52.1349C52.1266 46.5247 52.1055 46.483 52.0761 46.4116L51.676 45.4951H51.469V46.8077H51.6137V45.9319L51.6219 45.9306Z" fill="#7B8499"/>
<defs>
<linearGradient id="paint0_linear_5_3275" x1="35.6701" y1="41.7324" x2="38.9211" y2="39.8694" gradientUnits="userSpaceOnUse">
<stop stop-color="#909CA9"/>
<stop offset="1" stop-color="#EDEDEE"/>
</linearGradient>
<linearGradient id="paint1_linear_5_3275" x1="35.7432" y1="4.96363" x2="38.3188" y2="4.96363" gradientUnits="userSpaceOnUse">
<stop stop-color="#939FAB"/>
<stop offset="1" stop-color="#DCDEE1"/>
</linearGradient>
</defs>
</svg>
