<svg width="136" height="48" viewBox="0 0 136 48" fill="none" xmlns="http://www.w3.org/2000/svg">
<path d="M41.9779 3.1858C41.3384 4.74598 40.5196 6.22363 39.5385 7.5879C33.7048 1.6555 25.1862 -0.626288 17.2378 1.62569C9.2894 3.87766 3.1358 10.2672 1.13344 18.4081C-0.86892 26.549 1.58397 35.1519 7.55931 40.9403L8.40543 41.7004C11.6351 44.4678 15.5542 46.2725 19.7294 46.9149C23.9045 47.5573 28.1729 47.0125 32.0626 45.3406C35.9522 43.6687 39.3116 40.9349 41.7692 37.4416C44.2267 33.9482 45.6866 29.8315 45.9875 25.5466C46.6102 19.6154 44.9009 12.1105 41.9779 3.18828V3.1858ZM10.8156 41.0732C10.3174 41.6992 9.49696 41.9588 8.73753 41.7315C7.9781 41.5042 7.42867 40.8309 7.34564 40.0298C7.26262 39.2286 7.66309 38.456 8.35903 38.0709C9.05498 37.6859 9.90964 37.7679 10.525 38.2747C11.3638 38.9665 11.4932 40.2198 10.8131 41.0744L10.8156 41.0732ZM41.8815 34.0974C36.2309 41.7551 24.1655 39.1727 16.4283 39.5429C16.4283 39.5429 15.0572 39.6248 13.6763 39.8559C13.6763 39.8559 14.1964 39.6298 14.863 39.3752C20.2963 37.4499 22.8639 37.081 26.1642 35.3532C32.3788 32.1398 38.5239 25.1019 39.8022 17.7858C37.4384 24.8237 30.2605 30.8753 23.7259 33.3335C19.2475 35.0128 11.1575 36.6475 11.1575 36.6475L10.8315 36.4698C5.32497 33.7483 5.15404 21.6202 15.1536 17.7088C19.5491 15.9909 23.7308 16.9337 28.4644 15.7835C33.5192 14.5612 39.3675 10.7081 41.7484 5.68123C44.4101 13.724 47.6163 26.3005 41.8668 34.1011L41.8815 34.0974Z" fill="#CAD0DB"/>
<path d="M51.2212 31.6243C50.9912 31.4858 50.8029 31.2877 50.6764 31.0509C50.5498 30.8141 50.4896 30.5475 50.5021 30.2794C50.4997 30.0725 50.5388 29.8673 50.617 29.6757C50.6951 29.4842 50.8109 29.3103 50.9573 29.1641C51.1038 29.018 51.278 28.9027 51.4697 28.8249C51.6614 28.7472 51.8667 28.7086 52.0736 28.7114C52.365 28.7131 52.651 28.7899 52.9041 28.9344C54.3326 29.9439 56.0261 30.5117 57.7744 30.5673C59.4397 30.5673 60.3994 29.8475 60.3994 28.7326V28.6712C60.3994 27.3587 58.6 26.9085 56.6193 26.3003C54.1234 25.5805 51.3355 24.5701 51.3355 21.3368V21.2719C51.3355 18.0669 53.9936 16.1208 57.3567 16.1208C59.2037 16.1552 61.016 16.6286 62.644 17.5017C62.9211 17.6362 63.1548 17.8457 63.3189 18.1064C63.4829 18.3671 63.5705 18.6685 63.5719 18.9765C63.5734 19.1857 63.5328 19.3931 63.4525 19.5863C63.3723 19.7796 63.254 19.9547 63.1047 20.1013C62.9554 20.2479 62.7781 20.363 62.5835 20.4397C62.3888 20.5164 62.1807 20.5532 61.9715 20.5479C61.7034 20.5527 61.4388 20.4857 61.2052 20.3539C59.8278 19.6341 58.418 19.1995 57.2487 19.1995C55.7457 19.1995 54.8778 19.9192 54.8778 20.8648V20.9297C54.8778 22.1787 56.7124 22.6924 58.6903 23.3324C61.1579 24.1086 63.9417 25.2207 63.9417 28.2634V28.3283C63.9417 31.8819 61.1869 33.6417 57.665 33.6417C55.3636 33.6258 53.1193 32.9231 51.2197 31.6236L51.2212 31.6243ZM65.4045 18.0789C65.3992 17.824 65.4449 17.5706 65.539 17.3336C65.633 17.0966 65.7734 16.8808 65.952 16.6988C66.1306 16.5169 66.3438 16.3725 66.579 16.274C66.8142 16.1756 67.0667 16.1252 67.3217 16.1257C67.5786 16.1242 67.8333 16.1737 68.0709 16.2713C68.3086 16.369 68.5245 16.5128 68.7061 16.6944C68.8878 16.8761 69.0316 17.092 69.1293 17.3297C69.2269 17.5673 69.2764 17.822 69.2749 18.0789V19.2517C70.5239 17.489 72.2851 16.0791 75.0294 16.0791C78.9859 16.0791 82.8739 19.2157 82.8739 24.8551V24.9201C82.8739 30.5228 79.0282 33.6925 75.0294 33.6925C72.2068 33.6925 70.4427 32.2827 69.2749 30.7147V36.6844C69.2749 37.1986 69.0706 37.6917 68.707 38.0553C68.3435 38.4189 67.8503 38.6232 67.3361 38.6232C66.822 38.6232 66.3288 38.4189 65.9652 38.0553C65.6017 37.6917 65.3974 37.1986 65.3974 36.6844L65.4045 18.0789ZM78.9527 24.913V24.8481C78.9527 21.5824 76.7405 19.4528 74.1148 19.4528C71.4892 19.4528 69.1839 21.6403 69.1839 24.8481V24.913C69.1839 28.1498 71.4892 30.3083 74.1148 30.3083C76.7405 30.3083 78.9527 28.2436 78.9527 24.9031V24.913ZM84.3579 18.0824C84.3526 17.8272 84.3984 17.5735 84.4927 17.3363C84.5869 17.0991 84.7277 16.8831 84.9067 16.7011C85.0857 16.5191 85.2992 16.3747 85.5349 16.2765C85.7705 16.1783 86.0234 16.1282 86.2786 16.1292C86.5357 16.1273 86.7905 16.1764 87.0284 16.2739C87.2663 16.3713 87.4824 16.5151 87.6641 16.6969C87.8459 16.8787 87.9897 17.0948 88.0872 17.3326C88.1846 17.5705 88.2338 17.8254 88.2318 18.0824V19.0139C88.4259 17.5744 90.7961 16.1363 92.4903 16.1363C92.7472 16.1182 93.005 16.1554 93.2463 16.2455C93.4875 16.3357 93.7066 16.4765 93.8887 16.6586C94.0708 16.8408 94.2117 17.0598 94.3018 17.3011C94.3919 17.5423 94.4292 17.8001 94.4111 18.057C94.4261 18.5009 94.2783 18.935 93.9955 19.2775C93.7127 19.62 93.3144 19.8472 92.8756 19.9164C90.1208 20.3948 88.2325 22.794 88.2325 26.1422V31.7168C88.2312 31.9713 88.1794 32.2231 88.0804 32.4577C87.9814 32.6922 87.8369 32.9048 87.6554 33.0833C87.4739 33.2618 87.2588 33.4027 87.0227 33.4978C86.7865 33.5929 86.5339 33.6404 86.2793 33.6375C86.0266 33.6394 85.776 33.591 85.5421 33.4951C85.3082 33.3993 85.0957 33.2578 84.917 33.0791C84.7382 32.9004 84.5968 32.6879 84.501 32.454C84.4051 32.2201 84.3567 31.9695 84.3586 31.7168L84.3579 18.0824ZM95.8781 18.0909C95.8733 17.8358 95.9195 17.5823 96.0139 17.3453C96.1083 17.1083 96.2491 16.8925 96.428 16.7106C96.6069 16.5287 96.8203 16.3844 97.0557 16.286C97.2911 16.1876 97.5437 16.1372 97.7988 16.1377C98.0558 16.1362 98.3104 16.1857 98.5481 16.2833C98.7857 16.381 99.0016 16.5248 99.1833 16.7064C99.365 16.8881 99.5088 17.104 99.6064 17.3417C99.704 17.5793 99.7535 17.834 99.752 18.0909V31.7287C99.7329 32.2297 99.5205 32.7037 99.1593 33.0513C98.7982 33.399 98.3164 33.5932 97.8151 33.5932C97.3138 33.5932 96.832 33.399 96.4708 33.0513C96.1097 32.7037 95.8972 32.2297 95.8781 31.7287V18.0909ZM101.709 18.098C101.704 17.8427 101.749 17.5891 101.844 17.3518C101.938 17.1146 102.079 16.8986 102.258 16.7166C102.437 16.5346 102.65 16.3903 102.886 16.2921C103.121 16.1938 103.374 16.1438 103.63 16.1448C103.886 16.1433 104.141 16.1928 104.379 16.2904C104.616 16.388 104.832 16.5318 105.014 16.7135C105.196 16.8952 105.339 17.1111 105.437 17.3487C105.535 17.5864 105.584 17.841 105.583 18.098V18.8925C106.147 18.0123 106.931 17.295 107.858 16.8118C108.785 16.3285 109.822 16.0961 110.867 16.1377C114.676 16.1377 116.888 18.6992 116.888 22.6119V31.7189C116.892 31.9723 116.845 32.2241 116.75 32.4591C116.656 32.6941 116.514 32.9076 116.335 33.0868C116.156 33.2661 115.942 33.4074 115.707 33.5024C115.472 33.5973 115.22 33.644 114.967 33.6396C114.711 33.6463 114.456 33.6016 114.217 33.508C113.978 33.4144 113.761 33.2739 113.578 33.0949C113.394 32.9158 113.248 32.7017 113.149 32.4654C113.05 32.2291 112.999 31.9752 113 31.7189V23.8044C113 21.1795 111.687 19.6715 109.381 19.6715C107.14 19.6715 105.572 21.243 105.572 23.8687V31.7168C105.553 32.2177 105.341 32.6917 104.979 33.0393C104.618 33.387 104.136 33.5812 103.635 33.5812C103.134 33.5812 102.652 33.387 102.291 33.0393C101.93 32.6917 101.717 32.2177 101.698 31.7168L101.709 18.098ZM133.921 16.0939C133.664 16.0924 133.41 16.1419 133.172 16.2396C132.934 16.3372 132.718 16.481 132.537 16.6627C132.355 16.8444 132.211 17.0603 132.114 17.2979C132.016 17.5356 131.966 17.7902 131.968 18.0472V19.1973C130.719 17.4347 128.958 16.022 126.213 16.022C122.256 16.022 118.365 19.1585 118.365 24.7945V24.8594C118.354 30.4671 122.199 33.6318 126.202 33.6318C129.004 33.6318 130.763 32.2396 131.957 30.6788C131.763 33.725 129.899 35.3331 126.629 35.3331C124.807 35.3514 123.013 34.8887 121.428 33.9917C121.21 33.8845 120.969 33.8304 120.726 33.8337C120.299 33.8335 119.889 34.0005 119.583 34.2989C119.277 34.5973 119.1 35.0034 119.09 35.4305C119.083 35.7685 119.183 36.1001 119.378 36.3769C119.572 36.6538 119.849 36.8616 120.169 36.9702C122.2 37.9727 124.436 38.4887 126.7 38.4775C129.743 38.4775 132.113 37.7577 133.653 36.2053C135.059 34.7954 135.811 32.6771 135.811 29.832V18.0394C135.816 17.7867 135.77 17.5356 135.678 17.3005C135.585 17.0654 135.447 16.8509 135.271 16.6694C135.095 16.4879 134.885 16.3429 134.653 16.2428C134.421 16.1427 134.172 16.0895 133.919 16.0862L133.921 16.0939ZM127.131 30.2829C124.473 30.2829 122.297 28.2013 122.297 24.8707V24.8057C122.297 21.5401 124.506 19.4104 127.131 19.4104C129.756 19.4104 132.062 21.5718 132.062 24.8057V24.8707C132.062 28.1039 129.76 30.2829 127.131 30.2829Z" fill="#CAD0DB"/>
<path d="M97.8172 13.4217C98.8959 13.4217 99.7704 12.5472 99.7704 11.4685C99.7704 10.3898 98.8959 9.51532 97.8172 9.51532C96.7385 9.51532 95.864 10.3898 95.864 11.4685C95.864 12.5472 96.7385 13.4217 97.8172 13.4217Z" fill="#CAD0DB"/>
</svg>
