<svg width="170" height="60" viewBox="0 0 170 60" fill="none" xmlns="http://www.w3.org/2000/svg">
<path d="M155.883 17.3767C155.471 17.3767 155.071 17.4613 154.717 17.6608L143.508 24.1036C142.782 24.5198 142.342 25.3053 142.342 26.1412V39.0034C142.342 39.8387 142.782 40.6232 143.508 41.0403L146.435 42.7223C147.857 43.4199 148.382 43.4091 149.029 43.4091C151.135 43.4091 152.337 42.1373 152.337 39.9272V27.2306C152.337 27.0511 152.181 26.9227 152.004 26.9227H150.6C150.42 26.9227 150.267 27.0511 150.267 27.2306V39.9272C150.267 40.9067 149.241 41.892 147.578 41.064L144.531 39.2876C144.423 39.2293 144.341 39.1262 144.341 39.0034V26.1409C144.341 26.019 144.422 25.8949 144.531 25.833L155.716 19.4142C155.767 19.3849 155.824 19.3694 155.883 19.3694C155.941 19.3694 155.999 19.3849 156.049 19.4142L167.235 25.8334C167.341 25.8972 167.425 26.0154 167.425 26.1415V39.0038C167.425 39.1266 167.363 39.2523 167.259 39.3116L156.049 45.7307C155.953 45.7877 155.821 45.7877 155.716 45.7307L152.837 44.0254C152.793 44.0017 152.744 43.9893 152.694 43.9893C152.644 43.9893 152.595 44.0017 152.551 44.0254C151.756 44.4738 151.607 44.5258 150.861 44.7832C150.678 44.8471 150.399 44.9462 150.957 45.2573L154.717 47.4598C155.071 47.6634 155.474 47.7697 155.883 47.7679C156.292 47.7705 156.695 47.6642 157.049 47.4601L168.258 41.0407C168.983 40.6209 169.424 39.839 169.424 39.0038V26.1412C169.424 25.3056 168.983 24.5214 168.258 24.1043L157.049 17.6615C156.698 17.4616 156.295 17.377 155.883 17.377L155.883 17.3767Z" fill="#CAD0DB"/>
<path d="M158.881 26.5676C155.69 26.5676 153.789 27.9197 153.789 30.1682C153.789 32.6071 155.675 33.2774 158.739 33.5789C162.404 33.9362 162.689 34.4718 162.689 35.1898C162.689 36.4353 161.692 36.9663 159.334 36.9663C156.371 36.9663 155.72 36.2302 155.502 34.7635C155.477 34.6061 155.354 34.479 155.193 34.479H153.741C153.562 34.479 153.408 34.6325 153.408 34.8109C153.408 36.6884 154.434 38.9087 159.334 38.9087C162.881 38.9087 164.926 37.523 164.926 35.095C164.926 32.6884 163.274 32.0422 159.833 31.5895C156.357 31.1315 156.026 30.9073 156.026 30.0971C156.026 29.4282 156.307 28.5333 158.881 28.5333C161.182 28.5333 162.032 29.0272 162.38 30.5709C162.41 30.7157 162.539 30.8313 162.689 30.8313H164.141C164.23 30.8313 164.317 30.7766 164.379 30.7128C164.44 30.6446 164.483 30.5679 164.474 30.4761C164.249 27.8179 162.469 26.5676 158.881 26.5676Z" fill="#CAD0DB"/>
<path d="M89.9418 0.511932C89.8163 0.512014 89.6931 0.544319 89.5841 0.605666C89.4759 0.668135 89.386 0.757339 89.3234 0.864491C89.2607 0.971642 89.2275 1.09304 89.2269 1.21674V19.1935C89.2269 19.3698 89.1438 19.5279 88.9888 19.6164C88.9128 19.6601 88.8265 19.6831 88.7386 19.6831C88.6507 19.6831 88.5644 19.6601 88.4885 19.6164L85.5104 17.9246C85.2932 17.8007 85.0466 17.7354 84.7957 17.7354C84.5447 17.7354 84.2982 17.8007 84.0809 17.9246L72.1927 24.6921C71.7484 24.9452 71.4782 25.4315 71.4782 25.9378V39.4731C71.4782 39.9787 71.7487 40.4418 72.1927 40.6949L84.0809 47.4627C84.2981 47.587 84.5446 47.6525 84.7957 47.6525C85.0467 47.6525 85.2933 47.587 85.5104 47.4627L97.3986 40.6949C97.6162 40.5713 97.797 40.3933 97.9225 40.1787C98.048 39.9642 98.1139 39.7208 98.1135 39.4731V5.72872C98.1131 5.47522 98.0446 5.22634 97.9149 5.00749C97.7852 4.78865 97.5989 4.60768 97.3751 4.48307L90.299 0.582151C90.1881 0.521076 90.0649 0.510299 89.9418 0.511932ZM13.4663 17.4076C13.2399 17.4164 13.0266 17.4556 12.8233 17.5719L0.934777 24.3397C0.717004 24.4631 0.536198 24.6411 0.410703 24.8557C0.285209 25.0703 0.219492 25.3138 0.220221 25.5615L0.244061 43.7267C0.244061 43.9792 0.376178 44.214 0.60134 44.3375C0.709287 44.4014 0.832849 44.4352 0.958784 44.4352C1.08472 44.4352 1.20828 44.4014 1.31623 44.3375L8.36809 40.3428C8.81477 40.0809 9.10648 39.6256 9.10648 39.1207V30.6376C9.10648 30.1313 9.37635 29.6669 9.82137 29.4154L12.823 27.7001C13.04 27.5756 13.2868 27.5107 13.5379 27.512C13.7829 27.512 14.0345 27.5724 14.2524 27.7001L17.2543 29.4154C17.4723 29.5387 17.6533 29.7167 17.7789 29.9314C17.9044 30.1461 17.9701 30.3897 17.9692 30.6376V39.1203C17.9692 39.6253 18.2639 40.0838 18.7076 40.3425L25.7595 44.3375C25.8674 44.4014 25.991 44.4352 26.1169 44.4352C26.2429 44.4352 26.3664 44.4014 26.4744 44.3375C26.583 44.2754 26.6733 44.1863 26.736 44.0791C26.7988 43.9719 26.8319 43.8502 26.832 43.7264L26.8552 25.5615C26.8566 25.3137 26.7911 25.0699 26.6656 24.8552C26.54 24.6405 26.3588 24.4626 26.1406 24.3397L14.2524 17.5719C14.0514 17.4556 13.8375 17.4168 13.6094 17.4076H13.4663ZM120.294 17.5719C120.045 17.5719 119.802 17.634 119.579 17.76L107.691 24.5278C107.473 24.6514 107.292 24.8294 107.167 25.0439C107.041 25.2585 106.975 25.5019 106.976 25.7497V39.285C106.976 39.7941 107.267 40.2553 107.714 40.5071L119.507 47.1338C119.943 47.3788 120.475 47.3974 120.913 47.1567L128.06 43.2326C128.287 43.1085 128.44 42.8766 128.441 42.6218C128.443 42.4978 128.41 42.3757 128.347 42.2682C128.284 42.1608 128.194 42.0719 128.084 42.0108L116.124 35.243C115.901 35.1169 115.743 34.8618 115.743 34.6084V30.3789C115.743 30.1258 115.902 29.8939 116.124 29.7678L119.841 27.6528C119.95 27.5907 120.073 27.5581 120.198 27.5581C120.324 27.5581 120.447 27.5907 120.556 27.6528L124.272 29.7678C124.381 29.8295 124.471 29.9185 124.534 30.0257C124.597 30.133 124.63 30.2547 124.63 30.3786V33.7154C124.629 33.8393 124.662 33.961 124.725 34.0683C124.788 34.1755 124.878 34.2645 124.987 34.3262C125.21 34.4532 125.479 34.4536 125.701 34.3262L132.825 30.2381C133.042 30.1141 133.223 29.9359 133.348 29.7214C133.474 29.5069 133.54 29.2636 133.54 29.016V25.75C133.54 25.2454 133.268 24.7813 132.825 24.5278L121.008 17.76C120.791 17.6361 120.544 17.571 120.294 17.5719ZM84.7478 27.6766C84.8101 27.6766 84.8829 27.6916 84.9385 27.7233L89.0126 30.0497C89.1232 30.1127 89.2034 30.2293 89.2034 30.355V35.0078C89.2034 35.1342 89.1239 35.2505 89.0126 35.3135L84.9385 37.6399C84.8841 37.6705 84.8226 37.6866 84.7599 37.6866C84.6973 37.6866 84.6357 37.6705 84.5813 37.6399L80.5075 35.3135C80.3966 35.2501 80.3168 35.1342 80.3168 35.0078V30.355C80.3168 30.229 80.3969 30.1134 80.5075 30.0497L84.5813 27.7236C84.6313 27.6929 84.6892 27.6767 84.7481 27.6769L84.7478 27.6766Z" fill="#7B8499"/>
<path d="M48.5948 24.8187C48.3116 24.8187 48.0314 24.8906 47.7777 25.0366L34.1834 32.8472C33.6749 33.1396 33.366 33.704 33.366 34.2895V49.9649C33.366 50.5511 33.6753 51.0867 34.1834 51.3802L47.7777 59.2177C48.026 59.3618 48.3079 59.4377 48.595 59.4377C48.8821 59.4377 49.1641 59.3618 49.4123 59.2177L63.0066 51.3802C63.2554 51.237 63.4621 51.0308 63.6055 50.7822C63.749 50.5337 63.8243 50.2517 63.8237 49.9649V34.2895C63.8237 33.7032 63.5147 33.1396 63.0066 32.8472L49.4123 25.0366C49.1638 24.8932 48.8818 24.8181 48.5948 24.8187ZM129.888 38.8072C129.834 38.8072 129.774 38.8072 129.725 38.8344L127.11 40.3583C127.061 40.3854 127.02 40.4248 126.991 40.4726C126.963 40.5204 126.947 40.5749 126.946 40.6307V43.624C126.946 43.7368 127.011 43.84 127.11 43.8964L129.725 45.3931C129.823 45.4498 129.928 45.4498 130.025 45.3931L132.64 43.896C132.688 43.8688 132.729 43.8294 132.758 43.7817C132.786 43.734 132.802 43.6797 132.803 43.624V40.6303C132.802 40.5747 132.786 40.5203 132.758 40.4726C132.729 40.4249 132.688 40.3855 132.64 40.3583L130.025 38.834C129.976 38.8056 129.943 38.8072 129.888 38.8072Z" fill="#CAD0DB"/>
</svg>
