<svg width="129" height="50" viewBox="0 0 129 50" fill="none" xmlns="http://www.w3.org/2000/svg">
<path d="M11.2552 0.592651L12.6024 3.06876C12.8957 3.51541 13.2371 3.93006 13.6209 4.30561C14.7493 5.40838 15.8234 6.5643 16.785 7.80236C19.0692 10.7338 20.6105 13.989 21.7118 17.5135C22.3718 19.6659 22.7302 21.8715 22.7574 24.1036C22.8687 30.7746 20.5277 36.5035 15.7938 41.2649C15.0267 42.0196 14.1984 42.7124 13.3168 43.3363C12.8471 43.3363 12.6284 42.974 12.4355 42.6636C12.0647 42.0596 11.8571 41.3989 11.7471 40.7274C11.5815 39.9205 11.4715 39.1137 11.5271 38.279V37.9022C11.4999 37.8213 11.0871 0.782286 11.2514 0.59386L11.2552 0.592651Z" fill="#CAD0DB"/>
<path d="M11.5394 0.646174C11.4836 0.537342 11.4278 0.619571 11.3733 0.672777C11.4005 1.21089 11.2071 1.69579 10.902 2.15409C10.5708 2.6136 10.128 2.96186 9.68649 3.33914C7.22829 5.41298 5.29596 7.91731 3.74812 10.7179C1.70416 14.4883 0.627616 18.5271 0.324992 22.7824C0.188563 24.3182 0.821097 29.7307 1.31968 31.2918C2.67157 35.4395 5.10248 38.9124 8.26515 41.9283C9.03908 42.6538 9.86757 43.3286 10.7234 43.9743C10.9714 43.9743 10.9999 43.7591 11.0545 43.597C11.1633 43.2531 11.2462 42.9019 11.3026 42.5462C11.5506 41.2003 11.6895 39.8532 11.8545 38.5074L11.5506 0.646174H11.5394Z" fill="#7B8499"/>
<path d="M12.5204 44.9075C12.5702 44.2963 12.8528 43.7914 13.1376 43.2864C12.8417 43.1551 12.619 42.8877 12.4461 42.594C12.2977 42.3278 12.1747 41.9972 12.0761 41.7166C11.7303 40.6005 11.655 39.4306 11.5575 38.287V37.5946C11.4356 37.702 11.409 38.6045 11.409 38.7382C11.3347 39.9606 11.1874 41.158 10.9658 42.3266C10.8915 42.8041 10.8439 43.284 10.5713 43.709C10.5713 43.7627 10.5713 43.8164 10.5957 43.8952C11.0389 45.3038 11.163 46.7399 11.2383 48.2023V48.7335C11.2383 49.371 11.214 49.2385 11.7071 49.4497C11.9043 49.5297 12.1281 49.5572 12.3243 49.716C12.4727 49.716 12.4971 49.5846 12.4971 49.4772L12.4229 48.5998V46.1526C12.3985 45.7276 12.4727 45.3015 12.5226 44.9027L12.5204 44.9075Z" fill="#C2BFBF"/>
<path d="M33.0046 33.6858V36.2341C33.0017 36.335 33.0075 36.436 33.0219 36.5359C33.0552 36.8378 33.2415 37.0218 33.5154 37.1065C33.771 37.1734 34.0306 37.2238 34.2927 37.2574C34.4445 37.2745 34.4951 37.3408 34.5123 37.5028C34.5296 38.0733 34.479 38.1407 33.9226 38.1064C32.6246 38.0389 31.3253 38.023 30.0273 38.1064H29.9039C29.4992 38.1236 29.4659 38.0892 29.4659 37.6868C29.4659 37.6193 29.4832 37.5359 29.4832 37.4684C29.4832 37.3457 29.5671 37.2844 29.6855 37.2844C29.957 37.2512 30.2087 37.1838 30.4628 37.1335C30.817 37.05 31.0181 36.8316 31.0526 36.4795C31.102 36.0943 31.102 35.6918 31.102 35.3054L31.1193 30.8124C31.1248 30.6821 31.093 30.5529 31.0274 30.4399C30.9619 30.3269 30.8653 30.2349 30.7491 30.1744C30.444 30.0059 30.1213 29.8709 29.7867 29.772C29.6855 29.7389 29.5843 29.7229 29.5004 29.6714C29.2537 29.5536 29.2475 29.3364 29.4832 29.2015C29.5671 29.1524 29.6683 29.118 29.7694 29.1009C30.7927 28.9507 31.7981 28.6979 32.7701 28.3463C32.9725 28.2788 33.0231 28.2972 33.0416 28.4972C33.0589 28.6199 33.0416 28.7672 33.0243 28.8825C32.991 29.1009 32.991 29.318 32.991 29.5205C32.991 29.6039 33.0083 29.6886 33.0922 29.7389C33.1761 29.7892 33.2612 29.7389 33.339 29.6898C33.6931 29.4199 34.0472 29.1696 34.4346 28.9536C34.9898 28.6518 35.5821 28.3831 36.2237 28.2997C37.001 28.1991 37.6735 28.4003 38.2645 28.9033C38.5088 29.1208 38.7241 29.3686 38.9048 29.6407C39.0739 29.8861 39.0899 29.8922 39.3095 29.7241C39.9511 29.2542 40.6248 28.8359 41.3503 28.534C42.1091 28.215 42.8852 28.166 43.6601 28.4334C44.4522 28.7181 44.9927 29.2714 45.3135 30.026C45.5849 30.6296 45.7009 31.2529 45.7009 31.9031V36.3961C45.7009 36.6979 45.8243 36.8868 46.1229 37.0341C46.4437 37.1568 46.7978 37.2181 47.1346 37.2856C47.3542 37.3347 47.3542 37.3347 47.3542 37.5555C47.3209 38.1076 47.2703 38.142 46.7299 38.1076C45.3766 38.0322 44.0201 38.0322 42.6668 38.1076C42.3954 38.1248 42.3954 38.1248 42.3806 37.8561V37.7727C42.3633 37.3187 42.3633 37.3187 42.8026 37.2206L43.2406 37.1028C43.389 37.0681 43.5213 36.9847 43.6162 36.866C43.7111 36.7474 43.7631 36.6004 43.7637 36.4488L43.8131 35.1913L43.7798 31.9056C43.7668 31.6122 43.7043 31.3231 43.5947 31.0504C43.1727 30.0272 42.2461 29.6591 41.3516 29.7597C40.6766 29.8272 40.0869 30.0947 39.5304 30.4811C39.412 30.5646 39.3281 30.6652 39.3453 30.8333C39.4971 31.9068 39.3947 32.9804 39.4132 34.0527V36.3838C39.4132 36.8034 39.5822 37.0046 39.9869 37.1052L40.7643 37.2733C40.8827 37.2905 40.9493 37.3408 40.9493 37.4745V37.5972C40.9321 38.0671 40.9 38.088 40.4262 38.0831C39.0776 38.0156 37.7278 38.034 36.3964 38.0831C35.9399 38.1003 35.9029 38.05 35.9239 37.5923C35.9411 37.3224 35.9732 37.3077 36.2274 37.2574L36.7826 37.1568C37.2762 37.0562 37.4575 36.8721 37.4909 36.3519L37.5402 35.2281L37.5069 31.8577C37.4736 31.4381 37.3835 31.0357 37.1528 30.6505C36.8159 30.0296 36.2891 29.7119 35.5673 29.6775C34.8418 29.6284 34.2014 29.8959 33.5931 30.2296C33.1711 30.475 32.9861 30.7658 33.0194 31.2529V33.7006L33.0046 33.6858ZM64.7725 33.7877V36.1519C64.7752 36.32 64.7863 36.4879 64.8058 36.655C64.813 36.7663 64.8564 36.8723 64.9293 36.957C65.0023 37.0418 65.101 37.1007 65.2105 37.1249C65.5014 37.2092 65.8012 37.2598 66.1038 37.2758C66.2728 37.2929 66.3062 37.3592 66.3234 37.4942V37.6119C66.3062 38.1984 66.2395 38.2659 65.6658 38.2328C64.3826 38.1493 63.1031 38.1653 61.8211 38.2328L61.3276 38.2499C61.2264 38.2499 61.2042 38.2009 61.1758 38.1322C61.1265 37.9 61.1265 37.6601 61.1758 37.4279C61.1931 37.3273 61.2597 37.3052 61.3609 37.277C61.6077 37.2439 61.8174 37.1936 62.0518 37.1543C62.4738 37.0537 62.6256 36.8844 62.6416 36.4501L62.691 35.0416V30.9167C62.691 30.6149 62.5725 30.4308 62.3035 30.2959C62 30.1278 61.6792 30.0112 61.3411 29.8935C61.24 29.8603 61.1388 29.826 61.0549 29.7757C60.8353 29.6248 60.8081 29.4076 61.0216 29.2395C61.1173 29.1613 61.2349 29.1142 61.3584 29.1046C62.438 28.9365 63.4831 28.7021 64.4949 28.2997C64.6133 28.2506 64.6639 28.2825 64.7145 28.3831C64.7651 28.4837 64.7823 28.6015 64.7638 28.7181L64.7145 29.5058C64.7145 29.6064 64.6651 29.7511 64.7478 29.7904C64.849 29.8579 64.9168 29.707 65.0007 29.6677C65.4986 29.2524 66.0486 28.9031 66.6368 28.6285C67.16 28.3831 67.6979 28.2261 68.3062 28.2604C69.4364 28.3279 70.2458 28.8984 70.7677 29.8873C71.0392 30.4075 71.1552 30.9768 71.2058 31.5645L71.2551 32.7914L71.2724 36.4967C71.2897 36.7813 71.3908 36.9666 71.6771 37.0672C71.9738 37.1655 72.2785 37.2386 72.5877 37.2856C72.8591 37.3187 72.8739 37.369 72.8912 37.6205V37.704C72.8579 38.2745 72.8233 38.2904 72.2496 38.2561C70.9916 38.189 69.7308 38.189 68.4728 38.2561C68.3037 38.2733 68.1359 38.2561 67.9792 38.2733C67.8781 38.2733 67.8102 38.2561 67.7942 38.1555C67.7609 37.9371 67.7263 37.7199 67.7769 37.4844C67.7942 37.3837 67.8448 37.3334 67.962 37.3163L68.7393 37.1936C69.0107 37.1261 69.1613 36.9482 69.1958 36.7028L69.2291 36.2329L69.2119 32.7288C69.2119 32.3264 69.1946 31.924 69.1107 31.5216C68.9083 30.6627 68.2507 30.0493 67.3586 29.9634C66.5813 29.88 65.878 30.0812 65.2339 30.4995C64.9131 30.7008 64.7774 30.9854 64.7774 31.3375V33.8699C64.7774 33.8208 64.7774 33.8208 64.7947 33.8208L64.7725 33.7877Z" fill="#7B8499"/>
<path d="M114.158 29.0419C113.973 27.8175 113.517 26.728 112.725 25.7722C112.034 24.9279 111.141 24.2704 110.127 23.8607C109.066 23.4251 107.935 23.2902 106.789 23.257C106.316 23.2399 99.8753 23.3405 99.4027 23.257C99.2842 23.2399 99.2003 23.2742 99.1312 23.3748C99.0473 23.4975 98.9622 23.6263 98.9116 23.7601C98.7093 24.214 98.7093 24.1797 99.1979 24.2459C99.6026 24.3134 99.99 24.3465 100.379 24.4643C100.733 24.5821 100.986 24.7833 101.07 25.1686C101.103 25.3526 101.137 31.254 101.137 34.0048L101.07 35.9678C101.052 36.1187 101.036 36.2696 100.986 36.4034C100.918 36.6046 100.801 36.7715 100.598 36.8573C100.376 36.9615 100.136 37.0239 99.8901 37.0414C99.4335 37.0904 99.3669 37.1088 99.2151 37.6119L99.1658 37.7959C99.1325 38.0143 99.1485 38.0474 99.3681 38.0474L104.41 38.0965L106.384 38.0634L107.75 37.8953C109.301 37.6107 110.684 36.9727 111.863 35.9506C112.537 35.3589 113.087 34.641 113.482 33.8379C113.955 32.8993 114.157 31.8749 114.208 30.8369C114.292 30.2504 114.257 29.6468 114.158 29.0431V29.0419ZM111.713 31.4221C111.645 32.4957 111.427 33.5349 110.87 34.4734C110.162 35.6979 109.15 36.5531 107.751 36.8537C107.144 36.9763 106.537 37.0377 105.9 36.9543C105.444 36.9052 105.007 36.8537 104.585 36.7027C103.826 36.4328 103.556 35.9666 103.54 35.2305L103.523 25.1207C103.523 24.5171 103.794 24.3846 104.231 24.3662C104.888 24.3171 105.563 24.333 106.221 24.3993C106.921 24.4666 107.608 24.6318 108.262 24.8901C108.747 25.0913 109.197 25.3689 109.594 25.7121C110.505 26.485 111.112 27.4543 111.445 28.5953C111.716 29.518 111.766 30.4565 111.716 31.3951L111.713 31.4221ZM128.172 33.0662C128.172 32.9656 128.172 32.8821 128.155 32.7815C128.003 31.8589 127.513 31.1547 126.756 30.6185C126.267 30.2664 125.711 30.032 125.137 29.8639C125.036 29.8308 124.952 29.7965 124.851 29.7805C124.868 29.6971 124.919 29.6799 124.969 29.6627C125.306 29.4946 125.627 29.3106 125.913 29.0591C126.436 28.6235 126.777 28.0862 126.958 27.4322C127.059 27.0801 127.059 26.728 127.026 26.3587C126.999 25.9266 126.874 25.5063 126.66 25.1289C126.447 24.7515 126.151 24.4266 125.795 24.1784C125.017 23.6079 124.108 23.3736 123.164 23.3564C121.343 23.3233 119.506 23.3564 117.686 23.3564C117.163 23.3564 116.641 23.3895 116.1 23.3073C115.999 23.2902 115.854 23.2583 115.78 23.3748C115.656 23.5932 115.508 23.8104 115.459 24.0619C115.441 24.1797 115.476 24.2459 115.611 24.2631L116.774 24.4312C117.231 24.4987 117.551 24.7502 117.583 25.1526C117.617 25.4307 117.633 25.7105 117.633 25.9906L117.599 29.1253L117.582 35.3286C117.582 35.6967 117.533 36.05 117.464 36.4181C117.447 36.535 117.397 36.6446 117.319 36.7338C117.242 36.823 117.14 36.8881 117.026 36.9211C116.689 37.0217 116.368 37.1223 116.014 37.1223C115.919 37.1134 115.824 37.1367 115.745 37.1884C115.665 37.2402 115.606 37.3172 115.576 37.407C115.508 37.5579 115.453 37.726 115.424 37.8769C115.391 38.0781 115.441 38.1468 115.644 38.1223C115.796 38.1051 121.36 38.2401 122.405 38.1395C123.03 38.072 123.639 37.9885 124.26 37.8045C125.321 37.4696 126.301 36.9825 127.075 36.1604C127.717 35.4893 128.087 34.6845 128.121 33.7459C128.17 33.5275 128.17 33.3103 128.17 33.0748L128.172 33.0662ZM119.994 26.1955L120.044 24.8545C120.044 24.603 120.145 24.4864 120.398 24.4349C120.803 24.3514 121.207 24.3858 121.612 24.4017C122.017 24.4349 122.404 24.4852 122.809 24.603C123.549 24.8213 124.124 25.2409 124.462 25.944C124.616 26.2636 124.696 26.613 124.698 26.9672C124.715 27.4371 124.681 27.8898 124.495 28.3414C124.209 28.9622 123.755 29.3646 123.096 29.4824C122.437 29.6002 120.567 29.5499 120.281 29.5499C120.028 29.5499 120.009 29.5167 120.009 29.2652V27.6862C119.97 27.1952 119.964 26.702 119.992 26.2102L119.994 26.1955ZM125.473 35.2157C125.186 35.9703 124.663 36.4917 123.922 36.7739C123.517 36.9248 123.112 37.0193 122.688 36.9923C122.165 36.9751 121.643 36.9923 121.121 36.8917C120.413 36.7408 120.092 36.0697 120.041 35.5838C119.957 34.7286 120.008 33.8563 119.992 33.2195V31.0062C119.992 30.7363 120.025 30.6541 120.313 30.6541L121.898 30.6713L122.978 30.7939C123.737 30.962 124.428 31.2479 124.968 31.8331C125.406 32.303 125.643 32.8723 125.694 33.4931C125.743 34.0796 125.711 34.6501 125.491 35.2035L125.473 35.2157Z" fill="#C2BFBF"/>
<path d="M82.63 30.1645L83.068 30.232C83.5406 30.2492 84.097 30.0811 84.2648 29.4272C84.3574 29.1148 84.3574 28.7825 84.2648 28.4702C84.1637 28.4702 84.1131 28.5536 84.0625 28.588C83.8095 28.7892 83.5233 28.9069 83.2198 28.9401C82.6127 29.0076 82.0057 28.9732 81.4159 28.756L80.5892 28.4714C80.0126 28.2836 79.4059 28.2046 78.8001 28.2383C77.9401 28.3058 77.1307 28.5904 76.3719 28.9928C75.5625 29.4284 74.99 30.0823 74.7185 30.9718C74.5668 31.492 74.5495 32.027 74.6174 32.5644C74.7864 33.7888 75.4268 34.644 76.573 35.0967C76.6409 35.1139 76.6915 35.1458 76.7581 35.1642C76.9099 35.2476 76.9271 35.3323 76.7914 35.4488L76.3694 35.7335L75.3577 36.3543C75.1047 36.5052 75.0714 36.6242 75.1553 36.8905C75.2557 37.2037 75.4425 37.4825 75.6945 37.6953C75.9259 37.8927 76.188 38.0514 76.4706 38.1652C76.6557 38.2486 76.6557 38.2879 76.4879 38.4351L75.5255 39.1222C75.2047 39.3676 74.8839 39.613 74.6149 39.9271C74.4278 40.1261 74.293 40.368 74.2224 40.6312C74.1519 40.8944 74.1476 41.1709 74.2102 41.4362C74.3356 42.0182 74.6421 42.5462 75.0862 42.9452C75.5247 43.349 76.0579 43.6371 76.6372 43.7832C77.5811 44.0532 78.5595 44.0679 79.5207 43.8838C80.9026 43.6323 82.1118 43.025 83.0618 41.9895C83.7195 41.3024 84.1069 40.4976 84.1414 39.5357C84.1783 38.9794 84.0155 38.4281 83.682 37.9799C83.3485 37.5318 82.866 37.2157 82.3203 37.088L81.4097 36.9199L78.6274 36.6745C78.3239 36.6573 78.0203 36.607 77.7674 36.4561C77.4466 36.2549 77.3627 35.8697 77.565 35.6181C77.7168 35.4341 77.9019 35.3163 78.1388 35.2991L78.678 35.2501C79.7443 35.1422 80.7453 34.6887 81.5269 33.9594C81.9443 33.5753 82.2426 33.0806 82.3869 32.5337C82.5893 31.8123 82.5893 31.0614 82.4202 30.3253C82.3709 30.1412 82.3869 30.124 82.6226 30.1572L82.63 30.1645ZM78.4966 38.5161C78.5978 38.5333 78.6989 38.5161 78.8001 38.5161C79.5083 38.5492 80.2338 38.5995 80.9248 38.786C81.1504 38.8523 81.3703 38.9364 81.5824 39.0375C82.2574 39.4056 82.5103 40.0436 82.4252 40.7307C82.324 41.4852 81.902 42.0214 81.2444 42.3747C80.8064 42.6201 80.3165 42.7269 79.8106 42.7772C79.6256 42.7943 79.4565 42.7772 79.2714 42.7772C78.6817 42.7943 78.1079 42.7281 77.5515 42.4925C77.164 42.3416 76.8432 42.1245 76.557 41.8214C75.9672 41.2349 75.6933 40.1614 76.5743 39.2891C77.1134 38.7983 77.7217 38.4511 78.4966 38.5161ZM80.4189 33.2846C80.0648 34.1728 79.2887 34.4415 78.5139 34.3238C77.8056 34.2231 77.2825 33.8379 76.9469 33.1999C76.5089 32.3447 76.3916 31.4577 76.6433 30.5338C76.8284 29.8468 77.2504 29.3265 77.9919 29.2088C78.9358 29.0407 79.8427 29.3769 80.319 30.3154C80.5658 30.7694 80.6731 31.3215 80.6731 32.1092C80.6558 32.4282 80.5892 32.8637 80.4202 33.2833L80.4189 33.2846ZM59.1745 32.1435C59.0228 31.2381 58.6859 30.416 58.0616 29.729C57.1337 28.7057 55.9542 28.2567 54.6216 28.253C53.4581 28.2358 52.3637 28.572 51.384 29.1756C50.4209 29.7487 49.7149 30.6667 49.4111 31.7411C49.1248 32.714 49.1396 33.7042 49.3617 34.6918C49.9515 37.342 52.0096 38.4805 54.4699 38.3137C55.1954 38.2646 55.8863 38.029 56.5427 37.71C57.5212 37.2561 58.2294 36.5359 58.718 35.5801C59.1054 34.7924 59.2732 33.9532 59.2572 32.9975L59.1733 32.1423L59.1745 32.1435ZM56.7809 35.866C56.6603 36.2432 56.4317 36.5774 56.1232 36.8275C55.8147 37.0777 55.4395 37.233 55.0436 37.2745C54.3033 37.3751 53.6099 37.191 52.9868 36.7543C52.5369 36.4252 52.1727 35.9941 51.9244 35.4967C51.2335 34.0882 51.115 32.6134 51.4679 31.1043C51.5815 30.6373 51.8273 30.2124 52.1761 29.8799C52.8005 29.3094 53.5247 29.1756 54.3354 29.3437C55.1127 29.5118 55.7012 29.9302 56.1861 30.5682C56.671 31.2062 56.8944 31.9423 57.0289 32.7153C57.0967 33.1005 57.0967 33.503 57.1128 33.7545C57.1128 34.5593 57.0449 35.2268 56.792 35.8672L56.7809 35.866ZM96.0172 32.2785C95.8939 31.3056 95.5286 30.4173 94.8364 29.6799C93.9259 28.691 92.7451 28.2714 91.431 28.2542C90.3008 28.2371 89.2557 28.5561 88.2946 29.1094C87.215 29.7474 86.4734 30.6516 86.1872 31.8761C85.8453 33.2119 85.9886 34.6249 86.5919 35.866C87.1471 37.0401 88.0922 37.7947 89.3409 38.1296C90.7228 38.4977 92.0393 38.3308 93.32 37.71C94.433 37.1739 95.2251 36.3359 95.6804 35.1949C95.9518 34.5237 96.0506 33.8035 96.0678 32.9643C96.0851 32.8134 96.0506 32.5447 96.0185 32.2773L96.0172 32.2785ZM93.6902 35.6488C93.4188 36.5543 92.8475 37.1407 91.8863 37.2757C91.1781 37.3763 90.5044 37.2082 89.8961 36.8058C89.373 36.4537 89.0028 35.9838 88.7326 35.4317C88.4291 34.8452 88.26 34.2244 88.1934 33.5876C88.0922 32.7999 88.0922 32.0294 88.2773 31.2405C88.3126 31.085 88.3634 30.9333 88.4291 30.7878C88.9016 29.6136 89.9467 29.0775 91.1781 29.3462C92.0048 29.5302 92.6278 29.9842 93.1004 30.6712C93.5569 31.3424 93.7753 32.0797 93.8777 32.8797C93.9271 33.1987 93.9456 33.5336 93.9271 33.8183C93.9271 34.4722 93.8777 35.0759 93.6803 35.6623L93.6902 35.6488Z" fill="#7B8499"/>
</svg>
