<svg width="75" height="68" viewBox="0 0 75 68" fill="none" xmlns="http://www.w3.org/2000/svg">
<g clip-path="url(#clip0_5_3289)">
<path d="M12.4986 15.0567C12.1986 15.0567 11.9571 14.8246 11.9571 14.5271V14.5198C11.9497 11.1388 9.1909 8.39626 5.77346 8.389C5.47342 8.389 5.23193 8.14957 5.23193 7.8521C5.23193 7.55463 5.47342 7.3152 5.77346 7.3152C9.18359 7.30794 11.9497 4.56539 11.9571 1.18436C11.9571 0.88689 12.1986 0.647461 12.4913 0.647461H12.4986C12.7986 0.647461 13.0401 0.879635 13.0401 1.17711V1.18436C13.0474 4.56539 15.8063 7.30794 19.2237 7.3152C19.5237 7.3152 19.7652 7.54737 19.7652 7.84485V7.8521C19.7652 8.14957 19.5237 8.389 19.231 8.389H19.2164C15.8063 8.389 13.0401 11.1316 13.0328 14.5198C13.0401 14.8101 12.7986 15.0495 12.4986 15.0567Z" fill="#7B8499"/>
<path d="M51.4371 52.2408C51.1956 52.2408 51.0053 52.0522 51.0053 51.8127C51.0053 49.1065 48.788 46.9153 46.0585 46.9081C45.817 46.9081 45.6267 46.7194 45.6267 46.48C45.6267 46.2406 45.817 46.0519 46.0585 46.0519C48.788 46.0519 50.998 43.8608 50.998 41.1545C50.998 40.9151 51.1956 40.7264 51.4298 40.7264C51.6713 40.7264 51.8615 40.9223 51.8615 41.1545C51.8615 43.8608 54.0789 46.0519 56.8084 46.0592C57.0499 46.0592 57.2402 46.2478 57.2402 46.4872C57.2402 46.7267 57.0499 46.9153 56.8084 46.9153C54.0789 46.9153 51.8689 49.1137 51.8615 51.82C51.8689 52.0449 51.6786 52.2408 51.4371 52.2408Z" fill="#7B8499"/>
<path d="M49.4685 21.9639C51.8907 32.0199 45.6266 42.1195 35.4914 44.521C25.3561 46.9226 15.155 40.7192 12.7328 30.6631C10.3105 20.6071 16.5673 10.5076 26.7099 8.10601C36.8525 5.70446 47.039 11.9079 49.4685 21.9639Z" fill="#D6D6D6"/>
<mask id="mask0_5_3289" style="mask-type:luminance" maskUnits="userSpaceOnUse" x="12" y="7" width="38" height="39">
<path d="M49.4685 21.9639C51.8907 32.0199 45.6266 42.1195 35.4914 44.521C25.3561 46.9226 15.155 40.7192 12.7328 30.6631C10.3105 20.6071 16.5673 10.5076 26.7099 8.10601C36.8525 5.70446 47.039 11.9079 49.4685 21.9639Z" fill="white"/>
</mask>
<g mask="url(#mask0_5_3289)">
<path d="M20.9729 38.9996C23.7536 39.0867 26.0807 36.9245 26.1759 34.1675C26.2637 31.4104 24.0829 29.1032 21.3022 29.0089H20.9875C21.0021 28.8638 21.0094 28.7259 21.0094 28.5808C20.9875 25.802 18.697 23.5745 15.9016 23.5891H12.1182C11.3718 29.1903 13.1647 34.835 17.0285 38.9996H20.9729Z" fill="#F2F2F2"/>
<path d="M49.6954 22.8273C49.7027 22.7838 49.6954 22.733 49.6734 22.6894C49.066 19.4245 47.5659 16.3845 45.3485 13.9031C42.3336 12.706 38.9015 14.157 37.694 17.1463C37.6575 17.2333 37.6282 17.3277 37.5916 17.4147C37.4672 17.8355 37.4013 18.2636 37.3867 18.6989C37.1818 18.6772 36.9769 18.6627 36.772 18.6627C33.8229 18.6554 31.4226 21.0207 31.4153 23.9446C31.408 26.1938 32.8423 28.2108 34.9864 28.9581C35.5133 29.1613 36.0841 29.2701 36.6549 29.2628H42.8971C45.3998 27.3837 47.6829 25.2288 49.6954 22.8273Z" fill="#F2F2F2"/>
</g>
<path d="M56.2962 10.6818C54.3569 7.48937 49.8345 6.24143 43.5118 7.17739C41.3457 7.48211 39.2016 7.93921 37.1087 8.55592C38.7698 9.1291 40.3578 9.91268 41.8068 10.8922C42.5459 10.7325 43.2923 10.5366 44.0094 10.4278C45.1291 10.2537 46.2634 10.1666 47.4049 10.1594C49.6588 9.84013 51.9274 10.6672 53.4349 12.3723C54.6131 14.3167 53.6178 17.647 50.7126 21.5214C46.6658 26.5131 41.7116 30.7067 36.0988 33.8774C30.6177 37.2729 24.5366 39.6092 18.1773 40.7773C13.3622 41.4883 9.92278 40.7773 8.7446 38.8401C7.56642 36.9029 8.56165 33.5654 11.4742 29.7055C11.8327 29.2266 11.9206 28.9945 12.3304 28.5083C12.1401 26.8541 12.162 25.1854 12.4109 23.5384C11.101 24.8371 9.90083 26.2374 8.81046 27.7248C4.99785 32.7745 3.96603 37.3237 5.89795 40.5161C7.97622 43.2731 11.3717 44.7242 14.8184 44.3252C16.1064 44.3179 17.3943 44.2164 18.6676 44.0205C25.4513 42.7943 31.9423 40.3129 37.8039 36.6997C43.7826 33.3042 49.0661 28.8203 53.3763 23.4876C57.1963 18.4233 58.2281 13.8741 56.2962 10.6818Z" fill="#7B8499"/>
</g>
<path d="M1.51576 65.1882H0.191254L2.20941 59.3421H3.80224L5.81754 65.1882H4.49304L3.02866 60.6781H2.98299L1.51576 65.1882ZM1.43298 62.8903H4.56154V63.8552H1.43298V62.8903ZM6.47551 65.1882V64.4632L8.62212 61.8056V61.7742H6.54973V60.8037H10.0865V61.5944L8.07119 64.1863V64.2177H10.1607V65.1882H6.47551ZM13.9023 63.3214V60.8037H15.1183V65.1882H13.9508V64.3918H13.9051C13.8062 64.6487 13.6416 64.8552 13.4113 65.0113C13.1829 65.1673 12.9042 65.2453 12.5749 65.2453C12.2819 65.2453 12.024 65.1787 11.8014 65.0455C11.5787 64.9123 11.4046 64.7229 11.279 64.4775C11.1553 64.232 11.0925 63.9379 11.0906 63.5954V60.8037H12.3066V63.3785C12.3085 63.6373 12.378 63.8418 12.515 63.9922C12.652 64.1425 12.8356 64.2177 13.0659 64.2177C13.2124 64.2177 13.3495 64.1844 13.477 64.1178C13.6045 64.0493 13.7072 63.9484 13.7853 63.8152C13.8652 63.682 13.9042 63.5174 13.9023 63.3214ZM16.091 65.1882V60.8037H17.2699V61.5687H17.3156C17.3955 61.2966 17.5297 61.091 17.7181 60.9521C17.9065 60.8113 18.1234 60.7409 18.3689 60.7409C18.4298 60.7409 18.4955 60.7447 18.5659 60.7523C18.6363 60.7599 18.6981 60.7704 18.7514 60.7837V61.8627C18.6943 61.8456 18.6154 61.8303 18.5145 61.817C18.4136 61.8037 18.3213 61.797 18.2376 61.797C18.0587 61.797 17.8989 61.8361 17.7581 61.9141C17.6191 61.9902 17.5088 62.0968 17.4269 62.2338C17.347 62.3708 17.307 62.5288 17.307 62.7076V65.1882H16.091ZM21.1742 65.2739C20.7232 65.2739 20.335 65.1825 20.0096 64.9998C19.6861 64.8152 19.4368 64.5545 19.2617 64.2177C19.0866 63.879 18.9991 63.4784 18.9991 63.0159C18.9991 62.5649 19.0866 62.1691 19.2617 61.8284C19.4368 61.4878 19.6832 61.2223 20.001 61.032C20.3207 60.8417 20.6956 60.7466 21.1257 60.7466C21.4149 60.7466 21.6842 60.7932 21.9335 60.8865C22.1847 60.9778 22.4036 61.1158 22.5901 61.3004C22.7785 61.485 22.925 61.7171 23.0297 61.9969C23.1343 62.2747 23.1867 62.6001 23.1867 62.9731V63.3071H19.4843V62.5535H22.042C22.042 62.3784 22.0039 62.2233 21.9278 62.0882C21.8517 61.9531 21.7461 61.8475 21.611 61.7714C21.4777 61.6933 21.3227 61.6543 21.1457 61.6543C20.9611 61.6543 20.7974 61.6971 20.6547 61.7828C20.5139 61.8665 20.4035 61.9797 20.3236 62.1225C20.2436 62.2633 20.2027 62.4203 20.2008 62.5935V63.3099C20.2008 63.5269 20.2408 63.7143 20.3207 63.8723C20.4025 64.0302 20.5177 64.152 20.6661 64.2377C20.8145 64.3233 20.9906 64.3661 21.1942 64.3661C21.3293 64.3661 21.453 64.3471 21.5653 64.309C21.6776 64.271 21.7737 64.2139 21.8536 64.1378C21.9335 64.0616 21.9944 63.9684 22.0363 63.858L23.161 63.9322C23.1039 64.2025 22.9868 64.4384 22.8099 64.6402C22.6348 64.84 22.4083 64.996 22.1305 65.1083C21.8545 65.2187 21.5358 65.2739 21.1742 65.2739ZM31.0216 61.3888H29.7714C29.7485 61.2271 29.7019 61.0834 29.6315 60.9578C29.5611 60.8303 29.4707 60.7218 29.3603 60.6324C29.2499 60.543 29.1224 60.4744 28.9778 60.4269C28.8351 60.3793 28.68 60.3555 28.5125 60.3555C28.2099 60.3555 27.9464 60.4307 27.7218 60.581C27.4972 60.7295 27.3231 60.9464 27.1994 61.2318C27.0757 61.5154 27.0139 61.8598 27.0139 62.2652C27.0139 62.682 27.0757 63.0321 27.1994 63.3157C27.325 63.5992 27.5001 63.8133 27.7247 63.9579C27.9492 64.1026 28.209 64.1749 28.5039 64.1749C28.6695 64.1749 28.8227 64.153 28.9635 64.1092C29.1063 64.0654 29.2328 64.0017 29.3432 63.918C29.4536 63.8323 29.5449 63.7286 29.6172 63.6068C29.6914 63.485 29.7428 63.3461 29.7714 63.1901L31.0216 63.1958C30.9893 63.4641 30.9084 63.7229 30.779 63.9722C30.6515 64.2196 30.4793 64.4413 30.2623 64.6373C30.0473 64.8314 29.7904 64.9856 29.4916 65.0997C29.1947 65.212 28.8589 65.2682 28.484 65.2682C27.9625 65.2682 27.4963 65.1502 27.0852 64.9142C26.6761 64.6782 26.3526 64.3366 26.1147 63.8894C25.8787 63.4422 25.7607 62.9008 25.7607 62.2652C25.7607 61.6277 25.8806 61.0853 26.1204 60.6381C26.3602 60.1909 26.6856 59.8503 27.0967 59.6162C27.5077 59.3802 27.9701 59.2622 28.484 59.2622C28.8227 59.2622 29.1367 59.3098 29.426 59.4049C29.7171 59.5001 29.975 59.639 30.1995 59.8217C30.4241 60.0025 30.6068 60.2242 30.7476 60.4868C30.8903 60.7494 30.9817 61.0501 31.0216 61.3888ZM33.8662 65.2739C33.4228 65.2739 33.0393 65.1797 32.7158 64.9913C32.3942 64.801 32.1459 64.5364 31.9708 64.1977C31.7957 63.8571 31.7082 63.4622 31.7082 63.0131C31.7082 62.5602 31.7957 62.1643 31.9708 61.8256C32.1459 61.485 32.3942 61.2204 32.7158 61.032C33.0393 60.8417 33.4228 60.7466 33.8662 60.7466C34.3096 60.7466 34.6921 60.8417 35.0137 61.032C35.3372 61.2204 35.5865 61.485 35.7616 61.8256C35.9367 62.1643 36.0242 62.5602 36.0242 63.0131C36.0242 63.4622 35.9367 63.8571 35.7616 64.1977C35.5865 64.5364 35.3372 64.801 35.0137 64.9913C34.6921 65.1797 34.3096 65.2739 33.8662 65.2739ZM33.8719 64.3319C34.0736 64.3319 34.242 64.2748 34.3771 64.1606C34.5123 64.0445 34.6141 63.8866 34.6826 63.6867C34.753 63.4869 34.7882 63.2595 34.7882 63.0045C34.7882 62.7495 34.753 62.5221 34.6826 62.3223C34.6141 62.1225 34.5123 61.9645 34.3771 61.8484C34.242 61.7323 34.0736 61.6743 33.8719 61.6743C33.6683 61.6743 33.497 61.7323 33.3581 61.8484C33.2211 61.9645 33.1173 62.1225 33.0469 62.3223C32.9784 62.5221 32.9442 62.7495 32.9442 63.0045C32.9442 63.2595 32.9784 63.4869 33.0469 63.6867C33.1173 63.8866 33.2211 64.0445 33.3581 64.1606C33.497 64.2748 33.6683 64.3319 33.8719 64.3319ZM40.463 62.054L39.3497 62.1225C39.3307 62.0273 39.2898 61.9417 39.227 61.8656C39.1642 61.7875 39.0814 61.7257 38.9787 61.68C38.8778 61.6324 38.757 61.6086 38.6161 61.6086C38.4277 61.6086 38.2688 61.6486 38.1394 61.7285C38.01 61.8066 37.9453 61.9112 37.9453 62.0425C37.9453 62.1472 37.9872 62.2357 38.0709 62.308C38.1546 62.3803 38.2983 62.4384 38.5019 62.4821L39.2955 62.642C39.7218 62.7295 40.0396 62.8704 40.2489 63.0645C40.4583 63.2586 40.5629 63.5136 40.5629 63.8295C40.5629 64.1168 40.4782 64.369 40.3089 64.5859C40.1414 64.8029 39.9111 64.9722 39.6181 65.094C39.3269 65.2139 38.991 65.2739 38.6104 65.2739C38.03 65.2739 37.5676 65.153 37.2231 64.9113C36.8806 64.6678 36.6798 64.3366 36.6208 63.918L37.8169 63.8552C37.853 64.0321 37.9406 64.1673 38.0795 64.2605C38.2184 64.3519 38.3963 64.3975 38.6133 64.3975C38.8264 64.3975 38.9977 64.3566 39.1271 64.2748C39.2584 64.191 39.325 64.0835 39.3269 63.9522C39.325 63.8418 39.2784 63.7515 39.187 63.681C39.0957 63.6087 38.9549 63.5535 38.7646 63.5155L38.0053 63.3642C37.5771 63.2785 37.2583 63.1301 37.049 62.9189C36.8416 62.7076 36.7378 62.4384 36.7378 62.111C36.7378 61.8294 36.814 61.5868 36.9662 61.3831C37.1204 61.1795 37.3363 61.0225 37.6142 60.9121C37.8939 60.8018 38.2213 60.7466 38.5961 60.7466C39.1499 60.7466 39.5857 60.8636 39.9035 61.0977C40.2232 61.3318 40.4097 61.6505 40.463 62.054ZM41.3287 65.1882V60.8037H42.4876V61.5772H42.539C42.6303 61.3203 42.7826 61.1177 42.9957 60.9692C43.2088 60.8208 43.4638 60.7466 43.7607 60.7466C44.0614 60.7466 44.3173 60.8217 44.5286 60.9721C44.7398 61.1205 44.8806 61.3222 44.9511 61.5772H44.9967C45.0862 61.326 45.2479 61.1253 45.482 60.9749C45.718 60.8227 45.9968 60.7466 46.3184 60.7466C46.7275 60.7466 47.0596 60.8769 47.3146 61.1376C47.5715 61.3965 47.7 61.7637 47.7 62.2395V65.1882H46.4868V62.4793C46.4868 62.2357 46.4221 62.053 46.2927 61.9312C46.1633 61.8094 46.0015 61.7485 45.8074 61.7485C45.5867 61.7485 45.4144 61.8189 45.2907 61.9598C45.167 62.0987 45.1052 62.2823 45.1052 62.5107V65.1882H43.9263V62.4536C43.9263 62.2385 43.8644 62.0673 43.7407 61.9398C43.6189 61.8123 43.4581 61.7485 43.2583 61.7485C43.1232 61.7485 43.0014 61.7828 42.8929 61.8513C42.7864 61.9179 42.7017 62.0121 42.6389 62.1339C42.5761 62.2538 42.5447 62.3946 42.5447 62.5564V65.1882H41.3287ZM50.6416 65.2739C50.1982 65.2739 49.8147 65.1797 49.4912 64.9913C49.1696 64.801 48.9212 64.5364 48.7462 64.1977C48.5711 63.8571 48.4835 63.4622 48.4835 63.0131C48.4835 62.5602 48.5711 62.1643 48.7462 61.8256C48.9212 61.485 49.1696 61.2204 49.4912 61.032C49.8147 60.8417 50.1982 60.7466 50.6416 60.7466C51.085 60.7466 51.4675 60.8417 51.7891 61.032C52.1126 61.2204 52.3619 61.485 52.537 61.8256C52.7121 62.1643 52.7996 62.5602 52.7996 63.0131C52.7996 63.4622 52.7121 63.8571 52.537 64.1977C52.3619 64.5364 52.1126 64.801 51.7891 64.9913C51.4675 65.1797 51.085 65.2739 50.6416 65.2739ZM50.6473 64.3319C50.849 64.3319 51.0174 64.2748 51.1525 64.1606C51.2876 64.0445 51.3895 63.8866 51.458 63.6867C51.5284 63.4869 51.5636 63.2595 51.5636 63.0045C51.5636 62.7495 51.5284 62.5221 51.458 62.3223C51.3895 62.1225 51.2876 61.9645 51.1525 61.8484C51.0174 61.7323 50.849 61.6743 50.6473 61.6743C50.4436 61.6743 50.2724 61.7323 50.1335 61.8484C49.9964 61.9645 49.8927 62.1225 49.8223 62.3223C49.7538 62.5221 49.7195 62.7495 49.7195 63.0045C49.7195 63.2595 49.7538 63.4869 49.8223 63.6867C49.8927 63.8866 49.9964 64.0445 50.1335 64.1606C50.2724 64.2748 50.4436 64.3319 50.6473 64.3319ZM57.2384 62.054L56.1251 62.1225C56.1061 62.0273 56.0652 61.9417 56.0024 61.8656C55.9396 61.7875 55.8568 61.7257 55.754 61.68C55.6532 61.6324 55.5323 61.6086 55.3915 61.6086C55.2031 61.6086 55.0442 61.6486 54.9148 61.7285C54.7854 61.8066 54.7207 61.9112 54.7207 62.0425C54.7207 62.1472 54.7626 62.2357 54.8463 62.308C54.93 62.3803 55.0737 62.4384 55.2773 62.4821L56.0709 62.642C56.4972 62.7295 56.815 62.8704 57.0243 63.0645C57.2336 63.2586 57.3383 63.5136 57.3383 63.8295C57.3383 64.1168 57.2536 64.369 57.0842 64.5859C56.9168 64.8029 56.6865 64.9722 56.3934 65.094C56.1023 65.2139 55.7664 65.2739 55.3858 65.2739C54.8054 65.2739 54.3429 65.153 53.9985 64.9113C53.656 64.6678 53.4552 64.3366 53.3962 63.918L54.5922 63.8552C54.6284 64.0321 54.7159 64.1673 54.8549 64.2605C54.9938 64.3519 55.1717 64.3975 55.3887 64.3975C55.6018 64.3975 55.7731 64.3566 55.9025 64.2748C56.0338 64.191 56.1004 64.0835 56.1023 63.9522C56.1004 63.8418 56.0538 63.7515 55.9624 63.681C55.8711 63.6087 55.7302 63.5535 55.5399 63.5155L54.7806 63.3642C54.3525 63.2785 54.0337 63.1301 53.8244 62.9189C53.6169 62.7076 53.5132 62.4384 53.5132 62.111C53.5132 61.8294 53.5893 61.5868 53.7416 61.3831C53.8957 61.1795 54.1117 61.0225 54.3896 60.9121C54.6693 60.8018 54.9966 60.7466 55.3715 60.7466C55.9253 60.7466 56.3611 60.8636 56.6789 61.0977C56.9986 61.3318 57.1851 61.6505 57.2384 62.054ZM62.0597 65.1882H59.9873V59.3421H62.0768C62.6649 59.3421 63.1711 59.4592 63.5954 59.6933C64.0198 59.9254 64.3462 60.2594 64.5745 60.6952C64.8048 61.131 64.9199 61.6524 64.9199 62.2595C64.9199 62.8684 64.8048 63.3918 64.5745 63.8295C64.3462 64.2672 64.0179 64.6031 63.5897 64.8371C63.1635 65.0712 62.6534 65.1882 62.0597 65.1882ZM61.2233 64.1292H62.0083C62.3737 64.1292 62.681 64.0645 62.9303 63.9351C63.1815 63.8038 63.3699 63.6011 63.4955 63.3271C63.623 63.0511 63.6868 62.6953 63.6868 62.2595C63.6868 61.8275 63.623 61.4745 63.4955 61.2004C63.3699 60.9264 63.1825 60.7247 62.9332 60.5953C62.6839 60.4659 62.3766 60.4012 62.0112 60.4012H61.2233V64.1292ZM65.8355 65.1882V59.3421H68.1762C68.6063 59.3421 68.9651 59.4059 69.2524 59.5334C69.5398 59.6609 69.7558 59.8379 69.9004 60.0643C70.045 60.2889 70.1173 60.5477 70.1173 60.8408C70.1173 61.0691 70.0717 61.2699 69.9803 61.4431C69.889 61.6144 69.7634 61.7552 69.6035 61.8656C69.4456 61.974 69.2648 62.0511 69.0612 62.0968V62.1539C69.2838 62.1634 69.4922 62.2262 69.6863 62.3423C69.8823 62.4583 70.0412 62.6211 70.163 62.8304C70.2848 63.0378 70.3457 63.2852 70.3457 63.5726C70.3457 63.8828 70.2686 64.1596 70.1145 64.4032C69.9622 64.6449 69.7367 64.8362 69.438 64.977C69.1392 65.1178 68.7709 65.1882 68.3332 65.1882H65.8355ZM67.0715 64.1777H68.0792C68.4236 64.1777 68.6748 64.1121 68.8328 63.9808C68.9907 63.8476 69.0697 63.6706 69.0697 63.4498C69.0697 63.2881 69.0307 63.1453 68.9527 63.0216C68.8747 62.8979 68.7633 62.8009 68.6187 62.7305C68.476 62.6601 68.3057 62.6249 68.1077 62.6249H67.0715V64.1777ZM67.0715 61.7885H67.9878C68.1572 61.7885 68.3076 61.759 68.4389 61.7C68.5721 61.6391 68.6767 61.5535 68.7529 61.4431C68.8309 61.3327 68.8699 61.2004 68.8699 61.0463C68.8699 60.8351 68.7947 60.6647 68.6444 60.5353C68.496 60.4059 68.2847 60.3412 68.0107 60.3412H67.0715V61.7885Z" fill="#7B8499"/>
<defs>
<clipPath id="clip0_5_3289">
<rect width="52.3001" height="51.5934" fill="white" transform="translate(4.94727 0.647461)"/>
</clipPath>
</defs>
</svg>
