<svg width="194" height="54" viewBox="0 0 194 54" fill="none" xmlns="http://www.w3.org/2000/svg">
<path fill-rule="evenodd" clip-rule="evenodd" d="M57.1746 39.4902V15.5408H60.22L74.6951 34.8143V15.5408H77.5901V39.4902H74.5447L60.0696 20.0266V39.4902H57.1746ZM101.164 38.5398C99.2463 39.2621 97.1785 39.6422 94.9978 39.6422C86.4255 39.6422 82.1394 35.4986 82.1394 27.1733C82.1394 19.3043 86.2751 15.3507 94.5466 15.3507C96.9153 15.3507 99.1336 15.6929 101.164 16.3391V19.0002C99.1336 18.2018 97.0281 17.8217 94.885 17.8217C88.4182 17.8217 85.1848 20.9389 85.1848 27.0973C85.1848 33.7499 88.3806 37.0572 94.7346 37.0572C95.7498 37.0572 96.8777 36.9051 98.1184 36.639V28.6179H101.164V38.5398ZM106.052 30.2525V15.5408H109.097V30.2525C109.097 34.8523 111.353 37.1712 115.902 37.1712C120.414 37.1712 122.707 34.8523 122.707 30.2525V15.5408H125.753V30.2525C125.753 36.525 122.482 39.6802 115.902 39.6802C109.323 39.6802 106.052 36.525 106.052 30.2525ZM134.25 15.5408V36.9812H146.657V39.4902H131.204V15.5408H134.25ZM151.056 39.4902H147.86L159.628 12.3856L171.396 39.4902H168.012L164.967 31.9632H157.147L157.974 29.4542H163.952L159.515 18.62L151.056 39.4902ZM174.667 39.4902V15.5408H184.781C189.293 15.5408 191.549 17.4415 191.549 21.281C191.549 24.3983 189.33 26.7172 184.931 28.1997L193.053 39.4902H189.03L181.51 28.732V26.7172C186.022 25.9949 188.315 24.2462 188.315 21.4331C188.315 19.2282 187.074 18.1258 184.555 18.1258H177.788V39.4902H174.667Z" fill="#C8C9CB"/>
<path fill-rule="evenodd" clip-rule="evenodd" d="M0.55249 9.15445L24.803 0.411041L49.6926 9.00239L45.6697 41.4291L24.803 53.0996L4.27466 41.5811L0.55249 9.15445Z" fill="#CDCDCD"/>
<path fill-rule="evenodd" clip-rule="evenodd" d="M49.6926 9.00239L24.803 0.411041V53.0996L45.6697 41.4291L49.6926 9.00239Z" fill="#C8C9CB"/>
<path fill-rule="evenodd" clip-rule="evenodd" d="M24.8406 6.56942L9.72632 40.5547L15.366 40.4406L18.4114 32.7616H31.9089L35.2175 40.5167L40.594 40.6307L24.8406 6.56942ZM24.8782 17.4797L29.9915 28.2759H20.4041L24.8782 17.4797Z" fill="white"/>
</svg>
