<svg width="137" height="53" viewBox="0 0 137 53" fill="none" xmlns="http://www.w3.org/2000/svg">
<path d="M0.592529 42.0405L0.861092 41.6004L13.5624 13.3973L13.5892 13.0987L7.99034 0.791303C7.52102 -0.239632 6.20034 0.0209143 6.04652 1.17502L0.592529 42.0405Z" fill="#FFC24A"/>
<path d="M0.750977 41.7048L0.954012 41.2415L13.5209 13.3338L7.9374 0.976384C7.47314 -0.0438927 6.29453 0.21621 6.14108 1.35832L0.750977 41.7048Z" fill="#FFA712"/>
<path d="M0.750977 41.7048L0.954012 41.2415L13.5209 13.3338L7.9374 0.976384C7.47314 -0.0438927 6.29453 0.21621 6.14108 1.35832L0.750977 41.7048Z" fill="#CAD0DB"/>
<path d="M17.6706 22.4081L21.8395 17.4118L17.6695 8.09581C17.2735 7.21395 16.1683 7.21143 15.7767 8.09581L13.5486 13.0699V13.4933L17.6706 22.4081Z" fill="#7B8499"/>
<path d="M17.5962 22.1997L21.649 17.3423L17.5962 8.31095C17.2114 7.45233 16.2764 7.36381 15.8956 8.22213L13.6559 13.2702L13.5889 13.5284L17.5962 22.1997Z" fill="#FFA50E"/>
<path d="M17.5962 22.1997L21.649 17.3423L17.5962 8.31095C17.2114 7.45233 16.2764 7.36381 15.8956 8.22213L13.6559 13.2702L13.5889 13.5284L17.5962 22.1997Z" fill="#CAD0DB"/>
<path d="M13.5606 13.041L0.592529 42.0406L0.714224 41.8973L1.15647 41.6871L17.4091 22.7382L17.6148 22.0824L13.5606 13.041Z" fill="#7B8499"/>
<path d="M18.1914 51.5965L32.9004 41.9966L28.7012 11.7225C28.5696 10.7754 27.5768 10.4009 26.9976 11.0801L0.592529 42.0404L15.2171 51.5959C15.6717 51.8929 16.1836 52.0488 16.7043 52.0489C17.2249 52.0491 17.7369 51.8934 18.1916 51.5967" fill="#FDE068"/>
<path d="M32.7688 41.9165L28.6003 11.8734C28.47 10.9334 27.644 10.5445 27.0691 11.2185L0.75708 41.9816L15.221 51.4412C16.1381 52.0405 17.2552 52.0408 18.1728 51.4421L32.7688 41.9165Z" fill="#7B8499"/>
<path d="M18.1914 51.3136C17.268 51.917 16.1412 51.9167 15.217 51.3127L0.710176 41.8947L0.592529 42.0402L15.2171 51.5958C16.1413 52.1998 17.267 52.1998 18.1916 51.5965L32.9005 41.9965L32.8645 41.7372L18.1914 51.3136Z" fill="#CAD0DB"/>
<path d="M44.037 41.1697H41.5337V18.3707H52.8932V21.1722H44.037V28.6559H52.0377V31.3966H44.037V41.1697ZM57.294 21.6497C56.949 22.0535 56.5325 22.257 56.043 22.257C55.81 22.2617 55.5788 22.2102 55.3635 22.1057C55.1483 22.0013 54.9538 21.846 54.7921 21.6497C54.625 21.4599 54.4928 21.2321 54.4036 20.9804C54.3144 20.7287 54.27 20.4583 54.2732 20.1858C54.2692 19.9132 54.3131 19.6425 54.4024 19.3907C54.4917 19.1388 54.6243 18.9112 54.7921 18.7219C54.9543 18.5264 55.1489 18.3717 55.364 18.2673C55.5791 18.1629 55.8102 18.1109 56.043 18.1147C56.276 18.11 56.5073 18.1615 56.7225 18.2659C56.9377 18.3704 57.1322 18.5256 57.294 18.7219C57.461 18.9118 57.5932 19.1395 57.6825 19.3912C57.7717 19.6429 57.816 19.9133 57.8129 20.1858C57.8169 20.4585 57.7729 20.7291 57.6836 20.981C57.5943 21.2328 57.4617 21.4605 57.294 21.6497ZM57.294 41.1697H54.7907V25.5672H57.294V41.1697ZM62.6974 41.1697H60.1927V25.5672H62.5867V28.1143H62.6946C62.9471 27.2658 63.4702 26.565 64.2597 26.0136C65.0493 25.4622 65.8024 25.1848 66.5597 25.1848C67.317 25.1848 67.9298 25.3128 68.4389 25.5672L67.4853 28.3079C67.1585 28.1438 66.7139 28.0847 66.153 28.0847C65.2456 28.0847 64.442 28.5032 63.745 29.3419C63.048 30.1805 62.6974 31.2784 62.6974 32.6373V41.1697ZM75.0218 41.6621C73.008 41.6621 71.3713 40.8776 70.1106 39.3054C68.8498 37.7331 68.2173 35.7506 68.2173 33.3512C68.2173 31.0799 68.8288 29.1269 70.0405 27.4923C71.2521 25.8577 72.8453 25.0404 74.7343 25.0404C76.6977 25.0404 78.2936 25.7953 79.4829 27.3019C80.6721 28.8085 81.2639 30.8255 81.2639 33.3529L81.2359 33.8945H70.7178C70.7908 35.465 71.2395 36.7074 72.0641 37.6199C72.4468 38.0598 72.8997 38.4071 73.3971 38.6419C73.8945 38.8768 74.4266 38.9946 74.9629 38.9886C76.758 38.9886 77.9739 38.0975 78.6092 36.3135L80.853 37.3967C80.4323 38.6062 79.7003 39.6205 78.7031 40.4378C77.706 41.2551 76.4803 41.6637 75.0288 41.6637L75.0218 41.6621ZM78.612 31.4869C78.5559 30.5957 78.2081 29.7472 77.5644 28.9398C76.9207 28.1323 75.9628 27.7302 74.6937 27.7302C73.7681 27.7302 72.9659 28.07 72.2857 28.7478C71.6055 29.4256 71.1385 30.3397 70.8833 31.4885H78.5966L78.612 31.4869ZM90.3403 41.6621C89.3236 41.6621 88.412 41.4077 87.6056 40.8973C86.7993 40.3869 86.1948 39.7518 85.7825 38.987H85.6885V41.1533H83.2946V18.3707H85.7979V25.5672L85.6885 27.7335H85.7979C86.1976 26.9687 86.8007 26.332 87.6211 25.8232C88.4415 25.3145 89.3404 25.0584 90.3558 25.0584C92.0807 25.0584 93.5813 25.8544 94.8182 27.4463C96.0552 29.0383 96.6975 31.0126 96.6975 33.3545C96.6975 35.6964 96.072 37.6872 94.8182 39.2627C93.5645 40.8382 92.0793 41.6506 90.3558 41.6506L90.3403 41.6621ZM89.9196 38.987C91.0808 38.987 92.0793 38.4717 92.9124 37.4443C93.7454 36.4169 94.1633 35.0515 94.1633 33.3529C94.1633 31.6543 93.7454 30.2905 92.9124 29.2615C92.0793 28.2324 91.0794 27.7188 89.9196 27.7188C89.3542 27.7058 88.793 27.8354 88.2742 28.0988C87.7554 28.3621 87.2911 28.7531 86.9128 29.245C86.0882 30.279 85.6745 31.6329 85.6745 33.3529C85.6745 35.0728 86.0868 36.4415 86.9128 37.4607C87.7389 38.4799 88.7402 38.9903 89.9196 38.9903V38.987ZM103.261 41.6621C101.858 41.6621 100.662 41.1697 99.7098 40.2293C98.7576 39.289 98.2794 38.0105 98.2794 36.4547C98.2794 34.7561 98.8403 33.4251 99.9665 32.4584C101.093 31.4918 102.48 31.0093 104.132 31.0093C105.601 31.0093 106.807 31.3277 107.75 31.9644V31.518C107.75 30.3692 107.413 29.4535 106.743 28.7642C106.073 28.0749 105.247 27.7302 104.266 27.7302C103.54 27.7302 102.882 27.9321 102.293 28.3375C101.733 28.7012 101.303 29.2891 101.083 29.9934L98.7969 28.8479C99.1054 27.9124 99.7126 27.0492 100.62 26.2548C101.527 25.4605 102.724 25.0601 104.21 25.0601C105.915 25.0601 107.331 25.6443 108.455 26.8112C109.58 27.9781 110.142 29.6241 110.142 31.7462V41.1714H107.762V39.005H107.653C106.655 40.7873 105.195 41.6801 103.272 41.6801L103.261 41.6621ZM103.681 38.987C104.715 38.987 105.655 38.5357 106.497 37.633C107.34 36.7304 107.762 35.6636 107.762 34.4328C107.056 33.7533 105.995 33.4152 104.579 33.4152C103.363 33.4152 102.447 33.7238 101.83 34.3392C101.213 34.9546 100.905 35.6768 100.905 36.5055C100.905 37.2703 101.185 37.8743 101.749 38.3207C102.313 38.7671 102.955 38.9903 103.681 38.9903V38.987ZM117.425 41.6621C115.939 41.6621 114.709 41.2354 113.737 40.3885C112.79 39.5752 112.051 38.4741 111.601 37.2047L113.845 36.1215C114.552 38.0909 115.759 39.051 117.463 39.051C118.243 39.051 118.882 38.8491 119.381 38.4438C119.881 38.0384 120.13 37.5083 120.13 36.8518C120.13 35.8343 119.523 35.145 118.307 34.784L115.615 34.0192C114.762 33.7648 113.954 33.2807 113.193 32.57C112.431 31.8594 112.054 30.9338 112.054 29.7062C112.054 28.3276 112.576 27.2067 113.619 26.3467C114.662 25.4868 115.901 25.0568 117.335 25.0568C118.513 25.0568 119.579 25.385 120.491 25.9955C121.402 26.6061 122.078 27.5185 122.478 28.687L120.301 29.7374C119.811 28.3588 118.795 27.6695 117.254 27.6695C116.511 27.6695 115.884 27.8336 115.375 28.2111C114.866 28.5886 114.613 29.0596 114.613 29.675C114.613 30.5662 115.202 31.1718 116.38 31.4902L119.02 32.2221C120.271 32.5618 121.196 33.1461 121.796 33.9732C122.397 34.8004 122.694 35.7358 122.694 36.7747C122.694 38.1762 122.203 39.3431 121.224 40.2769C120.245 41.2108 118.983 41.6785 117.442 41.6785L117.425 41.6621ZM130.758 41.6621C128.744 41.6621 127.106 40.8776 125.847 39.3054C124.587 37.7331 123.953 35.7506 123.953 33.3512C123.953 31.0799 124.565 29.1269 125.776 27.4923C126.988 25.8577 128.581 25.0404 130.47 25.0404C132.434 25.0404 134.03 25.7953 135.219 27.3019C136.408 28.8085 137 30.8255 137 33.3529V33.8945H126.482C126.552 35.465 127.004 36.7074 127.828 37.6199C128.211 38.0596 128.663 38.4067 129.16 38.6416C129.658 38.8765 130.189 38.9944 130.726 38.9886C132.521 38.9886 133.736 38.0975 134.372 36.3135L136.616 37.3967C136.195 38.6062 135.463 39.6205 134.466 40.4378C133.469 41.2551 132.243 41.6637 130.791 41.6637L130.758 41.6621ZM134.348 31.4869C134.292 30.5957 133.944 29.7472 133.3 28.9398C132.657 28.1323 131.699 27.7302 130.43 27.7302C129.547 27.7121 128.69 28.0749 128.022 28.7494C127.342 29.4289 126.875 30.3413 126.619 31.4902H134.333L134.348 31.4869Z" fill="#C8C9CB"/>
</svg>
