<svg width="153" height="36" viewBox="0 0 153 36" fill="none" xmlns="http://www.w3.org/2000/svg">
<path d="M36.0476 0.553497H30.0476V34.7535H36.0476V0.553497Z" fill="#CAD0DB"/>
<path d="M57.5475 23.0535C57.5475 23.9535 57.4475 24.8535 57.1475 25.6535C56.8475 26.4535 56.4475 27.1535 55.9475 27.8535C55.4475 28.4535 54.8475 28.9535 54.1475 29.2535C53.4475 29.5535 52.6475 29.7535 51.8475 29.7535C50.5475 29.7535 49.4475 29.3535 48.6475 28.4535C47.8475 27.5535 47.4475 26.2535 47.4475 24.6535V8.6535H41.4475V24.6535C41.4475 27.8535 42.2475 30.4535 43.7475 32.3535C45.2475 34.2535 47.5475 35.2535 50.5475 35.2535C51.4475 35.2535 52.3475 35.1535 53.0475 34.9535C53.7475 34.7535 54.4475 34.4535 55.0475 34.1535C55.6475 33.8535 56.1475 33.4535 56.5475 33.0535C56.9475 32.6535 57.3475 32.2535 57.6475 31.9535L57.8475 34.8535H63.5475V8.6535H57.5475V23.0535Z" fill="#CAD0DB"/>
<path d="M82.8475 29.7535C82.2475 30.0535 81.5475 30.1535 80.6475 30.1535C79.6475 30.1535 78.9475 29.7535 78.4475 28.9535C77.9475 28.1535 77.7475 27.0535 77.7475 25.5535V14.2535H84.0475V8.6535H77.6475V0.553497H71.6475V8.6535H67.6475V14.1535H71.6475V25.9535C71.6475 27.3535 71.7475 28.6535 72.0475 29.8535C72.3475 31.0535 72.7475 32.0535 73.3475 32.8535C73.9475 33.6535 74.7475 34.3535 75.8475 34.7535C76.8475 35.2535 78.0475 35.4535 79.5475 35.4535C80.9475 35.4535 82.2475 35.2535 83.3475 34.7535C84.4475 34.2535 85.6475 33.5535 86.8475 32.4535L84.3475 28.4535C83.9475 29.0535 83.3475 29.4535 82.8475 29.7535Z" fill="#CAD0DB"/>
<path d="M103.247 29.7535C102.647 30.0535 101.947 30.1535 101.047 30.1535C100.047 30.1535 99.3475 29.7535 98.8475 28.9535C98.3475 28.1535 98.1475 27.0535 98.1475 25.5535V14.2535H104.547V8.6535H98.1475V0.553497H92.1475V8.6535H88.1475V14.1535H92.1475V25.9535C92.1475 27.3535 92.2475 28.6535 92.5475 29.8535C92.8475 31.0535 93.2475 32.0535 93.8475 32.8535C94.4475 33.6535 95.2475 34.3535 96.3475 34.7535C97.3475 35.2535 98.5475 35.4535 100.047 35.4535C101.447 35.4535 102.747 35.2535 103.847 34.7535C104.947 34.2535 106.147 33.5535 107.347 32.4535L104.847 28.4535C104.347 29.0535 103.847 29.4535 103.247 29.7535Z" fill="#CAD0DB"/>
<path d="M129.448 12.9535C128.548 11.5535 127.348 10.4535 125.848 9.55349C124.348 8.65349 122.548 8.25349 120.348 8.25349C118.548 8.25349 116.948 8.55349 115.448 9.25349C113.948 9.95349 112.748 10.8535 111.648 12.0535C110.548 13.2535 109.748 14.6535 109.148 16.2535C108.548 17.8535 108.248 19.6535 108.248 21.5535C108.248 23.6535 108.548 25.5535 109.148 27.2535C109.748 28.9535 110.548 30.4535 111.648 31.6535C112.748 32.8535 114.048 33.8535 115.648 34.5535C117.148 35.2535 118.948 35.5535 120.848 35.5535C122.748 35.5535 124.248 35.3535 125.648 34.8535C126.948 34.4535 128.048 33.9535 128.948 33.3535C129.848 32.8535 130.448 32.2535 130.948 31.7535C131.448 31.2535 131.648 30.9535 131.748 30.8535L128.548 26.9535C128.348 27.1535 128.048 27.4535 127.648 27.7535C127.248 28.0535 126.748 28.4535 126.148 28.7535C125.548 29.0535 124.848 29.3535 123.948 29.5535C123.048 29.7535 122.048 29.9535 120.948 29.9535C120.148 29.9535 119.348 29.8535 118.648 29.5535C117.848 29.2535 117.148 28.8535 116.548 28.2535C115.948 27.7535 115.448 27.0535 115.048 26.2535C114.648 25.4535 114.448 24.6535 114.448 23.6535H132.048V22.7535C132.048 20.9535 131.848 19.1535 131.448 17.3535C131.048 15.8535 130.348 14.3535 129.448 12.9535ZM114.248 19.2535C114.248 18.5535 114.348 17.9535 114.648 17.2535C114.948 16.5535 115.348 16.0535 115.848 15.4535C116.348 14.9535 116.948 14.4535 117.748 14.1535C118.548 13.8535 119.348 13.6535 120.348 13.6535C121.248 13.6535 122.048 13.8535 122.748 14.1535C123.448 14.4535 124.048 14.9535 124.448 15.4535C124.948 15.9535 125.248 16.5535 125.448 17.2535C125.648 17.9535 125.848 18.5535 125.848 19.2535H114.248Z" fill="#CAD0DB"/>
<path d="M151.048 8.4535C150.548 8.3535 150.048 8.3535 149.548 8.3535C148.548 8.3535 147.748 8.4535 146.948 8.7535C146.148 9.0535 145.548 9.3535 144.948 9.6535C144.348 10.0535 143.848 10.4535 143.448 10.8535C143.048 11.2535 142.648 11.6535 142.448 12.0535L142.248 8.6535H136.548V34.7535H142.548V20.6535C142.548 19.7535 142.748 18.8535 143.048 18.0535C143.348 17.2535 143.748 16.6535 144.348 16.0535C144.848 15.5535 145.548 15.0535 146.248 14.7535C146.948 14.4535 147.748 14.3535 148.548 14.3535C149.148 14.3535 149.648 14.3535 150.048 14.4535C150.448 14.5535 150.848 14.6535 151.248 14.8535L152.448 8.7535C151.948 8.6535 151.448 8.5535 151.048 8.4535Z" fill="#CAD0DB"/>
<path d="M25.7475 0.553497H0.44751V7.4535H25.7475V0.553497Z" fill="#CAD0DB"/>
<path d="M19.4475 14.2535H0.44751V21.1535H19.4475V14.2535Z" fill="#CAD0DB"/>
<path d="M6.74751 27.9535H0.44751V34.7535H6.74751V27.9535Z" fill="#CAD0DB"/>
<path d="M147.048 1.2535H146.048V0.553497H148.848V1.2535H147.848V3.9535H147.048V1.2535Z" fill="#CAD0DB"/>
<path d="M149.248 0.553497H149.948L150.748 2.1535L151.548 0.553497H152.248L152.348 3.9535H151.648L151.548 1.7535L150.848 3.0535H150.448L149.748 1.7535L149.648 3.9535H148.948L149.248 0.553497Z" fill="#CAD0DB"/>
</svg>
