<svg width="152" height="44" viewBox="0 0 152 44" fill="none" xmlns="http://www.w3.org/2000/svg">
<path d="M26.8971 41.5134C34.1084 40.2395 40.0646 39.1854 40.133 39.1709L40.2573 39.1446L33.4491 31.0465C29.7046 26.5925 26.6409 22.9311 26.6409 22.9101C26.6409 22.8701 33.671 3.51097 33.7105 3.44214C33.7236 3.41916 38.5078 11.6787 45.3075 23.4641C51.6736 34.4978 56.9221 43.595 56.9708 43.6803L57.0595 43.8352L35.4225 43.8324L13.7855 43.8296C13.7857 43.8295 26.8971 41.5134 26.8971 41.5134ZM109.872 39.5548C106.579 39.3436 104.663 37.4683 104.155 33.9578C104.02 33.0239 104.02 32.9997 104.006 26.9375L103.993 21.0701H105.45H106.908L106.919 26.7454C106.93 31.8603 106.936 32.46 106.985 32.8199C107.184 34.2801 107.579 35.2621 108.251 35.9671C108.79 36.5312 109.42 36.8615 110.293 37.0368C110.704 37.1195 111.875 37.1197 112.25 37.0371C113.135 36.8426 113.843 36.4576 114.469 35.8324C115.181 35.1199 115.709 34.1091 115.964 32.966L116.05 32.5808L116.059 26.8575L116.069 21.1343H117.557H119.045V30.1315V39.1287H117.572H116.1V37.7012C116.1 36.7313 116.089 36.2773 116.066 36.2848C116.048 36.2909 115.973 36.4066 115.898 36.5418C115.391 37.4675 114.545 38.3139 113.619 38.8239C112.508 39.4351 111.394 39.6524 109.872 39.5548ZM143.302 39.5403C142.139 39.453 140.915 39.0532 139.915 38.4343C137.806 37.1299 136.558 34.9794 136.193 32.0204C136.066 30.9965 136.051 29.6211 136.156 28.7509C136.392 26.8069 137.156 24.8982 138.244 23.5357C138.523 23.1864 139.156 22.5539 139.505 22.2749C140.448 21.5218 141.551 20.9953 142.723 20.739C143.405 20.5896 144.607 20.5196 145.332 20.5868C147.154 20.7555 148.823 21.6134 149.958 22.9632C151.111 24.3346 151.744 26.2511 151.825 28.6107C151.838 28.9804 151.841 29.6288 151.832 30.0515L151.816 30.82L145.436 30.8281L139.057 30.8362V31.1209C139.057 31.9875 139.267 32.9746 139.632 33.8145C139.946 34.5387 140.486 35.3297 140.929 35.7123C141.837 36.4969 142.948 36.9668 144.164 37.0797C144.614 37.1216 145.763 37.0776 146.277 36.9985C147.742 36.7734 149.136 36.1985 150.261 35.3549C150.393 35.2557 150.52 35.1629 150.543 35.1487C150.576 35.1282 150.583 35.3874 150.582 36.4776L150.581 37.8319L150.28 38.0184C149.007 38.8055 147.549 39.3112 146.005 39.5004C145.544 39.5567 143.853 39.5817 143.302 39.5403ZM148.854 28.1174C148.854 26.6657 148.243 25.0531 147.377 24.2226C146.759 23.63 146.012 23.2678 145.124 23.1303C144.704 23.0651 143.819 23.0903 143.376 23.1798C142.44 23.3689 141.665 23.7806 140.99 24.4478C140.279 25.1503 139.746 26.0034 139.411 26.9754C139.29 27.3249 139.149 27.8987 139.106 28.218L139.085 28.3702H143.97H148.854V28.1174ZM62.3158 39.0883C62.3232 39.0663 64.4897 33.3751 67.13 26.4413L71.9306 13.8342L73.4731 13.8341L75.0156 13.834L75.1435 14.162C75.5346 15.165 84.7538 39.1009 84.7538 39.1132C84.7538 39.1214 84.0153 39.128 83.1128 39.1279L81.4719 39.1275L80.143 35.5897L78.8142 32.0521H73.4639H68.1137L68.0671 32.1721C68.0417 32.2383 67.4738 33.8301 66.8056 35.7096L65.5905 39.1269L63.946 39.1274C62.6452 39.1281 62.3052 39.1199 62.3158 39.0883ZM77.838 29.3527C77.838 29.347 76.9437 26.9228 75.8509 23.9656C73.8063 18.4331 73.6918 18.1002 73.5303 17.2119C73.4544 16.7954 73.4162 16.7838 73.3713 17.1638C73.3392 17.4355 73.1998 18.0432 73.0924 18.3805C73.039 18.5478 72.1183 21.0749 71.0463 23.9963C69.9742 26.9178 69.0971 29.3202 69.0971 29.3353C69.0971 29.3504 71.0638 29.3628 73.4676 29.3628C75.8714 29.3629 77.838 29.3583 77.838 29.3527ZM85.7465 38.6676V38.2069L91.0768 30.8792L96.4071 23.5515L91.5811 23.5355L86.7551 23.5196L86.7468 22.2948L86.7383 21.0701H93.7186H100.699V21.4838V21.8975L95.3679 29.2652C92.4358 33.3174 90.0369 36.6396 90.0369 36.6481C90.0369 36.6565 92.4069 36.6632 95.3039 36.6632H100.571V37.896V39.1288H93.1586H85.7463V38.6676H85.7465ZM124.862 39.1071C124.85 39.0954 124.841 35.0322 124.841 30.078V21.0701H126.297H127.754V22.9272C127.754 23.9486 127.767 24.7842 127.782 24.7842C127.797 24.7842 127.868 24.6169 127.939 24.4127C128.267 23.4763 128.835 22.6013 129.567 21.906C130.226 21.2795 130.98 20.905 131.869 20.7616C132.118 20.7213 132.33 20.7136 132.829 20.7268C133.457 20.7431 133.784 20.789 134.166 20.9137L134.286 20.953V22.4652V23.9774L133.942 23.8051C133.334 23.5008 132.734 23.3803 132.013 23.4178C131.543 23.4422 131.235 23.5024 130.86 23.6433C130.088 23.9331 129.462 24.4444 129.024 25.1426C128.391 26.1533 127.939 27.4523 127.805 28.6462C127.782 28.8606 127.768 30.6054 127.762 34.0456L127.754 39.1286H126.318C125.529 39.1283 124.874 39.1187 124.862 39.1071ZM0.93042 39.0438C0.93042 39.0324 4.13835 33.4636 8.05931 26.6686L15.1882 14.3143L23.4961 7.34234C28.0654 3.50769 31.8162 0.365767 31.8313 0.360022C31.8463 0.354276 31.7862 0.505532 31.6977 0.696186C31.6092 0.88684 27.5496 9.59396 22.6765 20.0457L13.8163 39.0484L7.37349 39.0564C3.82974 39.0609 0.93042 39.0552 0.93042 39.0438Z" fill="#CAD0DB"/>
</svg>
