<svg width="211" height="46" viewBox="0 0 211 46" fill="none" xmlns="http://www.w3.org/2000/svg">
<path d="M27.8191 5.52401C27.0721 6.64152 26.3867 7.88251 25.8125 9.20376C25.7446 9.36429 25.6644 9.53099 25.5965 9.69769L22.9663 9.04323C23.4417 8.04921 23.9912 7.09223 24.5777 6.22169C25.3804 5.02392 26.2818 3.9558 27.2202 3.10995C28.2143 2.20854 29.2639 1.55409 30.332 1.17129C31.1531 0.887287 31.9558 0.763813 32.746 0.831728C31.9681 1.21452 31.2025 1.74549 30.4678 2.41229C29.5293 3.27048 28.6403 4.32007 27.8253 5.52401H27.8191Z" fill="url(#paint0_linear_5_3414)"/>
<path d="M35.3762 28.9115C34.9687 29.2634 34.555 29.5783 34.1475 29.8376C33.7524 30.0969 33.3572 30.313 32.9621 30.4921C32.6102 30.6526 32.2521 30.7761 31.9125 30.8748C31.5853 30.9675 31.2581 31.0354 30.9308 31.0662C30.6159 31.1095 30.3011 31.1095 30.0047 31.0909C29.98 31.0909 29.9368 31.0909 29.9121 31.0786C30.2517 30.9181 30.5789 30.7267 30.9061 30.5168C31.3136 30.2451 31.7273 29.9426 32.1348 29.5906C32.5731 29.2202 32.993 28.8004 33.419 28.325C33.8697 27.8187 34.3204 27.2507 34.7526 26.6086C35.228 25.9109 35.6787 25.1762 36.0862 24.3736C36.5369 23.503 36.9567 22.5707 37.3272 21.5767C37.7347 20.5024 38.0742 19.3417 38.3644 18.1254C38.6669 16.8041 38.883 15.4273 38.9942 13.9949C39.1053 12.5626 39.0868 11.161 38.9509 9.80893C38.8028 8.3642 38.5126 7.01207 38.0804 5.8143C37.6173 4.54862 37.0061 3.48051 36.2405 2.65318C35.4626 1.79499 34.5488 1.2208 33.5239 0.973837C33.2646 0.905923 33.0053 0.862706 32.746 0.850358C33.0177 0.714529 33.3078 0.591043 33.5795 0.498432C34.6723 0.115639 35.7466 0.0353754 36.7591 0.294686C37.784 0.553997 38.6978 1.12819 39.4757 1.97403C40.2413 2.80753 40.8526 3.86948 41.3156 5.13516C41.754 6.33293 42.0503 7.68504 42.1862 9.12978C42.322 10.4819 42.3343 11.8834 42.2294 13.3158C42.1182 14.7358 41.9145 16.125 41.5996 17.4462C41.328 18.6625 40.9699 19.8047 40.5624 20.8976C40.1919 21.8916 39.7721 22.8177 39.3214 23.6944C38.9016 24.497 38.4508 25.2503 37.9693 25.9294C37.5309 26.5715 37.0802 27.1457 36.6357 27.6458C36.2405 28.1089 35.8145 28.5349 35.3823 28.9115H35.3762Z" fill="url(#paint1_linear_5_3414)"/>
<path d="M41.0315 37.6543C40.7722 36.401 40.2968 35.1044 39.6671 33.8079C39.0682 32.5916 38.3335 31.3938 37.4876 30.2331C37.3765 30.0849 37.2715 29.9491 37.1604 29.7947L39.0435 27.8438C39.6732 28.7575 40.2166 29.696 40.6796 30.6529C41.3217 31.9618 41.7848 33.2584 42.0441 34.4994C42.3157 35.8206 42.3713 37.0493 42.1676 38.1544C42.0009 39.0126 41.7045 39.7659 41.2538 40.4018C41.3217 39.5436 41.2415 38.6175 41.0377 37.6482L41.0315 37.6543Z" fill="url(#paint2_linear_5_3414)"/>
<path d="M33.2769 45.6863C32.0236 45.4703 30.7023 45.0442 29.3749 44.4454C28.1339 43.8835 26.9176 43.192 25.7198 42.3832C24.5468 41.5806 23.454 40.7039 22.4599 39.7778C21.5462 38.9319 20.725 38.0614 19.9903 37.16C19.3112 36.3388 18.7246 35.5115 18.1875 34.678C17.6936 33.9124 17.2737 33.153 16.9218 32.3997C16.5822 31.7021 16.3229 31.0229 16.1006 30.3808C15.8969 29.7819 15.7487 29.1954 15.6376 28.6336C15.5265 28.1026 15.4709 27.5963 15.4462 27.1086C15.4215 26.6455 15.4338 26.1825 15.4709 25.7441C15.5141 25.349 15.5635 24.997 15.6623 24.6389C15.7426 24.2994 15.8537 23.9845 15.9895 23.7005C16.113 23.4165 16.2612 23.1386 16.4279 22.8793C16.4402 22.8546 16.4711 22.8238 16.4834 22.7991C16.4587 23.1695 16.4587 23.5461 16.4711 23.9474C16.4958 24.4414 16.5514 24.9538 16.6625 25.4724C16.7736 26.0343 16.9218 26.6208 17.1255 27.2197C17.3416 27.8618 17.6195 28.541 17.9467 29.2386C18.2986 29.9857 18.7246 30.7513 19.2124 31.5169C19.7434 32.3504 20.3299 33.1777 21.0152 33.9988C21.7499 34.8879 22.5711 35.7708 23.4848 36.6166C24.4789 37.5427 25.5717 38.4195 26.7447 39.2221C27.9302 40.0247 29.1588 40.7224 30.3998 41.2842C31.721 41.8831 33.0299 42.3091 34.3018 42.5252C35.6231 42.7598 36.864 42.7598 37.9569 42.5129C39.0867 42.2659 40.0437 41.7658 40.7661 41.0126C40.9451 40.8212 41.118 40.6174 41.2723 40.4013C41.26 40.7162 41.2168 41.0126 41.1612 41.3028C40.9574 42.4326 40.482 43.4143 39.7597 44.1675C39.025 44.9146 38.0803 45.4209 36.9505 45.6802C35.8453 45.9271 34.6043 45.9271 33.2831 45.6925L33.2769 45.6863Z" fill="url(#paint3_linear_5_3414)"/>
<path d="M9.25977 29.9239C10.6119 30.0166 12.0134 29.9795 13.4458 29.8128C13.6248 29.8005 13.7977 29.7696 13.9768 29.7449L14.7238 32.3503C13.6187 32.4306 12.5259 32.443 11.4763 32.3627C10.0315 32.2701 8.66706 32.0231 7.45077 31.628C6.16657 31.2081 5.07993 30.634 4.22173 29.9116C3.56728 29.3498 3.06101 28.7138 2.72144 27.9915C3.4438 28.4669 4.28965 28.862 5.22811 29.1769C6.45675 29.572 7.80269 29.819 9.2536 29.9239H9.25977Z" fill="url(#paint4_linear_5_3414)"/>
<path d="M23.9849 11.2104C24.6147 11.3339 25.1827 11.4945 25.7322 11.6859C26.2385 11.8649 26.7139 12.0686 27.1522 12.2847C27.5721 12.5008 27.9549 12.7354 28.313 12.9948C28.6278 13.2294 28.9118 13.4578 29.1712 13.7048C29.4181 13.9517 29.6342 14.1987 29.8256 14.4518C30.017 14.7111 30.1775 14.9705 30.3195 15.2421C30.3319 15.2668 30.3442 15.2977 30.3628 15.3224C30.0602 15.1186 29.7207 14.9149 29.3811 14.7358C28.9427 14.5197 28.4673 14.316 27.961 14.137C27.4301 13.9456 26.8435 13.7974 26.2138 13.6616C25.547 13.5257 24.8246 13.4269 24.059 13.359C23.2255 13.2911 22.355 13.2788 21.4536 13.3158C20.4719 13.359 19.447 13.464 18.4098 13.6307C17.2614 13.8221 16.0945 14.0937 14.9214 14.4642C13.6249 14.8593 12.316 15.3656 11.0379 15.9892C9.74136 16.6189 8.53125 17.3228 7.43844 18.1192C6.26537 18.9651 5.24047 19.8912 4.42549 20.8729C3.5673 21.9101 2.93754 22.9721 2.59797 24.0525C2.24605 25.1577 2.20283 26.232 2.50536 27.2445C2.57327 27.5038 2.67206 27.7508 2.78937 27.9792C2.53006 27.8125 2.28309 27.6273 2.067 27.4359C1.19646 26.6888 0.579049 25.7998 0.295042 24.7934C0.011035 23.787 0.0480803 22.7066 0.387654 21.6014C0.727228 20.5271 1.34463 19.459 2.21518 18.4218C3.03633 17.4401 4.05505 16.514 5.22812 15.6681C6.33328 14.8778 7.5434 14.1678 8.82761 13.5381C10.1118 12.9268 11.4207 12.4082 12.7111 12.0131C13.8965 11.6426 15.0696 11.371 16.1994 11.1796C17.249 11.0005 18.2616 10.8956 19.2433 10.8524C20.1447 10.8091 21.0152 10.8277 21.8487 10.8956C22.6143 10.9758 23.3243 11.0746 23.9911 11.2104H23.9849Z" fill="url(#paint5_linear_5_3414)"/>
<path d="M204.422 36.3266C203.928 36.3266 203.453 36.2587 203.002 36.1167C202.551 35.9747 202.187 35.7956 201.922 35.5672L202.329 34.6473C202.582 34.851 202.897 35.0177 203.274 35.1474C203.644 35.2832 204.027 35.3511 204.422 35.3511C204.755 35.3511 205.021 35.3141 205.231 35.24C205.441 35.1721 205.589 35.0733 205.682 34.9498C205.78 34.8263 205.83 34.6843 205.83 34.5238C205.83 34.3324 205.762 34.178 205.626 34.0607C205.484 33.9372 205.305 33.8446 205.089 33.7767C204.867 33.7088 204.62 33.6409 204.354 33.5791C204.083 33.5174 203.817 33.4495 203.545 33.3692C203.274 33.2828 203.033 33.1778 202.811 33.0543C202.588 32.9247 202.409 32.7518 202.273 32.5296C202.131 32.3135 202.064 32.0356 202.064 31.696C202.064 31.3565 202.156 31.0354 202.341 30.7514C202.527 30.4612 202.811 30.2328 203.187 30.0599C203.564 29.887 204.039 29.8006 204.626 29.8006C205.002 29.8006 205.385 29.85 205.762 29.9488C206.138 30.0476 206.466 30.1834 206.737 30.3686L206.367 31.2824C206.083 31.1095 205.787 30.986 205.484 30.9058C205.181 30.8255 204.891 30.7823 204.613 30.7823C204.286 30.7823 204.027 30.8193 203.823 30.8996C203.619 30.9799 203.471 31.0848 203.379 31.2083C203.286 31.338 203.237 31.48 203.237 31.6467C203.237 31.8381 203.305 31.9924 203.44 32.1159C203.576 32.2332 203.755 32.3258 203.971 32.3875C204.194 32.4555 204.441 32.5172 204.712 32.5851C204.984 32.6469 205.256 32.7209 205.521 32.795C205.793 32.8753 206.034 32.9803 206.256 33.1099C206.478 33.2334 206.657 33.4063 206.793 33.6224C206.929 33.8385 206.997 34.1163 206.997 34.4497C206.997 34.7831 206.904 35.1041 206.719 35.3881C206.534 35.6783 206.25 35.9068 205.867 36.0796C205.49 36.2525 205.009 36.339 204.428 36.339L204.422 36.3266ZM199.335 36.234H198.155V33.7273L198.421 34.4559L195.661 29.8932H196.927L199.137 33.5668H198.427L200.656 29.8932H201.817L199.057 34.4559L199.328 33.7273V36.234H199.335ZM194.667 34.7707H190.604L190.919 33.8446H194.346L194.661 34.7707H194.667ZM190.506 36.234H189.289L192.148 29.8871H193.309L196.174 36.234H194.939L192.488 30.5168H192.957L190.506 36.234ZM182.912 36.234H181.652L179.547 29.8871H180.769L182.646 35.6289H182.035L183.986 29.8871H185.073L186.968 35.6289H186.381L188.308 29.8871H189.431L187.326 36.234H186.079L184.344 31.0601H184.671L182.912 36.234ZM179.67 36.234H175.169V29.8871H176.349V35.24H179.67V36.2402V36.234ZM172.86 34.7707H168.798L169.113 33.8446H172.539L172.854 34.7707H172.86ZM168.699 36.234H167.483L170.341 29.8871H171.502L174.367 36.234H173.132L170.681 30.5168H171.15L168.699 36.234ZM163.994 37.6046H163.26L163.791 35.5981L163.939 36.271C163.729 36.271 163.55 36.2031 163.408 36.0735C163.266 35.9438 163.198 35.7648 163.198 35.5425C163.198 35.3202 163.266 35.1288 163.408 34.993C163.55 34.8572 163.723 34.7893 163.926 34.7893C164.13 34.7893 164.315 34.8572 164.457 34.9992C164.593 35.135 164.661 35.3202 164.661 35.5425C164.661 35.6042 164.661 35.666 164.649 35.7339C164.636 35.8018 164.618 35.8821 164.587 35.9747C164.556 36.0673 164.519 36.1784 164.457 36.3143L163.994 37.5923V37.6046ZM158.678 30.8811V35.2461H162.259V36.234H157.499V29.8871H162.136V30.8811H158.678ZM158.586 33.4989V32.5296H161.747V33.4989H158.586ZM153.764 36.3266C153.264 36.3266 152.795 36.2587 152.338 36.1167C151.881 35.9747 151.523 35.7956 151.257 35.5672L151.665 34.6473C151.918 34.851 152.233 35.0177 152.609 35.1474C152.986 35.2832 153.369 35.3511 153.764 35.3511C154.097 35.3511 154.363 35.3141 154.573 35.24C154.776 35.1721 154.931 35.0733 155.023 34.9498C155.122 34.8263 155.172 34.6843 155.172 34.5238C155.172 34.3324 155.104 34.178 154.962 34.0607C154.826 33.9372 154.647 33.8446 154.424 33.7767C154.202 33.7088 153.955 33.6409 153.69 33.5791C153.418 33.5174 153.153 33.4495 152.881 33.3692C152.609 33.2828 152.368 33.1778 152.146 33.0543C151.93 32.9247 151.751 32.7518 151.609 32.5296C151.473 32.3135 151.405 32.0356 151.405 31.696C151.405 31.3565 151.498 31.0354 151.683 30.7514C151.868 30.4612 152.146 30.2328 152.523 30.0599C152.899 29.887 153.381 29.8006 153.961 29.8006C154.344 29.8006 154.721 29.85 155.097 29.9488C155.474 30.0476 155.801 30.1834 156.079 30.3686L155.709 31.2824C155.425 31.1095 155.128 30.986 154.826 30.9058C154.523 30.8255 154.233 30.7823 153.961 30.7823C153.634 30.7823 153.369 30.8193 153.165 30.8996C152.961 30.9799 152.813 31.0848 152.72 31.2083C152.628 31.338 152.578 31.48 152.578 31.6467C152.578 31.8381 152.646 31.9924 152.782 32.1159C152.918 32.2332 153.097 32.3258 153.319 32.3875C153.535 32.4555 153.782 32.5172 154.054 32.5851C154.326 32.653 154.597 32.7209 154.863 32.795C155.134 32.8753 155.381 32.9803 155.598 33.1099C155.82 33.2334 155.999 33.4063 156.129 33.6224C156.264 33.8385 156.332 34.1163 156.332 34.4497C156.332 34.7831 156.24 35.1041 156.054 35.3881C155.869 35.6783 155.585 35.9068 155.209 36.0796C154.826 36.2525 154.344 36.339 153.77 36.339L153.764 36.3266ZM150.084 36.234H148.905V29.8871H150.084V36.234ZM145.91 36.234H144.731V30.8811H142.626V29.8809H148.01V30.8811H145.91V36.234ZM138.082 30.3069V33.9805L137.557 33.4186H139.459C139.977 33.4186 140.372 33.3075 140.632 33.079C140.891 32.8568 141.027 32.5419 141.027 32.1468C141.027 31.7516 140.897 31.4306 140.632 31.2083C140.372 30.9922 139.977 30.8811 139.459 30.8811H137.557L138.082 30.3007V30.3069ZM142.329 36.234H141.058L139.452 33.9311H140.712L142.329 36.234ZM138.082 36.234H136.902V29.8871H139.514C140.076 29.8871 140.557 29.9797 140.959 30.1587C141.36 30.3378 141.669 30.6032 141.885 30.9366C142.101 31.2762 142.212 31.6775 142.212 32.1468C142.212 32.616 142.101 33.0111 141.885 33.3445C141.669 33.6779 141.36 33.9372 140.959 34.1163C140.557 34.2953 140.076 34.3818 139.514 34.3818H137.557L138.082 33.8508V36.234ZM132.006 30.8811V35.2461H135.587V36.234H130.827V29.8871H135.464V30.8811H132.006ZM131.914 33.4989V32.5296H135.075V33.4989H131.914ZM125.517 30.3069V33.9805L124.986 33.4124H126.888C127.407 33.4124 127.802 33.3013 128.061 33.079C128.327 32.8568 128.456 32.5481 128.456 32.1529C128.456 31.7578 128.327 31.4367 128.061 31.2145C127.802 30.9984 127.407 30.8872 126.888 30.8872H124.986L125.517 30.3069ZM125.517 36.234H124.338V29.8871H126.95C127.512 29.8871 127.993 29.9797 128.395 30.1587C128.796 30.3378 129.111 30.6032 129.327 30.9366C129.543 31.2762 129.648 31.6775 129.648 32.1468C129.648 32.616 129.543 33.0111 129.327 33.3507C129.111 33.6903 128.796 33.9496 128.395 34.1286C127.993 34.3077 127.512 34.4003 126.95 34.4003H124.993L125.524 33.8446V36.2278L125.517 36.234ZM118.831 36.234H117.491L120.165 32.5542V33.4433L117.615 29.8871H118.942L120.844 32.5172L120.3 32.5296L122.177 29.8871H123.455L120.924 33.3754V32.5234L123.616 36.234H122.258L120.263 33.4433H120.8L118.831 36.234ZM113.435 30.8811V35.2461H117.016V36.234H112.256V29.8871H116.892V30.8811H113.435ZM113.342 33.4989V32.5296H116.497V33.4989H113.342ZM108.946 36.234H107.563L105.137 33.3445L105.915 32.4802L108.94 36.234H108.946ZM104.322 36.234H103.143V29.8871H104.322V36.234ZM105.365 33.5421L104.198 34.7337L104.13 33.3384L107.458 29.8809H108.786L106.02 32.8259L105.365 33.5421ZM99.4938 36.3204C99.0122 36.3204 98.5615 36.2402 98.1416 36.0858C97.728 35.9253 97.3699 35.6969 97.0612 35.4067C96.7525 35.1103 96.5179 34.7646 96.3512 34.3694C96.1783 33.9681 96.0919 33.5359 96.0919 33.0605C96.0919 32.5851 96.1783 32.1529 96.3512 31.7578C96.5179 31.3565 96.7586 31.0107 97.0674 30.7205C97.3761 30.4304 97.7342 30.2019 98.1478 30.0414C98.5615 29.8809 99.0122 29.8006 99.4999 29.8006C100.019 29.8006 100.494 29.8932 100.926 30.0723C101.358 30.2513 101.716 30.5168 102.013 30.8626L101.253 31.5787C101.019 31.3318 100.766 31.1466 100.482 31.0231C100.198 30.8996 99.8889 30.8379 99.5555 30.8379C99.2221 30.8379 98.9196 30.8934 98.6417 30.9984C98.3639 31.1033 98.1293 31.2577 97.9256 31.4614C97.7218 31.659 97.5675 31.8936 97.4502 32.1653C97.339 32.4369 97.2835 32.7333 97.2835 33.0605C97.2835 33.3877 97.339 33.6903 97.4502 33.9619C97.5613 34.2336 97.7218 34.4682 97.9256 34.6658C98.1293 34.8633 98.3639 35.0177 98.6417 35.1288C98.9196 35.2338 99.2221 35.2894 99.5555 35.2894C99.8889 35.2894 100.198 35.2276 100.482 35.1041C100.766 34.9807 101.019 34.7893 101.253 34.5423L102.013 35.2647C101.716 35.6042 101.352 35.8697 100.926 36.0488C100.5 36.2278 100.019 36.3204 99.4938 36.3204ZM94.3322 34.7646H90.2697L90.5846 33.8385H94.0112L94.3261 34.7646H94.3322ZM90.1709 36.2278H88.9546L91.8132 29.8809H92.974L95.8387 36.2278H94.6039L92.1528 30.5106H92.622L90.1709 36.2278ZM87.1765 36.2278H85.9973V30.8749H83.8981V29.8747H89.2819V30.8749H87.1765V36.2278ZM81.0642 36.3204C80.5641 36.3204 80.0948 36.2525 79.638 36.1105C79.1811 35.9685 78.823 35.7895 78.5575 35.561L78.965 34.6411C79.2181 34.8448 79.533 35.0115 79.9096 35.1412C80.2862 35.277 80.669 35.3449 81.0642 35.3449C81.3976 35.3449 81.6631 35.3079 81.873 35.2338C82.0767 35.1659 82.2311 35.0671 82.3237 34.9436C82.4225 34.8201 82.4719 34.6781 82.4719 34.5176C82.4719 34.3262 82.4039 34.1719 82.2681 34.0545C82.1261 33.9311 81.9471 33.8384 81.7248 33.7705C81.5087 33.7026 81.2617 33.6347 80.9963 33.573C80.7246 33.5112 80.4591 33.4433 80.1875 33.363C79.9158 33.2766 79.6688 33.1717 79.4527 33.0482C79.2305 32.9185 79.0514 32.7456 78.9156 32.5234C78.7736 32.3073 78.7057 32.0295 78.7057 31.6899C78.7057 31.3503 78.7983 31.0293 78.9835 30.7452C79.1687 30.4551 79.4466 30.2266 79.8232 30.0538C80.1998 29.8809 80.6814 29.7944 81.2617 29.7944C81.6384 29.7944 82.0212 29.8438 82.3978 29.9426C82.7682 30.0414 83.0954 30.1772 83.3733 30.3625L83.0028 31.2762C82.7188 31.1033 82.4286 30.9799 82.1261 30.8996C81.8236 30.8193 81.5334 30.7761 81.2556 30.7761C80.9283 30.7761 80.669 30.8132 80.4653 30.8934C80.2615 30.9737 80.1134 31.0786 80.0146 31.2021C79.922 31.3318 79.8726 31.4738 79.8726 31.6405C79.8726 31.8319 79.9405 31.9862 80.0763 32.1097C80.2122 32.227 80.3912 32.3196 80.6073 32.3814C80.8296 32.4493 81.0765 32.511 81.3482 32.5789C81.6198 32.6469 81.8915 32.7148 82.157 32.7889C82.4286 32.8691 82.6694 32.9741 82.8917 33.1037C83.1078 33.2272 83.2868 33.4001 83.4227 33.6162C83.5585 33.8323 83.6264 34.1101 83.6264 34.4435C83.6264 34.7769 83.5338 35.098 83.3548 35.382C83.1695 35.6721 82.8855 35.9006 82.5027 36.0735C82.1261 36.2463 81.6445 36.3328 81.0642 36.3328V36.3204ZM77.8784 34.1842H75.384V33.2396H77.8784V34.1842ZM74.8531 36.2278H70.3522V29.8809H71.5314V35.2338H74.8531V36.234V36.2278ZM69.4199 36.2278H64.919V29.8809H66.0982V35.2338H69.4199V36.234V36.2278ZM60.4983 36.3204C59.6278 36.3204 58.9425 36.0796 58.4547 35.5919C57.9608 35.1041 57.7138 34.3941 57.7138 33.468V29.8871H58.8931V33.4248C58.8931 34.0792 59.0351 34.5546 59.3191 34.851C59.5969 35.1474 59.9921 35.2955 60.5107 35.2955C61.0293 35.2955 61.4183 35.1474 61.7023 34.851C61.9863 34.5546 62.1221 34.0792 62.1221 33.4248V29.8871H63.2829V33.468C63.2829 34.3941 63.0359 35.1041 62.5481 35.5919C62.0542 36.0796 61.3751 36.3204 60.5107 36.3204H60.4983ZM53.1697 30.8749V36.2278H51.9905V29.8809H56.6272V30.8749H53.1697ZM53.0709 33.8014V32.8012H56.2382V33.8014H53.0709Z" fill="white"/>
<path d="M198.686 12.8094V22.6509H202.039C203.095 22.6509 204.015 22.4533 204.792 22.052C205.57 21.6507 206.175 21.0827 206.608 20.3418C207.04 19.6009 207.25 18.7365 207.25 17.7363C207.25 16.7361 207.034 15.847 206.608 15.1185C206.182 14.39 205.57 13.822 204.792 13.4206C204.015 13.0193 203.095 12.8156 202.039 12.8156H198.686V12.8094ZM202.224 25.6638H195.013V9.79645H202.224C203.947 9.79645 205.465 10.1237 206.781 10.7843C208.096 11.4388 209.127 12.3587 209.861 13.5379C210.602 14.7172 210.973 16.1187 210.973 17.7363C210.973 19.3539 210.602 20.7307 209.861 21.9162C209.12 23.1016 208.096 24.0215 206.781 24.6821C205.465 25.3428 203.947 25.67 202.224 25.67V25.6638ZM187.962 25.6638H184.288V12.7847H179.213V9.79028H193.043V12.7847H187.968V25.6638H187.962ZM180.417 25.6638H168.791V9.79645H172.459V22.6756H180.417V25.67V25.6638ZM155.32 25.6638H151.646V12.7847H146.565V9.79028H160.395V12.7847H155.313V25.6638H155.32ZM144.602 25.6638H140.928V9.79645H144.602V25.6638ZM125.258 25.9355C123.986 25.9355 122.77 25.7688 121.609 25.4292C120.442 25.0896 119.504 24.6451 118.8 24.1018L120.047 21.3358C120.726 21.8174 121.529 22.2187 122.461 22.5274C123.387 22.8361 124.326 22.9904 125.283 22.9904C126.005 22.9904 126.592 22.9163 127.042 22.7743C127.487 22.6323 127.814 22.4286 128.024 22.1755C128.234 21.9162 128.339 21.6198 128.339 21.2864C128.339 20.8604 128.172 20.527 127.839 20.28C127.505 20.0331 127.067 19.8293 126.524 19.6688C125.981 19.5083 125.382 19.3539 124.727 19.2181C124.067 19.0761 123.412 18.897 122.751 18.6871C122.091 18.4772 121.492 18.2055 120.949 17.8721C120.405 17.5387 119.961 17.1004 119.621 16.5571C119.282 16.0137 119.115 15.3161 119.115 14.4702C119.115 13.5626 119.362 12.7353 119.85 11.9882C120.337 11.2412 121.078 10.6423 122.072 10.1978C123.06 9.75324 124.307 9.5248 125.801 9.5248C126.802 9.5248 127.783 9.6421 128.746 9.87672C129.716 10.1113 130.568 10.4571 131.309 10.9325L130.173 13.717C129.432 13.291 128.691 12.9823 127.95 12.7785C127.209 12.5748 126.487 12.4698 125.777 12.4698C125.067 12.4698 124.48 12.5501 124.03 12.7168C123.579 12.8835 123.252 13.0996 123.06 13.3651C122.863 13.6244 122.764 13.9331 122.764 14.2788C122.764 14.6863 122.931 15.0135 123.264 15.2667C123.597 15.5136 124.036 15.7174 124.585 15.8656C125.128 16.0137 125.727 16.1681 126.382 16.3163C127.042 16.4645 127.697 16.6373 128.358 16.8349C129.012 17.0325 129.611 17.2979 130.154 17.6313C130.704 17.9647 131.142 18.4031 131.482 18.9464C131.821 19.4897 131.988 20.1751 131.988 21.0086C131.988 21.9038 131.735 22.7188 131.235 23.4597C130.735 24.2006 129.994 24.7994 129.006 25.2501C128.018 25.7009 126.765 25.9293 125.252 25.9293L125.258 25.9355ZM108.601 22.8052C109.311 22.8052 109.965 22.6817 110.558 22.441C111.157 22.2002 111.681 21.8544 112.132 21.3975C112.583 20.9407 112.935 20.4097 113.188 19.7861C113.435 19.1687 113.558 18.4834 113.558 17.724C113.558 16.9646 113.435 16.2792 113.188 15.6556C112.941 15.0382 112.589 14.5011 112.144 14.0504C111.7 13.5997 111.175 13.2478 110.57 13.007C109.965 12.7662 109.311 12.6427 108.601 12.6427C107.89 12.6427 107.236 12.7662 106.643 13.007C106.044 13.2478 105.52 13.5935 105.069 14.0504C104.618 14.5011 104.266 15.0382 104.013 15.6556C103.76 16.2792 103.637 16.9646 103.637 17.724C103.637 18.4834 103.76 19.144 104.013 19.7737C104.26 20.4035 104.612 20.9407 105.057 21.3975C105.501 21.8482 106.026 22.2002 106.631 22.441C107.236 22.6817 107.897 22.8052 108.607 22.8052H108.601ZM108.619 25.9355C107.366 25.9355 106.205 25.7317 105.143 25.3181C104.075 24.9106 103.155 24.3364 102.377 23.5955C101.599 22.8546 100.994 21.9902 100.562 20.99C100.13 19.9898 99.9136 18.9032 99.9136 17.724C99.9136 16.5447 100.13 15.4581 100.562 14.4579C100.994 13.4577 101.599 12.5933 102.383 11.8462C103.167 11.1054 104.093 10.5312 105.149 10.1237C106.205 9.71619 107.353 9.51245 108.594 9.51245C109.835 9.51245 110.996 9.71619 112.052 10.1237C113.101 10.5312 114.021 11.1054 114.799 11.8462C115.577 12.5871 116.182 13.4577 116.621 14.4455C117.059 15.4334 117.275 16.5262 117.275 17.7178C117.275 18.9094 117.059 19.9898 116.621 20.99C116.182 21.9964 115.571 22.867 114.799 23.6017C114.021 24.3364 113.108 24.9044 112.052 25.3119C111.002 25.7194 109.854 25.9293 108.619 25.9293V25.9355ZM99.1233 25.6638H87.4914V9.79645H91.1711V22.6756H99.1233V25.67V25.6638ZM81.7124 22.2619H71.5808L72.5501 19.4712H80.7122L81.7124 22.2619ZM71.8031 25.6638H68.0369L75.1124 9.79645H78.7427L85.8367 25.6638H81.9841L76.1805 11.6549H77.6314L71.8031 25.6638ZM62.4617 25.6638H58.8313L51.9905 9.79645H55.9542L61.9369 23.8548H59.5969L65.6722 9.79645H69.3273L62.4555 25.6638H62.4617Z" fill="white"/>
<defs>
<linearGradient id="paint0_linear_5_3414" x1="-8.36412" y1="33.5694" x2="19.5792" y2="-6.40007" gradientUnits="userSpaceOnUse">
<stop stop-color="#0072FF"/>
<stop offset="1" stop-color="#00FFFF"/>
</linearGradient>
<linearGradient id="paint1_linear_5_3414" x1="1.17454" y1="40.2384" x2="29.1179" y2="0.269011" gradientUnits="userSpaceOnUse">
<stop stop-color="#0072FF"/>
<stop offset="1" stop-color="#00FFFF"/>
</linearGradient>
<linearGradient id="paint2_linear_5_3414" x1="14.5332" y1="49.5774" x2="42.476" y2="9.60851" gradientUnits="userSpaceOnUse">
<stop stop-color="#0072FF"/>
<stop offset="1" stop-color="#00FFFF"/>
</linearGradient>
<linearGradient id="paint3_linear_5_3414" x1="5.98135" y1="43.5985" x2="33.9247" y2="3.62909" gradientUnits="userSpaceOnUse">
<stop stop-color="#0072FF"/>
<stop offset="1" stop-color="#00FFFF"/>
</linearGradient>
<linearGradient id="paint4_linear_5_3414" x1="-9.27947" y1="32.9297" x2="18.6639" y2="-7.03971" gradientUnits="userSpaceOnUse">
<stop stop-color="#0072FF"/>
<stop offset="1" stop-color="#00FFFF"/>
</linearGradient>
<linearGradient id="paint5_linear_5_3414" x1="-10.5182" y1="32.0635" x2="17.4251" y2="-7.90595" gradientUnits="userSpaceOnUse">
<stop stop-color="#0072FF"/>
<stop offset="1" stop-color="#00FFFF"/>
</linearGradient>
</defs>
</svg>
