<svg width="121" height="120" viewBox="0 0 121 120" fill="none" xmlns="http://www.w3.org/2000/svg">
<path d="M86.7479 9.50054C83.8823 11.6952 81.0626 14.2582 78.451 17.1226C78.1383 17.4723 77.7892 17.8268 77.4711 18.1922L71.4428 14.2299C73.5167 12.1127 75.7439 10.1546 77.9877 8.44898C81.0639 6.09841 84.2735 4.16432 87.3795 2.82872C90.6743 1.40007 93.8902 0.648987 96.9121 0.606046C99.2263 0.599215 101.352 0.985117 103.277 1.84777C100.984 2.14395 98.591 2.82835 96.1553 3.88567C93.0383 5.25273 89.8761 7.15042 86.7634 9.50593L86.7479 9.50054Z" fill="url(#paint0_linear_4_2908)"/>
<path d="M85.0377 75.6686C83.7026 76.2095 82.3848 76.6505 81.1317 76.9555C79.9096 77.2712 78.7257 77.4768 77.5746 77.588C76.5485 77.6898 75.5396 77.6918 74.5992 77.6471C73.6952 77.5975 72.813 77.4849 71.9637 77.278C71.1344 77.1133 70.3434 76.8385 69.6153 76.5327C69.5533 76.5111 69.4447 76.4734 69.3936 76.4204C70.3887 76.3078 71.3801 76.1059 72.3879 75.8567C73.6519 75.5203 74.9588 75.1107 76.2939 74.5699C77.7229 74.0088 79.1491 73.3058 80.64 72.4666C82.2202 71.5703 83.8551 70.5168 85.509 69.2584C87.3206 67.8961 89.103 66.4179 90.8369 64.729C92.7394 62.9049 94.6191 60.8965 96.4293 58.6878C98.4035 56.3069 100.284 53.6466 102.089 50.8017C104.018 47.7001 105.779 44.3816 107.326 40.83C108.873 37.2784 110.066 33.6922 110.921 30.1295C111.828 26.3201 112.295 22.6227 112.269 19.1945C112.226 15.5664 111.635 12.3123 110.444 9.53679C109.249 6.67188 107.462 4.41186 105.106 2.88838C104.514 2.48909 103.901 2.15271 103.261 1.89496C104.063 1.78604 104.902 1.72474 105.666 1.72591C108.75 1.70452 111.52 2.43758 113.834 3.98174C116.179 5.53667 117.967 7.79669 119.173 10.6301C120.358 13.4214 120.954 16.6598 120.997 20.2879C121.039 23.7215 120.587 27.4242 119.65 31.2229C118.794 34.7856 117.585 38.3663 116.054 41.9234C114.518 45.4435 112.777 48.8043 110.817 51.895C109.059 54.7561 107.148 57.3531 105.158 59.7811C103.347 61.9899 101.473 63.9825 99.5652 65.8224C97.8003 67.5005 96.0015 69.0259 94.1908 70.3355C92.5213 71.5886 90.881 72.6579 89.3218 73.5438C87.9194 74.3785 86.4722 75.0919 85.0532 75.674L85.0377 75.6686Z" fill="url(#paint1_linear_4_2908)"/>
<path d="M91.5092 102.873C91.9668 99.4544 91.9198 95.7369 91.485 91.8847C91.0568 88.2639 90.2709 84.5717 89.1731 80.8769C89.025 80.4025 88.8815 79.9649 88.7389 79.4747L95.1959 76.1484C95.9694 79.0255 96.5039 81.8902 96.8204 84.7319C97.2753 88.6263 97.2912 92.3331 96.8446 95.7205C96.3579 99.3231 95.4103 102.501 93.9205 105.138C92.7424 107.179 91.3314 108.839 89.6364 110.066C90.5664 107.939 91.1842 105.51 91.5301 102.863L91.5092 102.873Z" fill="url(#paint2_linear_4_2908)"/>
<path d="M64.9207 116.566C61.9633 114.922 59.0211 112.684 56.2163 110C53.5959 107.486 51.1523 104.663 48.859 101.558C46.6222 98.4895 44.6527 95.3027 42.975 92.0762C41.428 89.1242 40.1354 86.1901 39.0874 83.2528C38.1078 80.5685 37.3664 77.9492 36.7546 75.3573C36.1912 72.9762 35.8085 70.6754 35.5909 68.4496C35.3552 66.3761 35.3047 64.4199 35.3145 62.5903C35.3326 60.887 35.4794 59.2637 35.6974 57.7355C35.888 56.2861 36.1964 54.948 36.566 53.684C36.9137 52.4829 37.3544 51.3142 37.8354 50.2299C38.2936 49.2611 38.7291 48.4078 39.2941 47.5818C39.7962 46.7869 40.354 46.0818 40.9466 45.4769C41.5081 44.8613 42.1262 44.2829 42.7744 43.7678C42.8273 43.7157 42.9321 43.664 42.985 43.6118C42.5952 44.5339 42.2619 45.4932 41.9378 46.5263C41.5628 47.806 41.249 49.1598 41.0692 50.5778C40.8513 52.1059 40.7045 53.7293 40.6864 55.4326C40.6611 57.2568 40.7581 59.2292 40.9628 61.2919C41.1858 63.5019 41.5786 65.8238 42.1265 68.1996C42.7228 70.7861 43.4642 73.4053 44.4592 76.0951C45.5182 79.0009 46.7999 81.9665 48.3469 84.9185C50.0246 88.1449 51.9941 91.3318 54.2308 94.4C56.4986 97.479 58.9678 100.328 61.5882 102.842C64.3774 105.521 67.2886 107.748 70.2925 109.409C73.4041 111.159 76.5217 112.242 79.4855 112.567C82.5424 112.924 85.389 112.485 87.8702 111.197C88.4894 110.866 89.104 110.498 89.6829 110.082C89.3733 110.873 89.0025 111.59 88.6061 112.281C87.0945 114.981 85.0316 117.067 82.5503 118.355C80.0436 119.617 77.2225 120.082 74.1547 119.757C71.1598 119.421 68.0423 118.338 64.9307 116.588L64.9207 116.566Z" fill="url(#paint3_linear_4_2908)"/>
<path d="M18.5335 55.4567C21.8483 56.8725 25.4019 58.0012 29.1478 58.8266C29.6085 58.9514 30.0701 59.0237 30.5417 59.117L30.113 66.4057C27.2656 65.6457 24.5094 64.7234 21.9437 63.603C18.3962 62.1063 15.187 60.2865 12.4811 58.2186C9.62651 56.0285 7.40479 53.6176 5.88807 51.0286C4.74114 49.0263 4.03201 46.9647 3.81815 44.8283C5.21217 46.6696 6.98743 48.4143 9.06636 50.0354C11.8032 52.1141 14.9659 53.9177 18.518 55.4513L18.5335 55.4567Z" fill="url(#paint4_linear_4_2908)"/>
<path d="M72.0999 20.6444C73.5727 21.5085 74.8576 22.4131 76.0687 23.3802C77.1821 24.2781 78.1961 25.2119 79.1061 26.1449C79.9696 27.0617 80.7236 27.9934 81.3937 28.9664C81.9771 29.8388 82.4885 30.6686 82.9214 31.5239C83.3233 32.3685 83.6476 33.1862 83.9044 33.998C84.1558 34.8256 84.3296 35.6262 84.4459 36.4421C84.4551 36.5158 84.4588 36.6052 84.4835 36.6842C83.9038 35.9012 83.231 35.0859 82.5364 34.3335C81.6264 33.4005 80.6124 32.4667 79.4989 31.5688C78.3344 30.6179 76.9921 29.7286 75.5302 28.833C73.9753 27.9051 72.248 27.0231 70.3849 26.182C68.3511 25.2816 66.175 24.4904 63.8778 23.7982C61.3734 23.0516 58.7058 22.4245 55.9526 21.944C52.8983 21.4293 49.7265 21.103 46.4518 21.0229C42.845 20.8979 39.1089 21.0452 35.3464 21.5183C31.5321 21.991 27.8692 22.7278 24.4192 23.8029C20.7238 24.9338 17.3296 26.3984 14.4136 28.1877C11.3398 30.0809 8.81812 32.2363 7.00899 34.6922C5.14699 37.2002 4.08782 39.8989 3.95185 42.7421C3.89301 43.4619 3.92264 44.1772 4.0152 44.8615C3.51127 44.2106 3.05476 43.5232 2.68126 42.8471C1.15537 40.1845 0.391055 37.381 0.568091 34.5697C0.745127 31.7584 1.79425 29.0385 3.62524 26.5197C5.4289 24.0796 7.92506 21.8977 11.0298 20.0153C13.9613 18.2313 17.34 16.7613 21.0354 15.6304C24.511 14.5819 28.1793 13.8293 31.9627 13.3459C35.7297 12.9096 39.4768 12.7308 43.068 12.8504C46.3738 12.9413 49.5611 13.273 52.5689 13.7715C55.364 14.2314 58.0006 14.8477 60.5049 15.5943C62.8077 16.2708 64.9782 17.0777 67.012 17.9781C68.8643 18.8506 70.5605 19.7219 72.1154 20.6498L72.0999 20.6444Z" fill="url(#paint5_linear_4_2908)"/>
<defs>
<linearGradient id="paint0_linear_4_2908" x1="-386.797" y1="445.748" x2="-1.76094" y2="-59.6258" gradientUnits="userSpaceOnUse">
<stop stop-color="#0072FF"/>
<stop offset="1" stop-color="#00FFFF"/>
</linearGradient>
<linearGradient id="paint1_linear_4_2908" x1="-280.045" y1="156.614" x2="-221.092" y2="-56.2683" gradientUnits="userSpaceOnUse">
<stop stop-color="#0072FF"/>
<stop offset="1" stop-color="#00FFFF"/>
</linearGradient>
<linearGradient id="paint2_linear_4_2908" x1="-533.514" y1="210.856" x2="-385.58" y2="-312.378" gradientUnits="userSpaceOnUse">
<stop stop-color="#0072FF"/>
<stop offset="1" stop-color="#00FFFF"/>
</linearGradient>
<linearGradient id="paint3_linear_4_2908" x1="-44.0641" y1="110.235" x2="104.889" y2="-81.9013" gradientUnits="userSpaceOnUse">
<stop stop-color="#0072FF"/>
<stop offset="1" stop-color="#00FFFF"/>
</linearGradient>
<linearGradient id="paint4_linear_4_2908" x1="-121.069" y1="144.644" x2="544.299" y2="-209.839" gradientUnits="userSpaceOnUse">
<stop stop-color="#0072FF"/>
<stop offset="1" stop-color="#00FFFF"/>
</linearGradient>
<linearGradient id="paint5_linear_4_2908" x1="-33.6994" y1="44.5815" x2="72.8567" y2="-31.4566" gradientUnits="userSpaceOnUse">
<stop stop-color="#0072FF"/>
<stop offset="1" stop-color="#00FFFF"/>
</linearGradient>
</defs>
</svg>
