<svg width="289" height="62" viewBox="0 0 289 62" fill="none" xmlns="http://www.w3.org/2000/svg">
<path fill-rule="evenodd" clip-rule="evenodd" d="M67.0522 40.3914H82.4807C82.9189 40.3914 83.2908 40.0194 83.2908 39.5812C83.2908 39.143 82.9189 38.7711 82.4807 38.7711H67.9286V29.2837H80.7942C81.2324 29.2837 81.6043 28.9117 81.6043 28.4735C81.6043 28.0354 81.2324 27.6634 80.7942 27.6634H67.9286V18.3798H82.31C82.7482 18.3798 83.1201 18.0079 83.1201 17.5697C83.1201 17.1315 82.7482 16.7595 82.31 16.7595H67.0242C66.7921 16.7628 66.5705 16.8565 66.4064 17.0206C66.2422 17.1847 66.1486 17.4064 66.1453 17.6385V39.515C66.1486 39.7471 66.2422 39.9687 66.4064 40.1328C66.5705 40.297 66.7921 40.3906 67.0242 40.3939L67.0522 40.3914ZM94.0062 39.5124C94.0095 39.7445 94.1031 39.9662 94.2673 40.1303C94.4314 40.2944 94.653 40.3881 94.8851 40.3914H108.963C109.402 40.3914 109.773 40.0194 109.773 39.5812C109.773 39.143 109.402 38.7711 108.963 38.7711H95.759V17.4983C95.7557 17.2663 95.662 17.0446 95.4979 16.8805C95.3338 16.7164 95.1121 16.6227 94.88 16.6194C94.6479 16.6227 94.4263 16.7164 94.2622 16.8805C94.098 17.0446 94.0044 17.2663 94.0011 17.4983L94.0062 39.5124ZM120.991 40.3914H136.445C136.883 40.3914 137.255 40.0194 137.255 39.5812C137.255 39.143 136.883 38.7711 136.445 38.7711H121.893V29.2837H134.758C135.196 29.2837 135.568 28.9117 135.568 28.4735C135.568 28.0354 135.196 27.6634 134.758 27.6634H121.893V18.3798H136.274C136.712 18.3798 137.084 18.0079 137.084 17.5697C137.084 17.1315 136.712 16.7595 136.274 16.7595H120.988C120.756 16.7628 120.534 16.8565 120.37 17.0206C120.206 17.1847 120.113 17.4064 120.109 17.6385V39.515C120.113 39.7471 120.206 39.9687 120.37 40.1328C120.534 40.297 120.756 40.3906 120.988 40.3939L120.991 40.3914ZM158.645 40.799C162.594 40.799 165.192 39.3468 167.592 37.1202C167.727 36.9852 167.862 36.7814 167.862 36.5088C167.862 36.0706 167.454 35.6681 167.021 35.6681C166.751 35.6681 166.547 35.8031 166.41 35.9381C164.181 38.0654 161.918 39.2118 158.716 39.2118C153.078 39.2118 148.722 34.5496 148.722 28.578V28.5118C148.722 22.5707 153.009 17.9442 158.657 17.9442C161.969 17.9442 164.229 19.2282 166.186 21.0166C166.321 21.1517 166.558 21.2536 166.797 21.2536C167.271 21.2536 167.709 20.8459 167.709 20.3746C167.709 20.0689 167.541 19.8345 167.37 19.6664C165.077 17.7047 162.606 16.3545 158.693 16.3545C151.873 16.3545 146.877 21.8905 146.877 28.5755V28.6442C146.877 35.4311 151.871 40.7964 158.627 40.7964L158.645 40.799ZM184.618 39.6526C184.621 39.8846 184.715 40.1063 184.879 40.2704C185.043 40.4345 185.265 40.5282 185.497 40.5315C185.729 40.5282 185.951 40.4345 186.115 40.2704C186.279 40.1063 186.372 39.8846 186.376 39.6526V18.3798H193.937C194.375 18.3798 194.747 18.0079 194.747 17.5697C194.747 17.1315 194.375 16.7595 193.937 16.7595H177.054C176.616 16.7595 176.244 17.1315 176.244 17.5697C176.244 18.0079 176.616 18.3798 177.054 18.3798H184.615L184.618 39.6526ZM205.152 39.6526C205.155 39.8846 205.249 40.1063 205.413 40.2704C205.577 40.4345 205.799 40.5282 206.031 40.5315C206.263 40.5282 206.484 40.4345 206.649 40.2704C206.813 40.1063 206.906 39.8846 206.91 39.6526V30.6034H214.642L221.902 40.0296C222.106 40.2997 222.341 40.5035 222.679 40.5035C223.153 40.5035 223.592 40.0653 223.592 39.5914C223.592 39.3876 223.49 39.1838 223.321 38.98L216.603 30.2671C220.588 29.727 223.525 27.4647 223.525 23.5159V23.4802C223.525 21.7911 222.85 20.2065 221.737 19.0906C220.318 17.6716 217.992 16.7621 215.113 16.7621H206.064C205.832 16.7654 205.61 16.859 205.446 17.0232C205.282 17.1873 205.188 17.4089 205.185 17.641L205.152 39.6526ZM206.935 29.0187V18.3849H215.003C219.291 18.3849 221.79 20.3772 221.79 23.5515V23.6178C221.79 27.0265 218.853 29.0187 214.904 29.0187H206.935ZM245.603 40.8015C252.736 40.8015 257.521 35.0286 257.521 28.5805V28.5143C257.521 22.0688 252.828 16.3621 245.669 16.3621C238.51 16.3621 233.746 22.1299 233.746 28.5755V28.6442C233.746 35.0897 238.439 40.7964 245.598 40.7964L245.603 40.8015ZM245.669 39.2144C239.828 39.2144 235.576 34.4197 235.576 28.5805V28.5143C235.576 22.6726 239.761 17.9467 245.603 17.9467C251.445 17.9467 255.697 22.7414 255.697 28.5805V28.6493C255.697 34.4911 251.511 39.2144 245.669 39.2144ZM268.705 39.6882C268.705 40.1621 269.077 40.5289 269.546 40.5289C270.014 40.5289 270.386 40.157 270.386 39.6882V19.3072L286.625 39.9022C286.895 40.2411 287.165 40.4754 287.504 40.4754H287.639C288.047 40.4754 288.347 40.1366 288.347 39.7315V17.4397C288.347 16.9659 287.975 16.599 287.507 16.599C287.038 16.599 286.666 16.971 286.666 17.4397V37.3622L270.705 17.1621C270.468 16.8563 270.195 16.6525 269.826 16.6525H269.556C269.324 16.6558 269.102 16.7495 268.938 16.9136C268.774 17.0777 268.68 17.2994 268.677 17.5315L268.705 39.6882ZM19.5287 9.97773C11.0145 8.44915 4.28112 10.0491 1.59846 14.6985C-0.403977 18.1633 0.171788 22.7643 2.98692 27.6812C3.2264 28.099 3.7614 28.2417 4.17921 28.0048C4.59703 27.7678 4.73969 27.2303 4.50276 26.8125C1.96532 22.3847 1.44561 18.4155 3.11176 15.5723C5.34094 11.7127 11.3457 10.2631 19.2179 11.6999C19.6917 11.7865 20.1478 11.4452 20.2369 10.9968C20.3261 10.5484 19.9822 10.0669 19.5338 9.97773H19.5287ZM7.41471 33.6529C10.854 37.4361 15.3302 40.985 20.4076 43.93C32.7636 51.0634 45.884 52.969 52.3906 48.5489C52.788 48.2763 52.8925 47.7336 52.6454 47.3362C52.3983 46.9388 51.8301 46.8343 51.4327 47.0815C45.6317 51.0354 33.1407 49.2266 21.3069 42.3938C16.3569 39.5354 12.0259 36.1012 8.7089 32.4529C8.38535 32.0963 7.83252 32.0708 7.47585 32.3944C7.11918 32.7179 7.09371 33.2707 7.41725 33.6274L7.41471 33.6529ZM50.3474 32.6134C55.9522 26.0278 57.8706 19.4014 55.193 14.7647C53.2237 11.3509 49.0583 9.54973 43.5248 9.4784C43.0153 9.4733 42.6459 9.86054 42.6408 10.3395C42.6357 10.8184 43.023 11.2184 43.5019 11.2235C48.48 11.2872 52.0696 12.8413 53.6848 15.636C55.9089 19.488 54.174 25.3935 49.0226 31.4823C48.7118 31.8492 48.7577 32.3994 49.1245 32.7128C49.4914 33.0262 50.0417 32.9778 50.3551 32.6109L50.3474 32.6134ZM36.017 10.2911C30.9727 11.3713 25.6099 13.4833 20.456 16.4564C7.70514 23.8445 -0.612883 34.6719 0.541195 42.5441C0.609981 43.0205 1.05582 43.3517 1.56025 43.3084C2.06468 43.2651 2.36785 42.7938 2.32454 42.2894C1.29784 35.3012 9.18276 25.0113 21.3808 17.9671C26.3793 15.0806 31.5765 13.0349 36.4119 11.9955C36.8832 11.8936 37.1838 11.4299 37.0819 10.9586C36.98 10.4873 36.5163 10.1866 36.045 10.2885L36.017 10.2911ZM15.3608 48.0037C18.2753 56.1434 23.0444 61.1546 28.4046 61.1546C32.3153 61.1546 35.9355 58.4872 38.7557 53.7664C39.0053 53.3537 38.8703 52.8162 38.4576 52.569C38.0449 52.3219 37.5073 52.4544 37.2602 52.8671C34.7253 57.086 31.6096 59.3814 28.4046 59.3814C23.9463 59.3814 19.6968 54.9103 17.0014 47.3872C16.8384 46.9337 16.3391 46.6993 15.8856 46.8598C15.4321 47.0203 15.1977 47.5222 15.3582 47.9757L15.3608 48.0037ZM41.9886 46.4089C43.4968 41.5862 44.2815 36.0222 44.2815 30.2263C44.2815 15.7609 39.2193 3.2902 32.007 0.0878251C31.5663 -0.108343 31.0491 0.0903722 30.8555 0.531113C30.6619 0.971853 30.858 1.48902 31.2988 1.68264C37.7315 4.53599 42.5083 16.3723 42.5083 30.2238C42.5083 35.8489 41.7237 41.2346 40.2664 45.8866C40.1212 46.3452 40.3785 46.8369 40.8396 46.9821C41.3008 47.1273 41.7899 46.87 41.9351 46.4089H41.9886Z" fill="#CAD0DB"/>
</svg>
