<svg width="193" height="65" viewBox="0 0 193 65" fill="none" xmlns="http://www.w3.org/2000/svg">
<path d="M49.8383 0.0996094H49.6118C48.3788 0.125211 47.0703 0.424745 45.7366 0.926529C43.0567 1.92754 40.1504 3.78491 37.1937 6.40391C36.6149 6.91722 36.0236 7.46764 35.4322 8.04367C35.0422 7.65965 34.6522 7.30124 34.2621 6.94282C31.1293 4.11644 28.0468 2.12851 25.2285 1.0571C23.8193 0.52203 22.4479 0.200734 21.1646 0.170013C19.8813 0.138011 18.686 0.394023 17.6417 1.01357C15.6035 2.20787 14.4963 4.56063 14.0182 7.41644C13.5275 10.2889 13.6533 13.7707 14.4082 17.6877C14.5592 18.4685 14.7353 19.2621 14.9366 20.0814C14.0308 20.3374 13.15 20.619 12.3196 20.9134C8.6546 22.2063 5.69035 23.8448 3.56153 25.688C1.4327 27.5441 0.0524902 29.6946 0.0524902 32.0371C0.0524902 34.4565 1.50316 36.6966 3.74648 38.6423C5.98979 40.6008 9.12012 42.3416 12.9865 43.6729C13.603 43.8905 14.2321 44.0953 14.8863 44.2873C14.6724 45.1578 14.4837 46.0154 14.3327 46.8475C13.6156 50.7261 13.5275 54.1566 14.0308 56.96C14.5466 59.7633 15.6915 62.0546 17.692 63.2195C19.7429 64.4355 22.3724 64.2691 25.1656 63.2707C27.9461 62.2722 30.9783 60.3777 34.0482 57.6384C34.5389 57.2032 35.0296 56.7423 35.5203 56.2559C36.162 56.8832 36.8036 57.4848 37.4453 58.0352C40.3768 60.6081 43.2455 62.4002 45.8876 63.3475C48.5298 64.2947 51.0587 64.4355 53.0466 63.2579C55.11 62.0418 56.2801 59.6481 56.8211 56.6911C57.3621 53.7342 57.2615 50.1116 56.4688 46.041C56.343 45.4138 56.2046 44.761 56.0536 44.1209C56.494 43.9801 56.9344 43.8393 57.3621 43.6985C61.338 42.3672 64.5714 40.652 66.8991 38.7063C69.2267 36.7606 70.7365 34.5077 70.7365 32.0371C70.7365 29.6562 69.2896 27.5057 67.1004 25.6368C64.9112 23.7808 61.879 22.1423 58.1674 20.8494C57.4376 20.5934 56.6827 20.3502 55.9027 20.1198C56.0285 19.5949 56.1543 19.0701 56.2549 18.5453C57.0979 14.3723 57.2489 10.6601 56.7582 7.63533C56.2549 4.61183 55.0974 2.15411 52.9963 0.920129C52.0527 0.362022 50.9706 0.10857 49.8383 0.0996094ZM49.6244 3.19096C50.417 3.17048 51.0461 3.31896 51.4865 3.58138C52.4427 4.1382 53.3612 5.63588 53.7763 8.13456C54.1915 10.6473 54.0783 14.0267 53.2857 17.9181C53.185 18.3917 53.0844 18.8653 52.9711 19.3517C50.0522 18.6605 46.869 18.1485 43.5223 17.8285C41.5973 15.0379 39.5842 12.4778 37.546 10.2377C38.0996 9.70903 38.628 9.19701 39.169 8.72339C41.9244 6.28999 44.5791 4.63231 46.7809 3.81051C47.8755 3.39961 48.8317 3.21144 49.6244 3.19096ZM20.8375 3.26136H21.1394C21.9824 3.28568 23.0015 3.49177 24.1716 3.93467C26.5118 4.82304 29.3427 6.61 32.2491 9.24693C32.6013 9.56695 32.9536 9.89976 33.3059 10.2505C31.2677 12.4778 29.242 15.0251 27.2919 17.8157C23.9577 18.1357 20.7746 18.6477 17.8682 19.3133C17.6795 18.5581 17.5159 17.8157 17.3775 17.0988C16.6729 13.4635 16.5974 10.2889 16.9875 7.94127C17.3901 5.59491 18.2582 4.19965 19.1515 3.67226C19.5667 3.42777 20.1329 3.278 20.8375 3.26008V3.26136ZM35.4322 12.4522C36.8288 13.9755 38.2128 15.6908 39.5842 17.5469C38.2128 17.4828 36.8036 17.4444 35.3945 17.4444C33.9979 17.4444 32.6139 17.4828 31.2425 17.5469C32.6265 15.6908 34.0357 13.9883 35.4322 12.4522ZM92.5532 15.4988V44.8378H96.1515V33.1764H101.901L109.249 44.8378H113.489L105.701 32.8692C109.639 32.5108 113.187 29.6178 113.187 24.3312C113.187 18.9293 109.425 15.4988 104.141 15.4988H92.5532ZM183.997 17.7773V23.5887H180.6V26.4945H183.997V40.396C183.997 43.5577 185.633 45.3626 188.652 45.3626C190.539 45.3626 191.798 44.7866 192.553 43.9929L191.546 41.5352C191.169 42.0216 190.288 42.4185 189.407 42.4185C188.023 42.4185 187.268 41.2664 187.268 39.6919V26.4945H191.546V23.5887H187.268V17.7773H183.997ZM96.1515 18.7501H103.713C107.123 18.7501 109.463 21.0414 109.463 24.3312C109.463 27.6337 107.123 29.9634 103.713 29.9634H96.1515V18.7501ZM35.3945 20.5166C37.5963 20.5166 39.7478 20.6062 41.8363 20.7598C43.019 22.5263 44.1639 24.3824 45.2585 26.3025C46.3531 28.2226 47.3723 30.1555 48.2907 32.0628C47.3723 33.9956 46.3657 35.9541 45.2585 37.887C44.1639 39.8199 43.0316 41.676 41.8615 43.4553C39.7603 43.6089 37.5963 43.6857 35.3945 43.6857C33.2178 43.6857 31.079 43.6089 28.9904 43.4809C27.8077 41.7016 26.6502 39.8455 25.543 37.9126C24.4358 35.9797 23.4293 34.034 22.5234 32.114C23.4293 30.1811 24.4358 28.2482 25.5304 26.3153C26.625 24.3824 27.7826 22.5263 28.9652 20.7598C31.0538 20.6062 33.2053 20.5166 35.3945 20.5166ZM25.0775 21.1566C24.3352 22.3343 23.618 23.5375 22.9134 24.7792C22.2089 26.0209 21.5546 27.2625 20.9255 28.4914C20.0322 26.3665 19.2899 24.28 18.6734 22.2831C20.6865 21.8223 22.8254 21.451 25.0775 21.1566ZM45.7115 21.1694C47.9762 21.451 50.1402 21.8479 52.1533 22.3087C51.5494 24.3056 50.7819 26.3793 49.8886 28.5042C49.2469 27.2625 48.5675 26.0081 47.8629 24.7664C47.1584 23.5375 46.4412 22.3343 45.7115 21.1694ZM15.7419 23.0383C16.6226 25.9441 17.7801 29.0034 19.1893 32.114C17.7549 35.2757 16.5848 38.3735 15.6915 41.3176C15.1002 41.1512 14.5214 40.9592 13.9553 40.7672C10.3821 39.5255 7.56125 37.9254 5.71048 36.3126C3.85845 34.6997 3.0721 33.138 3.0721 32.0371C3.0721 30.9747 3.79051 29.541 5.52427 28.0306C7.25677 26.5201 9.91654 25.0096 13.3136 23.8064C14.0811 23.5375 14.8989 23.2815 15.7419 23.0383ZM125.995 23.0639C120.019 23.0639 115.691 28.0306 115.691 34.1877C115.691 40.8312 120.145 45.3626 126.247 45.3626C129.644 45.3626 132.538 44.2233 134.551 42.1112L133.041 39.9479C131.405 41.6632 129.015 42.6361 126.624 42.6361C122.133 42.6361 119.365 39.2951 119.113 35.2885H135.935V34.4565C135.935 28.069 132.286 23.0639 125.995 23.0639ZM148.391 23.0639C144.994 23.0639 142.352 24.2032 140.087 26.5841L141.597 28.8626C143.484 26.8401 145.497 25.9185 148.013 25.9185C151.033 25.9185 153.298 27.5441 153.298 30.4115V34.2389C151.536 32.2548 149.146 31.3331 146.378 31.3331C142.855 31.3331 139.08 33.5732 139.08 38.3223C139.08 42.9433 142.855 45.3626 146.378 45.3626C149.146 45.3626 151.536 44.3513 153.298 42.4185V44.8378H156.443V30.2323C156.443 25.0864 152.794 23.0639 148.391 23.0639ZM171.541 23.0639C165.376 23.0639 161.098 27.9025 161.098 34.1877C161.098 40.524 165.376 45.3626 171.541 45.3626C175.316 45.3626 177.58 43.7753 179.216 41.6632L177.077 39.6407C175.693 41.5352 173.932 42.4185 171.793 42.4185C167.263 42.4185 164.495 38.8983 164.495 34.1877C164.495 29.477 167.263 26.0081 171.793 26.0081C173.932 26.0081 175.693 26.8401 177.077 28.773L179.216 26.7505C177.58 24.6384 175.316 23.0639 171.541 23.0639ZM55.0974 23.0767C55.8146 23.2943 56.5192 23.5247 57.186 23.7552C60.6334 24.9584 63.3762 26.4689 65.1754 28.005C66.962 29.5282 67.7169 30.9875 67.7169 32.0371C67.7169 33.1508 66.9116 34.7125 64.9866 36.3254C63.0491 37.9382 60.1175 39.5383 56.4185 40.7928C56.0285 40.9208 55.6384 41.0488 55.2358 41.164C54.3299 38.2454 53.1095 35.1733 51.65 32.0628C53.0592 28.9906 54.2167 25.9697 55.0974 23.0767ZM35.3945 25.624C33.7234 25.6264 32.1215 26.3028 30.9399 27.505C29.7582 28.7072 29.0934 30.337 29.0911 32.0371C29.0901 33.7395 29.7534 35.3726 30.9354 36.5776C32.1174 37.7825 33.7212 38.4607 35.3945 38.4631C36.2241 38.4636 37.0456 38.2977 37.8121 37.9749C38.5786 37.6522 39.2751 37.1789 39.8617 36.5821C40.4483 35.9853 40.9135 35.2767 41.2307 34.4968C41.548 33.717 41.711 32.8812 41.7105 32.0371C41.7082 30.3348 41.0416 28.703 39.8572 27.5005C38.6729 26.298 37.0677 25.623 35.3945 25.624ZM125.869 25.7904C130.651 25.7904 132.664 29.7074 132.789 32.8692H119.113C119.277 29.6178 121.491 25.7904 125.869 25.7904ZM147.51 33.7012C149.775 33.7012 152.039 34.5845 153.298 36.3382V40.3447C152.039 42.1112 149.775 42.9817 147.51 42.9817C144.49 42.9817 142.352 41.0488 142.352 38.3735C142.352 35.6341 144.49 33.7012 147.51 33.7012ZM49.9263 35.6213C50.8574 37.7974 51.6626 39.9223 52.2917 41.9448C50.2409 42.4184 48.0265 42.8025 45.7115 43.0841C46.4412 41.8936 47.171 40.6648 47.8755 39.4231C48.5927 38.1558 49.2721 36.8886 49.9263 35.6213ZM20.9255 35.7237C21.5546 36.9654 22.2214 38.207 22.926 39.4487C23.6432 40.7032 24.3855 41.932 25.1404 43.1353C22.8505 42.8793 20.6613 42.5209 18.6357 42.0728C19.2522 40.0375 20.0196 37.9126 20.9255 35.7237ZM53.1221 44.9018C53.2731 45.4906 53.3989 46.0794 53.5121 46.6427C54.2419 50.406 54.2922 53.6958 53.8518 56.1279C53.4115 58.5728 52.4679 60.0449 51.5368 60.5953C50.6309 61.133 49.0456 61.2226 46.8942 60.4545C44.7427 59.6737 42.1257 58.0864 39.408 55.7055C38.8167 55.1935 38.2254 54.643 37.634 54.0542C39.6597 51.8013 41.6476 49.2156 43.56 46.3994C46.9571 46.0922 50.178 45.593 53.1221 44.9018ZM17.8179 45.0426C20.762 45.7082 23.9703 46.169 27.3422 46.4378C29.3049 49.254 31.3558 51.8269 33.4066 54.067C32.9536 54.515 32.5133 54.9375 32.0603 55.3343C29.2295 57.856 26.4489 59.5457 24.159 60.3649C21.8566 61.197 20.1329 61.1073 19.2018 60.5569C18.296 60.0321 17.4278 58.6752 17 56.3967C16.5848 54.1182 16.6352 51.0205 17.302 47.4235C17.4404 46.6555 17.6165 45.8618 17.8179 45.0426ZM39.6597 46.6555C38.2883 48.5499 36.9043 50.2908 35.5203 51.8525C34.0986 50.2908 32.6643 48.5499 31.2677 46.6811C32.6265 46.7323 33.9979 46.7579 35.3945 46.7579C36.8288 46.7579 38.2505 46.7195 39.6597 46.6555Z" fill="#CDCDCD"/>
</svg>
