<svg width="216" height="420" viewBox="0 0 216 420" fill="none" xmlns="http://www.w3.org/2000/svg">
<g filter="url(#filter0_d_9_568)">
<path d="M134.558 20.6604C140.707 16.6776 146.865 13.2097 152.832 10.4838C158.633 7.73399 164.348 5.57066 169.991 3.91012C175.018 2.4168 180.055 1.4383 184.795 0.758873C189.358 0.139193 193.872 -0.1453 198.313 0.072959C202.613 0.0995837 206.828 0.712726 210.758 1.54122C211.088 1.58931 211.667 1.67344 211.973 1.88912C207.111 3.40649 202.353 5.36693 197.559 7.5787C191.568 10.4721 185.434 13.7724 179.285 17.7551C172.686 21.9291 166.237 26.8096 159.596 32.4321C152.564 38.4255 145.41 45.2568 138.357 53.1297C130.616 61.6726 123.133 70.7664 116.094 80.8661C108.342 91.8033 100.882 103.639 93.9605 116.408C86.385 130.195 79.5479 145.287 73.2622 161.229C66.6039 178.572 60.9929 196.837 56.6771 216.061C52.3612 235.284 49.8418 254.342 48.99 272.957C48.1207 292.853 49.3349 311.769 52.7546 328.867C56.4534 346.947 62.5257 362.633 71.1394 375.352C79.8575 388.515 90.9544 398.087 104.185 403.434C107.522 404.861 110.907 405.953 114.354 406.625C110.449 407.94 106.322 409.051 102.503 409.778C87.1194 412.846 72.5816 411.843 59.5407 406.352C46.3345 400.836 35.2376 391.264 26.4952 378.27C17.8936 365.466 11.8091 349.864 8.1103 331.784C4.60794 314.675 3.3111 295.747 4.34574 275.874C5.1975 257.259 7.7996 238.214 12.0328 218.978C16.3243 199.922 21.7943 181.465 28.6179 164.146C34.6557 148.168 41.7041 133.363 49.3162 119.325C56.2373 106.556 63.6855 94.8043 71.4493 83.7833C78.6537 73.7077 86.1737 64.3625 93.9606 56.083C101.096 48.2221 108.262 41.307 115.2 35.3853C121.403 29.8703 127.947 24.9181 134.475 20.6483L134.558 20.6604Z" fill="url(#paint0_linear_9_568)"/>
</g>
<defs>
<filter id="filter0_d_9_568" x="0" y="0" width="215.973" height="419.49" filterUnits="userSpaceOnUse" color-interpolation-filters="sRGB">
<feFlood flood-opacity="0" result="BackgroundImageFix"/>
<feColorMatrix in="SourceAlpha" type="matrix" values="0 0 0 0 0 0 0 0 0 0 0 0 0 0 0 0 0 0 127 0" result="hardAlpha"/>
<feOffset dy="4"/>
<feGaussianBlur stdDeviation="2"/>
<feComposite in2="hardAlpha" operator="out"/>
<feColorMatrix type="matrix" values="0 0 0 0 0 0 0 0 0 0 0 0 0 0 0 0 0 0 0.25 0"/>
<feBlend mode="normal" in2="BackgroundImageFix" result="effect1_dropShadow_9_568"/>
<feBlend mode="normal" in="SourceGraphic" in2="effect1_dropShadow_9_568" result="shape"/>
</filter>
<linearGradient id="paint0_linear_9_568" x1="276.077" y1="1370" x2="-115.826" y2="1314.59" gradientUnits="userSpaceOnUse">
<stop stop-color="#0072FF"/>
<stop offset="1" stop-color="#00FFFF"/>
</linearGradient>
</defs>
</svg>
